<?xml version="1.0" encoding="UTF-8" standalone="no"?>
<svg
   width="512"
   height="512"
   viewBox="0 0 512 512"
   fill="none"
   version="1.1"
   id="svg1566"
   sodipodi:docname="folder-irpf-logo.svg"
   inkscape:version="1.2.2 (b0a8486541, 2022-12-01)"
   xmlns:inkscape="http://www.inkscape.org/namespaces/inkscape"
   xmlns:sodipodi="http://sodipodi.sourceforge.net/DTD/sodipodi-0.dtd"
   xmlns="http://www.w3.org/2000/svg"
   xmlns:svg="http://www.w3.org/2000/svg">
  <sodipodi:namedview
     id="namedview1568"
     pagecolor="#505050"
     bordercolor="#eeeeee"
     borderopacity="1"
     inkscape:showpageshadow="0"
     inkscape:pageopacity="0"
     inkscape:pagecheckerboard="0"
     inkscape:deskcolor="#505050"
     showgrid="false"
     inkscape:zoom="1.2285156"
     inkscape:cx="256.407"
     inkscape:cy="256.407"
     inkscape:window-width="1920"
     inkscape:window-height="1011"
     inkscape:window-x="0"
     inkscape:window-y="0"
     inkscape:window-maximized="1"
     inkscape:current-layer="svg1566"
     showguides="true">
    <sodipodi:guide
       position="156,356"
       orientation="-1,0"
       id="guide4544"
       inkscape:locked="false"
       inkscape:label=""
       inkscape:color="rgb(0,134,229)" />
    <sodipodi:guide
       position="356,156"
       orientation="-1,0"
       id="guide4662"
       inkscape:locked="false"
       inkscape:label=""
       inkscape:color="rgb(0,134,229)" />
    <sodipodi:guide
       position="214.07949,306"
       orientation="0,1"
       id="guide4664"
       inkscape:locked="false"
       inkscape:label=""
       inkscape:color="rgb(0,134,229)" />
    <sodipodi:guide
       position="477.89825,106"
       orientation="0,1"
       id="guide4666"
       inkscape:locked="false"
       inkscape:label=""
       inkscape:color="rgb(0,134,229)" />
  </sodipodi:namedview>
  <g
     opacity="0.2"
     filter="url(#filter0_f_201_13)"
     id="g1524">
    <path
       d="M88 50C88 50 48 50 48 90L47.9648 218H47.998L47.9648 466.094L424 466C464 466 464 426 464 426V218V170V122C464 122 464 82 424 82H224L192 50H88Z"
       fill="#408AE5"
       id="path1522" />
  </g>
  <path
     d="M192 48H88C88 48 48 48 48 88V216H464V120C464 120 464 80 424 80H224L192 48Z"
     fill="url(#paint0_linear_201_13)"
     id="path1526" />
  <g
     opacity="0.1"
     filter="url(#filter1_f_201_13)"
     id="g1530">
    <path
       d="M256 132L224 164H88C88 164 48 164 48 204V468H424C464 468 464 428 464 428V172C464 132 424 132 424 132H256Z"
       fill="#408AE5"
       id="path1528" />
  </g>
  <path
     d="M256 128L224 160H88C88 160 48 160 48 200V464H424C464 464 464 424 464 424V168C464 128 424 128 424 128H256Z"
     fill="url(#paint1_linear_201_13)"
     id="path1532" />
  <path
     d="M464 418C464 418 464 458 424 458L48.0019 458.094L47.998 464.094L424 464C464 464 464 424 464 424V418Z"
     fill="#99C1F1"
     id="path1534" />
  <path
     opacity="0.3"
     d="M256 128L224 160H88C88 160 48 160 48 200V204C48 164 88 162 88 162H224.591L256.591 130H424C429.38 130 464 132 464 172V168C464 128 424 128 424 128H256Z"
     fill="white"
     id="path1536" />
  <defs
     id="defs1564">
    <filter
       id="filter0_f_201_13"
       x="43.8042"
       y="45.8394"
       width="424.356"
       height="424.415"
       filterUnits="userSpaceOnUse"
       color-interpolation-filters="sRGB">
      <feFlood
         flood-opacity="0"
         result="BackgroundImageFix"
         id="feFlood1540" />
      <feBlend
         mode="normal"
         in="SourceGraphic"
         in2="BackgroundImageFix"
         result="shape"
         id="feBlend1542" />
      <feGaussianBlur
         stdDeviation="2.08032"
         result="effect1_foregroundBlur_201_13"
         id="feGaussianBlur1544" />
    </filter>
    <filter
       id="filter1_f_201_13"
       x="10.4"
       y="94.4"
       width="491.2"
       height="411.2"
       filterUnits="userSpaceOnUse"
       color-interpolation-filters="sRGB">
      <feFlood
         flood-opacity="0"
         result="BackgroundImageFix"
         id="feFlood1547" />
      <feBlend
         mode="normal"
         in="SourceGraphic"
         in2="BackgroundImageFix"
         result="shape"
         id="feBlend1549" />
      <feGaussianBlur
         stdDeviation="18.8"
         result="effect1_foregroundBlur_201_13"
         id="feGaussianBlur1551" />
    </filter>
    <linearGradient
       id="paint0_linear_201_13"
       x1="48"
       y1="132"
       x2="464"
       y2="132"
       gradientUnits="userSpaceOnUse">
      <stop
         stop-color="#3584E4"
         id="stop1554" />
      <stop
         offset="1"
         stop-color="#62A0EA"
         id="stop1556" />
    </linearGradient>
    <linearGradient
       id="paint1_linear_201_13"
       x1="152.898"
       y1="173.203"
       x2="447.309"
       y2="528"
       gradientUnits="userSpaceOnUse">
      <stop
         stop-color="#99C1F1"
         id="stop1559" />
      <stop
         offset="1"
         stop-color="#C3E5E7"
         id="stop1561" />
    </linearGradient>
  </defs>
  <path
     d="M 244.46652,382.87785 C 220.06585,359.53598 197.1455,338.32528 183.08815,326.07791 l -6.92242,-6.0311 4.73001,-9.3819 c 5.55801,-11.02411 11.77556,-22.62274 16.49427,-30.76958 1.85645,-3.20512 3.37538,-5.9274 3.37538,-6.04951 0,-0.60559 -23.40912,13.53152 -38.78654,23.42373 l -7.4373,4.7844 -2.17337,-1.79359 c -3.42929,-2.83001 -11.22549,-8.63374 -18.06253,-13.44633 l -6.27848,-4.41942 8.10907,-4.71825 c 19.07207,-11.09704 42.44905,-23.39552 58.28133,-30.66135 l 6.119,-2.8082 15.56018,0.28182 c 8.55808,0.15504 19.88498,0.5832 25.1709,0.95145 5.28586,0.36824 10.22851,0.66096 10.98361,0.65039 1.30957,-0.0181 1.27787,-0.062 -0.68643,-0.94666 -2.11448,-0.95223 -16.85987,-6.49925 -23.79791,-8.95248 l -3.89008,-1.37548 9.83955,-3.22665 c 5.41173,-1.77466 12.28012,-3.93429 15.26307,-4.79919 l 5.42354,-1.57254 5.56013,1.55204 c 12.77818,3.56687 30.81113,9.99405 45.29045,16.14208 l 6.55907,2.78506 -1.9479,13.59825 c -1.07128,7.47901 -1.89679,13.64932 -1.83433,13.71173 0.0623,0.0623 3.08639,-1.54675 6.71997,-3.57594 3.6335,-2.02918 10.14395,-5.43246 14.46766,-7.56283 l 7.86124,-3.87341 5.58744,2.80091 c 10.0437,5.03475 37.95607,20.86031 37.95607,21.52006 0,0.16501 -1.28714,1.20084 -2.86029,2.30179 -11.06111,7.74079 -29.27193,22.01587 -41.55418,32.57341 l -6.65813,5.72322 -5.69847,-1.32334 c -18.23292,-4.23406 -67.68785,-13.38893 -68.41258,-12.66422 -0.10424,0.10457 3.04782,2.5465 7.0053,5.42649 11.63199,8.46501 40.83508,31.1582 40.83508,31.73219 0,0.13772 -41.1894,39.40948 -46.45641,44.29357 l -2.29305,2.12627 z m 19.5675,-80.97637 c 12.10525,-8.5315 26.20996,-17.90093 35.72663,-23.73241 6.26093,-3.83645 7.58188,-4.82191 7.0936,-5.29206 -3.48984,-3.36054 -48.99516,-26.28344 -52.17645,-26.28344 -2.32491,0 -50.2803,24.1016 -52.62934,26.45068 -0.21147,0.21133 2.76012,2.30357 6.60323,4.64954 9.00089,5.49439 28.72927,18.62669 38.1078,25.36665 4.02732,2.89427 7.49445,5.27445 7.70472,5.28927 0.21026,0.0144 4.51664,-2.88688 9.56981,-6.44823 z M 247.56023,290.98825 C 227.44892,288.14361 217.5277,275.1348 227.70895,264.959 c 11.88332,-11.87697 41.44951,-11.88296 53.20014,-0.0117 9.09753,9.19163 2.42946,20.6089 -14.56046,24.93098 -5.03861,1.28177 -13.87818,1.80353 -18.7884,1.10901 z"
     style="fill:#4890e7;fill-opacity:1;stroke-width:0.457653"
     id="path11616"
     sodipodi:nodetypes="sscsssscsscsscssssscsscsscsssscsssscssssscssssssssssssssss" />
</svg>
