<?xml version="1.0" encoding="UTF-8" standalone="no"?>
<svg
   height="128px"
   viewBox="0 0 128 128"
   width="128px"
   version="1.1"
   id="svg23"
   sodipodi:docname="folder-hdd-network.svg"
   xml:space="preserve"
   inkscape:version="1.2.2 (b0a8486541, 2022-12-01)"
   xmlns:inkscape="http://www.inkscape.org/namespaces/inkscape"
   xmlns:sodipodi="http://sodipodi.sourceforge.net/DTD/sodipodi-0.dtd"
   xmlns="http://www.w3.org/2000/svg"
   xmlns:svg="http://www.w3.org/2000/svg"><defs
     id="defs27" /><sodipodi:namedview
     id="namedview25"
     pagecolor="#505050"
     bordercolor="#eeeeee"
     borderopacity="1"
     inkscape:showpageshadow="0"
     inkscape:pageopacity="0"
     inkscape:pagecheckerboard="0"
     inkscape:deskcolor="#505050"
     showgrid="false"
     inkscape:zoom="4.9140625"
     inkscape:cx="64.305246"
     inkscape:cy="62.880763"
     inkscape:window-width="1920"
     inkscape:window-height="1011"
     inkscape:window-x="0"
     inkscape:window-y="0"
     inkscape:window-maximized="1"
     inkscape:current-layer="svg23" /><linearGradient
     id="a"
     gradientTransform="matrix(0.45451 0 0 0.455522 -1210.292114 616.172607)"
     gradientUnits="userSpaceOnUse"
     x1="2689.251953"
     x2="2918.069824"
     y1="-1106.802979"
     y2="-1106.802979"><stop
       offset="0"
       stop-color="#62a0ea"
       id="stop2" /><stop
       offset="0.0576991"
       stop-color="#afd4ff"
       id="stop4" /><stop
       offset="0.122204"
       stop-color="#62a0ea"
       id="stop6" /><stop
       offset="0.873306"
       stop-color="#62a0ea"
       id="stop8" /><stop
       offset="0.955997"
       stop-color="#c0d5ea"
       id="stop10" /><stop
       offset="1"
       stop-color="#62a0ea"
       id="stop12" /></linearGradient><path
     d="m 21.976562 12 c -5.527343 0 -9.976562 4.460938 -9.976562 10 v 86.03125 c 0 5.542969 4.449219 10 9.976562 10 h 84.042969 c 5.53125 0 9.980469 -4.457031 9.980469 -10 v -72.085938 c 0 -6.628906 -5.359375 -12 -11.972656 -12 h -46.027344 c -2.453125 0 -4.695312 -1.386718 -5.796875 -3.582031 l -1.503906 -2.992187 c -1.65625 -3.292969 -5.019531 -5.371094 -8.699219 -5.371094 z m 0 0"
     fill="#438de6"
     id="path15" /><path
     d="m 65.976562 36 c -2.746093 0 -5.226562 1.101562 -7.027343 2.890625 c -2.273438 2.253906 -5.382813 5.109375 -8.632813 5.109375 h -28.339844 c -5.527343 0 -9.976562 4.460938 -9.976562 10 v 54.03125 c 0 5.542969 4.449219 10 9.976562 10 h 84.042969 c 5.53125 0 9.980469 -4.457031 9.980469 -10 v -62.03125 c 0 -5.539062 -4.449219 -10 -9.980469 -10 z m 0 0"
     fill="url(#a)"
     id="path17" /><path
     d="m 65.976562 32 c -2.746093 0 -5.226562 1.101562 -7.027343 2.890625 c -2.273438 2.253906 -5.382813 5.109375 -8.632813 5.109375 h -28.339844 c -5.527343 0 -9.976562 4.460938 -9.976562 10 v 55.976562 c 0 5.539063 4.449219 10 9.976562 10 h 84.042969 c 5.53125 0 9.980469 -4.460937 9.980469 -10 v -63.976562 c 0 -5.539062 -4.449219 -10 -9.980469 -10 z m 0 0"
     fill="#a4caee"
     id="path19" /><g
     style="fill:#438de6;fill-opacity:1"
     id="g196"
     transform="matrix(2.0022322,0,0,2.0022322,39.973214,48.735665)"><path
       d="M 22,14.86 V 14.81 A 2.61,2.61 0 0 0 21.9,14.24 L 20.26,4.51 A 3,3 0 0 0 17.26,2 H 6.69 A 3,3 0 0 0 3.74,4.51 l -1.62,9.71 a 2.61,2.61 0 0 0 -0.1,0.57 v 0.05 C 2,14.91 2,15 2,15 v 4 a 3,3 0 0 0 3,3 h 14 a 3,3 0 0 0 3,-3 v -4 c 0,0 0,-0.09 0,-0.14 z M 5.71,4.83 A 1,1 0 0 1 6.71,4 h 10.6 a 1,1 0 0 1 1,0.83 l 1.2,7.22 A 2.63,2.63 0 0 0 19,12 H 5 A 2.63,2.63 0 0 0 4.51,12.05 Z M 20,19 a 1,1 0 0 1 -1,1 H 5 A 1,1 0 0 1 4,19 V 15.08 L 4.08,14.62 A 1,1 0 0 1 5,14 h 14 a 1,1 0 0 1 0.92,0.62 L 20,15.08 Z m -3,-3 a 1,1 0 1 0 1,1 1,1 0 0 0 -1,-1 z"
       id="path187"
       style="fill:#438de6;fill-opacity:1" /></g><path
     id="path4945-3"
     style="color:#000000;fill:#438de6;stroke-width:2.09809;stroke-linecap:round;-inkscape-stroke:none"
     d="m 61.85254,92.056877 v 3.095703 l -0.52734,0.302735 c -0.76834,0.44006 -1.41447,1.06646 -1.87891,1.82031 l -0.30664,0.49805 H 48.14942 c -1.18145,4.8e-4 -2.11359,0.93574 -2.11329,2.11719 4.8e-4,1.180855 0.93241,2.114745 2.11329,2.115225 h 10.90625 l 0.29882,0.54492 c 0.92997,1.69102 2.69905,2.73879 4.62891,2.74414 1.92824,-0.006 3.69765,-1.05434 4.62695,-2.74414 l 0.29883,-0.54492 h 10.9375 c 1.18144,3e-4 2.11671,-0.9338 2.11719,-2.115225 3e-4,-1.18202 -0.93518,-2.11749 -2.11719,-2.11719 H 68.83496 l -0.30664,-0.5 c -0.46523,-0.75641 -1.11193,-1.38341 -1.88281,-1.82422 l -0.5293,-0.300781 v -3.091797 z m 2.12891,3.703128 c 2.32601,2.7e-4 4.23543,1.91031 4.23437,4.23632 -2.8e-4,2.324965 -1.90942,4.232175 -4.23437,4.232425 -2.32602,10e-4 -4.2341,-1.9064 -4.23438,-4.232425 -10e-4,-2.32706 1.9073,-4.23739 4.23438,-4.23632 z" /></svg>
