<?xml version="1.0" encoding="UTF-8" standalone="no"?>
<svg
   width="512"
   height="512"
   viewBox="0 0 512 512"
   fill="none"
   version="1.1"
   id="svg1566"
   sodipodi:docname="folder-3d.svg"
   inkscape:version="1.2.2 (b0a8486541, 2022-12-01)"
   xml:space="preserve"
   xmlns:inkscape="http://www.inkscape.org/namespaces/inkscape"
   xmlns:sodipodi="http://sodipodi.sourceforge.net/DTD/sodipodi-0.dtd"
   xmlns="http://www.w3.org/2000/svg"
   xmlns:svg="http://www.w3.org/2000/svg"><sodipodi:namedview
     id="namedview1568"
     pagecolor="#505050"
     bordercolor="#eeeeee"
     borderopacity="1"
     inkscape:showpageshadow="0"
     inkscape:pageopacity="0"
     inkscape:pagecheckerboard="0"
     inkscape:deskcolor="#505050"
     showgrid="false"
     inkscape:zoom="1.2285156"
     inkscape:cx="256.407"
     inkscape:cy="256.407"
     inkscape:window-width="1920"
     inkscape:window-height="1011"
     inkscape:window-x="0"
     inkscape:window-y="0"
     inkscape:window-maximized="1"
     inkscape:current-layer="svg1566"
     showguides="true"><sodipodi:guide
       position="156,356"
       orientation="-1,0"
       id="guide4544"
       inkscape:locked="false"
       inkscape:label=""
       inkscape:color="rgb(0,134,229)" /><sodipodi:guide
       position="356,156"
       orientation="-1,0"
       id="guide4662"
       inkscape:locked="false"
       inkscape:label=""
       inkscape:color="rgb(0,134,229)" /><sodipodi:guide
       position="214.07949,306"
       orientation="0,1"
       id="guide4664"
       inkscape:locked="false"
       inkscape:label=""
       inkscape:color="rgb(0,134,229)" /><sodipodi:guide
       position="477.89825,106"
       orientation="0,1"
       id="guide4666"
       inkscape:locked="false"
       inkscape:label=""
       inkscape:color="rgb(0,134,229)" /></sodipodi:namedview><g
     opacity="0.2"
     filter="url(#filter0_f_201_13)"
     id="g1524"><path
       d="M88 50C88 50 48 50 48 90L47.9648 218H47.998L47.9648 466.094L424 466C464 466 464 426 464 426V218V170V122C464 122 464 82 424 82H224L192 50H88Z"
       fill="#408AE5"
       id="path1522" /></g><path
     d="M192 48H88C88 48 48 48 48 88V216H464V120C464 120 464 80 424 80H224L192 48Z"
     fill="url(#paint0_linear_201_13)"
     id="path1526" /><g
     opacity="0.1"
     filter="url(#filter1_f_201_13)"
     id="g1530"><path
       d="M256 132L224 164H88C88 164 48 164 48 204V468H424C464 468 464 428 464 428V172C464 132 424 132 424 132H256Z"
       fill="#408AE5"
       id="path1528" /></g><path
     d="M256 128L224 160H88C88 160 48 160 48 200V464H424C464 464 464 424 464 424V168C464 128 424 128 424 128H256Z"
     fill="url(#paint1_linear_201_13)"
     id="path1532" /><path
     d="M464 418C464 418 464 458 424 458L48.0019 458.094L47.998 464.094L424 464C464 464 464 424 464 424V418Z"
     fill="#99C1F1"
     id="path1534" /><path
     opacity="0.3"
     d="M256 128L224 160H88C88 160 48 160 48 200V204C48 164 88 162 88 162H224.591L256.591 130H424C429.38 130 464 132 464 172V168C464 128 424 128 424 128H256Z"
     fill="white"
     id="path1536" /><defs
     id="defs1564"><filter
       id="filter0_f_201_13"
       x="43.8042"
       y="45.8394"
       width="424.356"
       height="424.415"
       filterUnits="userSpaceOnUse"
       color-interpolation-filters="sRGB"><feFlood
         flood-opacity="0"
         result="BackgroundImageFix"
         id="feFlood1540" /><feBlend
         mode="normal"
         in="SourceGraphic"
         in2="BackgroundImageFix"
         result="shape"
         id="feBlend1542" /><feGaussianBlur
         stdDeviation="2.08032"
         result="effect1_foregroundBlur_201_13"
         id="feGaussianBlur1544" /></filter><filter
       id="filter1_f_201_13"
       x="10.4"
       y="94.4"
       width="491.2"
       height="411.2"
       filterUnits="userSpaceOnUse"
       color-interpolation-filters="sRGB"><feFlood
         flood-opacity="0"
         result="BackgroundImageFix"
         id="feFlood1547" /><feBlend
         mode="normal"
         in="SourceGraphic"
         in2="BackgroundImageFix"
         result="shape"
         id="feBlend1549" /><feGaussianBlur
         stdDeviation="18.8"
         result="effect1_foregroundBlur_201_13"
         id="feGaussianBlur1551" /></filter><linearGradient
       id="paint0_linear_201_13"
       x1="48"
       y1="132"
       x2="464"
       y2="132"
       gradientUnits="userSpaceOnUse"><stop
         stop-color="#3584E4"
         id="stop1554" /><stop
         offset="1"
         stop-color="#62A0EA"
         id="stop1556" /></linearGradient><linearGradient
       id="paint1_linear_201_13"
       x1="152.898"
       y1="173.203"
       x2="447.309"
       y2="528"
       gradientUnits="userSpaceOnUse"><stop
         stop-color="#99C1F1"
         id="stop1559" /><stop
         offset="1"
         stop-color="#C3E5E7"
         id="stop1561" /></linearGradient><filter
       id="filter0_f_201_13-6"
       x="43.8042"
       y="45.8394"
       width="424.356"
       height="424.415"
       filterUnits="userSpaceOnUse"
       color-interpolation-filters="sRGB"><feFlood
         flood-opacity="0"
         result="BackgroundImageFix"
         id="feFlood1540-0" /><feBlend
         mode="normal"
         in="SourceGraphic"
         in2="BackgroundImageFix"
         result="shape"
         id="feBlend1542-6" /><feGaussianBlur
         stdDeviation="2.08032"
         result="effect1_foregroundBlur_201_13"
         id="feGaussianBlur1544-2" /></filter><filter
       id="filter1_f_201_13-6"
       x="10.4"
       y="94.4"
       width="491.2"
       height="411.2"
       filterUnits="userSpaceOnUse"
       color-interpolation-filters="sRGB"><feFlood
         flood-opacity="0"
         result="BackgroundImageFix"
         id="feFlood1547-1" /><feBlend
         mode="normal"
         in="SourceGraphic"
         in2="BackgroundImageFix"
         result="shape"
         id="feBlend1549-8" /><feGaussianBlur
         stdDeviation="18.8"
         result="effect1_foregroundBlur_201_13"
         id="feGaussianBlur1551-7" /></filter><filter
       id="filter0_f_201_13-1"
       x="43.8042"
       y="45.8394"
       width="424.356"
       height="424.415"
       filterUnits="userSpaceOnUse"
       color-interpolation-filters="sRGB"><feFlood
         flood-opacity="0"
         result="BackgroundImageFix"
         id="feFlood1540-9" /><feBlend
         mode="normal"
         in="SourceGraphic"
         in2="BackgroundImageFix"
         result="shape"
         id="feBlend1542-4" /><feGaussianBlur
         stdDeviation="2.08032"
         result="effect1_foregroundBlur_201_13"
         id="feGaussianBlur1544-7" /></filter><filter
       id="filter1_f_201_13-8"
       x="10.4"
       y="94.4"
       width="491.2"
       height="411.2"
       filterUnits="userSpaceOnUse"
       color-interpolation-filters="sRGB"><feFlood
         flood-opacity="0"
         result="BackgroundImageFix"
         id="feFlood1547-4" /><feBlend
         mode="normal"
         in="SourceGraphic"
         in2="BackgroundImageFix"
         result="shape"
         id="feBlend1549-5" /><feGaussianBlur
         stdDeviation="18.8"
         result="effect1_foregroundBlur_201_13"
         id="feGaussianBlur1551-0" /></filter></defs><g
     id="g231"
     transform="matrix(0.68909871,0,0,0.68909871,148.83485,206.81369)">
	<g
   id="g213">
		<polygon
   style="fill:#f57c00;fill-opacity:1"
   points="287.641,76.497 155.144,0 22.647,76.497 155.144,152.993 "
   id="polygon211" />
	</g>
	<g
   id="g217">
		<polygon
   style="fill:#1565c0;fill-opacity:1"
   points="155.144,310.288 22.647,233.792 22.647,76.497 155.144,152.993 "
   id="polygon215" />
	</g>
	<g
   id="g221">
		<polygon
   style="fill:#4caf50;fill-opacity:1"
   points="155.144,310.288 287.641,233.792 287.641,76.497 155.144,152.993 "
   id="polygon219" />
	</g>
	<g
   id="g225">
		<path
   style="opacity:0.5;fill:#ffffff"
   d="m 64.62,208.163 c 2.68,3.262 8.896,9.53 15.434,13.304 12.109,6.992 15.86,1.44 15.754,-4.408 -0.107,-9.815 -8.896,-19.069 -18.005,-24.328 l -5.251,-3.032 v -7.073 l 5.251,3.031 c 6.859,3.96 15.54,5.435 15.54,-2.817 0,-5.573 -3.537,-12.546 -12.218,-17.558 -5.572,-3.217 -10.932,-3.846 -13.932,-3.435 l -2.466,-8.283 c 3.645,-0.576 10.718,0.829 18.219,5.16 13.718,7.92 19.935,19.654 19.935,28.121 0,7.181 -4.287,10.815 -12.86,8.974 v 0.214 c 8.573,6.665 15.539,17.117 15.539,26.871 0,11.146 -8.681,15.888 -25.398,6.235 -7.824,-4.517 -14.684,-10.942 -18.112,-15.173 z"
   id="path223" />
	</g>
	<g
   id="g229">
		<path
   style="opacity:0.5;fill:#ffffff"
   d="m 197.157,174.405 c 5.68,-4.137 12.432,-8.677 19.826,-12.947 13.396,-7.734 22.935,-10.132 29.258,-7.889 6.43,2.182 10.181,8.376 10.181,20.059 0,11.79 -3.644,23.539 -10.396,34.083 -6.752,10.65 -17.897,20.729 -31.937,28.835 -6.645,3.836 -12.218,6.731 -16.933,8.918 z m 9.323,58.495 c 2.358,-0.933 5.787,-2.805 9.431,-4.909 19.935,-11.509 30.759,-28.905 30.759,-48.412 0.106,-17.103 -9.538,-22.358 -29.258,-10.973 -4.822,2.784 -8.466,5.315 -10.932,7.275 z"
   id="path227" />
	</g>
</g></svg>
