<?xml version="1.0" encoding="UTF-8" standalone="no"?>
<svg
   height="128px"
   viewBox="0 0 128 128"
   width="128px"
   version="1.1"
   id="svg21"
   sodipodi:docname="folder-user.svg"
   xml:space="preserve"
   inkscape:version="1.2.2 (b0a8486541, 2022-12-01)"
   xmlns:inkscape="http://www.inkscape.org/namespaces/inkscape"
   xmlns:sodipodi="http://sodipodi.sourceforge.net/DTD/sodipodi-0.dtd"
   xmlns="http://www.w3.org/2000/svg"
   xmlns:svg="http://www.w3.org/2000/svg"><defs
     id="defs25" /><sodipodi:namedview
     id="namedview23"
     pagecolor="#505050"
     bordercolor="#eeeeee"
     borderopacity="1"
     inkscape:showpageshadow="0"
     inkscape:pageopacity="0"
     inkscape:pagecheckerboard="0"
     inkscape:deskcolor="#505050"
     showgrid="false"
     inkscape:zoom="5.6568543"
     inkscape:cx="84.322483"
     inkscape:cy="65.2306"
     inkscape:window-width="1920"
     inkscape:window-height="1011"
     inkscape:window-x="0"
     inkscape:window-y="0"
     inkscape:window-maximized="1"
     inkscape:current-layer="svg21" /><linearGradient
     id="a"
     gradientTransform="matrix(0.45451 0 0 0.455522 -1210.292114 616.172607)"
     gradientUnits="userSpaceOnUse"
     x1="2689.251953"
     x2="2918.069824"
     y1="-1106.802979"
     y2="-1106.802979"><stop
       offset="0"
       stop-color="#62a0ea"
       id="stop2" /><stop
       offset="0.0576991"
       stop-color="#afd4ff"
       id="stop4" /><stop
       offset="0.122204"
       stop-color="#62a0ea"
       id="stop6" /><stop
       offset="0.873306"
       stop-color="#62a0ea"
       id="stop8" /><stop
       offset="0.955997"
       stop-color="#c0d5ea"
       id="stop10" /><stop
       offset="1"
       stop-color="#62a0ea"
       id="stop12" /></linearGradient><path
     d="m 21.976562 12 c -5.527343 0 -9.976562 4.460938 -9.976562 10 v 86.03125 c 0 5.542969 4.449219 10 9.976562 10 h 84.042969 c 5.53125 0 9.980469 -4.457031 9.980469 -10 v -72.085938 c 0 -6.628906 -5.359375 -12 -11.972656 -12 h -46.027344 c -2.453125 0 -4.695312 -1.386718 -5.796875 -3.582031 l -1.503906 -2.992187 c -1.65625 -3.292969 -5.019531 -5.371094 -8.699219 -5.371094 z m 0 0"
     fill="#438de6"
     id="path15" /><path
     d="m 65.976562 36 c -2.746093 0 -5.226562 1.101562 -7.027343 2.890625 c -2.273438 2.253906 -5.382813 5.109375 -8.632813 5.109375 h -28.339844 c -5.527343 0 -9.976562 4.460938 -9.976562 10 v 54.03125 c 0 5.542969 4.449219 10 9.976562 10 h 84.042969 c 5.53125 0 9.980469 -4.457031 9.980469 -10 v -62.03125 c 0 -5.539062 -4.449219 -10 -9.980469 -10 z m 0 0"
     fill="url(#a)"
     id="path17" /><path
     d="m 65.976562 32 c -2.746093 0 -5.226562 1.101562 -7.027343 2.890625 c -2.273438 2.253906 -5.382813 5.109375 -8.632813 5.109375 h -28.339844 c -5.527343 0 -9.976562 4.460938 -9.976562 10 v 55.976562 c 0 5.539063 4.449219 10 9.976562 10 h 84.042969 c 5.53125 0 9.980469 -4.460937 9.980469 -10 v -63.976562 c 0 -5.539062 -4.449219 -10 -9.980469 -10 z m 0 0"
     fill="#a4caee"
     id="path19" /><g
     id="g4"
     style="fill:#438de6;fill-opacity:1"
     transform="matrix(0.12909134,0,0,0.12909134,30.563417,45.451366)"><path
       id="path2"
       style="fill:#438de6;fill-opacity:1"
       d="m 328.75566,252.06731 c -24.06586,2.59443 -46.19279,11.6632 -64.6151,25.41905 -1.04309,0.78213 -1.84529,1.52425 -2.46352,2.07959 36.86292,34.08653 50.90156,69.37824 48.86503,117.05424 l 4.73507,-0.11731 h 159.74448 v -13.20273 c 0,-68.35133 -51.96809,-124.48485 -118.53573,-131.24659 -9.968,2.18252 -19.26703,2.00607 -27.73023,0.0137 z"
       sodipodi:nodetypes="ccccccscc" /></g><g
     id="g12"
     style="fill:#438de6;fill-opacity:1"
     transform="matrix(0.12909134,0,0,0.12909134,30.563417,45.451366)"><circle
       cx="343.01001"
       cy="181.979"
       r="68.480003"
       style="fill:#438de6;fill-opacity:1"
       id="circle10" /></g><g
     id="g16"
     style="fill:#438de6;fill-opacity:1"
     transform="matrix(0.12909134,0,0,0.12909134,30.563417,45.451366)"><circle
       cx="168.99001"
       cy="181.979"
       r="68.480003"
       style="fill:#438de6;fill-opacity:1"
       id="circle14" /></g><g
     id="g4767"
     style="fill:#438de6;fill-opacity:1"
     transform="matrix(0.13467281,0,0,0.13467281,29.620205,43.643568)"><path
       id="path4765"
       style="fill:#438de6;fill-opacity:1"
       d="m 191.04136,253.32165 c -14.27789,5.44585 -29.96368,5.14045 -43.97751,0.0204 -27.64126,4.62764 -52.448637,17.62976 -71.425122,36.60704 -23.879952,23.88894 -38.661773,56.89162 -38.661773,93.35254 v 13.19734 h 174.018865 89.99954 v -13.19734 c 0,-39.58092 -17.41981,-75.08247 -44.99977,-99.27141 -17.97879,-15.77382 -40.33593,-26.56267 -64.95423,-30.70861 z"
       sodipodi:nodetypes="cccscccscc" /></g><g
     id="g4817"
     style="fill:#438de6;fill-opacity:1"
     transform="matrix(0.14352511,0,0,0.13922116,28.061458,41.840157)" /><g
     id="g4822"
     style="fill:#438de6;fill-opacity:1"
     transform="matrix(0.13554232,0,0,0.13554232,29.473267,44.277424)" /><g
     id="g4828"
     style="fill:#438de6;fill-opacity:1"
     transform="matrix(0.13735178,0,0,0.13735178,29.167486,43.94814)" /><g
     id="g4882"
     style="fill:#438de6;fill-opacity:1"
     transform="matrix(0.13507961,0,0,0.13507961,28.509381,44.361626)" /></svg>
