<?xml version="1.0" encoding="UTF-8" standalone="no"?>
<svg
   width="512"
   height="512"
   viewBox="0 0 512 512"
   fill="none"
   version="1.1"
   id="svg1566"
   sodipodi:docname="folder-galery-2-blue.svg"
   inkscape:version="1.2.2 (b0a8486541, 2022-12-01)"
   xml:space="preserve"
   xmlns:inkscape="http://www.inkscape.org/namespaces/inkscape"
   xmlns:sodipodi="http://sodipodi.sourceforge.net/DTD/sodipodi-0.dtd"
   xmlns="http://www.w3.org/2000/svg"
   xmlns:svg="http://www.w3.org/2000/svg"><sodipodi:namedview
     id="namedview1568"
     pagecolor="#505050"
     bordercolor="#eeeeee"
     borderopacity="1"
     inkscape:showpageshadow="0"
     inkscape:pageopacity="0"
     inkscape:pagecheckerboard="0"
     inkscape:deskcolor="#505050"
     showgrid="false"
     inkscape:zoom="1.7373834"
     inkscape:cx="69.069382"
     inkscape:cy="276.27753"
     inkscape:window-width="1920"
     inkscape:window-height="1011"
     inkscape:window-x="0"
     inkscape:window-y="0"
     inkscape:window-maximized="1"
     inkscape:current-layer="svg1566"
     showguides="true"><sodipodi:guide
       position="156,356"
       orientation="-1,0"
       id="guide4544"
       inkscape:locked="false"
       inkscape:label=""
       inkscape:color="rgb(0,134,229)" /><sodipodi:guide
       position="356,156"
       orientation="-1,0"
       id="guide4662"
       inkscape:locked="false"
       inkscape:label=""
       inkscape:color="rgb(0,134,229)" /><sodipodi:guide
       position="613.24933,306"
       orientation="0,1"
       id="guide4664"
       inkscape:locked="false"
       inkscape:label=""
       inkscape:color="rgb(0,134,229)" /><sodipodi:guide
       position="477.89825,106"
       orientation="0,1"
       id="guide4666"
       inkscape:locked="false"
       inkscape:label=""
       inkscape:color="rgb(0,134,229)" /></sodipodi:namedview><g
     opacity="0.2"
     filter="url(#filter0_f_201_13)"
     id="g1524"><path
       d="M88 50C88 50 48 50 48 90L47.9648 218H47.998L47.9648 466.094L424 466C464 466 464 426 464 426V218V170V122C464 122 464 82 424 82H224L192 50H88Z"
       fill="#408AE5"
       id="path1522" /></g><path
     d="M192 48H88C88 48 48 48 48 88V216H464V120C464 120 464 80 424 80H224L192 48Z"
     fill="url(#paint0_linear_201_13)"
     id="path1526" /><g
     opacity="0.1"
     filter="url(#filter1_f_201_13)"
     id="g1530"><path
       d="M256 132L224 164H88C88 164 48 164 48 204V468H424C464 468 464 428 464 428V172C464 132 424 132 424 132H256Z"
       fill="#408AE5"
       id="path1528" /></g><path
     d="M256 128L224 160H88C88 160 48 160 48 200V464H424C464 464 464 424 464 424V168C464 128 424 128 424 128H256Z"
     fill="url(#paint1_linear_201_13)"
     id="path1532" /><path
     d="M464 418C464 418 464 458 424 458L48.0019 458.094L47.998 464.094L424 464C464 464 464 424 464 424V418Z"
     fill="#99C1F1"
     id="path1534" /><path
     opacity="0.3"
     d="M256 128L224 160H88C88 160 48 160 48 200V204C48 164 88 162 88 162H224.591L256.591 130H424C429.38 130 464 132 464 172V168C464 128 424 128 424 128H256Z"
     fill="white"
     id="path1536" /><defs
     id="defs1564"><filter
       id="filter0_f_201_13"
       x="43.8042"
       y="45.8394"
       width="424.356"
       height="424.415"
       filterUnits="userSpaceOnUse"
       color-interpolation-filters="sRGB"><feFlood
         flood-opacity="0"
         result="BackgroundImageFix"
         id="feFlood1540" /><feBlend
         mode="normal"
         in="SourceGraphic"
         in2="BackgroundImageFix"
         result="shape"
         id="feBlend1542" /><feGaussianBlur
         stdDeviation="2.08032"
         result="effect1_foregroundBlur_201_13"
         id="feGaussianBlur1544" /></filter><filter
       id="filter1_f_201_13"
       x="10.4"
       y="94.4"
       width="491.2"
       height="411.2"
       filterUnits="userSpaceOnUse"
       color-interpolation-filters="sRGB"><feFlood
         flood-opacity="0"
         result="BackgroundImageFix"
         id="feFlood1547" /><feBlend
         mode="normal"
         in="SourceGraphic"
         in2="BackgroundImageFix"
         result="shape"
         id="feBlend1549" /><feGaussianBlur
         stdDeviation="18.8"
         result="effect1_foregroundBlur_201_13"
         id="feGaussianBlur1551" /></filter><linearGradient
       id="paint0_linear_201_13"
       x1="48"
       y1="132"
       x2="464"
       y2="132"
       gradientUnits="userSpaceOnUse"><stop
         stop-color="#3584E4"
         id="stop1554" /><stop
         offset="1"
         stop-color="#62A0EA"
         id="stop1556" /></linearGradient><linearGradient
       id="paint1_linear_201_13"
       x1="152.898"
       y1="173.203"
       x2="447.309"
       y2="528"
       gradientUnits="userSpaceOnUse"><stop
         stop-color="#99C1F1"
         id="stop1559" /><stop
         offset="1"
         stop-color="#C3E5E7"
         id="stop1561" /></linearGradient></defs><g
     id="g18549"
     transform="matrix(2.5495685,0,0,2.5495685,1057.2641,254.55411)"><rect
       style="fill:#64b5f6;fill-opacity:1;stroke:none;stroke-width:0.134;stroke-dasharray:none"
       id="rect16976"
       width="59.016693"
       height="59.016693"
       x="-309.65149"
       y="100.5212"
       ry="0.74751604"
       transform="rotate(19.762701)" /><rect
       style="fill:#1e88e5;fill-opacity:1;stroke:none;stroke-width:0.100164;stroke-dasharray:none"
       id="rect16978"
       width="46.274246"
       height="42.055645"
       x="-303.28027"
       y="106.89242"
       ry="0.53268433"
       transform="rotate(19.762701)" /><rect
       style="fill:#90caf9;fill-opacity:1;stroke:none;stroke-width:0.134;stroke-dasharray:none"
       id="rect15868"
       width="59.016693"
       height="59.016693"
       x="-338.06058"
       y="42.040878"
       ry="0.74751604"
       transform="rotate(9.5712167)" /><rect
       style="fill:#42a5f5;fill-opacity:1;stroke:none;stroke-width:0.100164;stroke-dasharray:none"
       id="rect15870"
       width="46.274246"
       height="42.055645"
       x="-331.68933"
       y="48.412094"
       ry="0.53268433"
       transform="rotate(9.5712167)" /><rect
       style="fill:#bbdefb;fill-opacity:1;stroke:none;stroke-width:0.134;stroke-dasharray:none"
       id="rect15312"
       width="59.016693"
       height="59.016693"
       x="-353.73212"
       y="-17.649443"
       ry="0.74751604" /><rect
       style="fill:#3886e4;fill-opacity:1;stroke:none;stroke-width:0.100164;stroke-dasharray:none"
       id="rect15728"
       width="46.274246"
       height="42.055645"
       x="-347.36087"
       y="-11.278219"
       ry="0.53268433" /><path
       id="circle18414"
       style="fill:#ffffff;fill-opacity:1;stroke:none;stroke-width:0.152956;stroke-dasharray:none"
       inkscape:transform-center-x="-0.33286964"
       inkscape:transform-center-y="-6.9542927"
       d="m -324.08029,-3.3190405 c -2.27931,-1.48e-4 -4.1271,1.847639 -4.12695,4.12695304 0.003,0.04889 0.007,0.09773 0.0117,0.146484 -1e-5,0.0046 -1e-5,0.0091 0,0.01367 l 1.01252,3.93699396 -2.61799,-3.40965 c -0.007,-0.004 -0.0146,-0.0058 -0.0215,-0.0098 -0.0335,-0.02394 -0.0674,-0.04738 -0.10156,-0.07031 -1.97391,-1.14070396 -4.49883,-0.46465196 -5.63867,1.509765 -1.14038,1.974427 -0.46341,4.499507 1.51172,5.638672 0.0439,0.02162 0.0882,0.04246 0.13281,0.0625 0.004,0.002 0.008,0.0039 0.0117,0.0059 l 4.15487,0.738883 -4.50253,0.9154135 c -0.007,0.0041 -0.0107,0.0097 -0.0176,0.01367 -0.038,0.01701 -0.0758,0.03459 -0.11328,0.05273 -1.97442,1.139837 -2.65047,3.664758 -1.50976,5.638672 1.13978,1.973246 3.66324,2.649141 5.63672,1.509765 0.0408,-0.02663 0.0812,-0.05397 0.12109,-0.08203 0.004,-0.0026 0.008,-0.0052 0.0117,-0.0078 l 2.74923,-3.163367 -1.48947,4.290321 c -0.003,0.0075 0.002,0.01552 0.002,0.02344 -0.004,0.04096 -0.007,0.08199 -0.01,0.123047 -1.5e-4,2.279314 1.84764,4.127101 4.12695,4.126953 2.27932,1.54e-4 4.12711,-1.847635 4.12696,-4.126953 -0.003,-0.04889 -0.007,-0.09773 -0.0117,-0.146484 v -0.002 -0.002 -0.002 -0.002 -0.002 -0.002 -0.002 l -1.00815,-3.930833 2.61362,3.403489 c 0.007,0.004 0.0146,0.0077 0.0215,0.01172 0.0335,0.02329 0.0674,0.04608 0.10156,0.06836 1.97392,1.140711 4.49885,0.464657 5.63868,-1.509766 1.13905,-1.973992 0.46223,-4.497607 -1.51172,-5.636718 -0.0439,-0.02227 -0.0882,-0.04376 -0.13281,-0.06445 -0.004,-0.002 -0.008,-0.0039 -0.0117,-0.0059 l -4.04578,-0.847389 4.39343,-0.8069085 c 0.007,-0.0041 0.0126,-0.0097 0.0195,-0.01367 0.0374,-0.01702 0.0745,-0.0346 0.11133,-0.05273 1.97442,-1.139833 2.65047,-3.664755 1.50977,-5.638672 -1.13978,-1.973246 -3.66324,-2.64914096 -5.63672,-1.509765 -0.0409,0.02727 -0.0812,0.05527 -0.1211,0.08398 -0.004,0.0019 -0.008,0.0039 -0.0117,0.0059 l -2.68048,2.871833 1.42071,-3.99878596 c 0.003,-0.0074 -0.002,-0.01552 -0.002,-0.02344 0.004,-0.04096 0.007,-0.08199 0.01,-0.123047 1.5e-4,-2.27931404 -1.84764,-4.12710104 -4.12695,-4.12695304 z m -0.82031,12.222656 h 0.97461 l 0.48632,0.841797 -0.48632,0.8437505 h -0.97461 l -0.48633,-0.8437505 z"
       sodipodi:nodetypes="cccccccccccccccccccccscccccccccccccccccccccccccccccscccccccccc" /><circle
       style="fill:#5899e9;fill-opacity:1;stroke:none;stroke-width:0.161696;stroke-dasharray:none"
       id="path17791"
       cx="-324.15439"
       cy="9.6049252"
       r="4.3624802" /></g></svg>
