<?xml version="1.0" encoding="UTF-8" standalone="no"?>
<svg
   height="128px"
   viewBox="0 0 128 128"
   width="128px"
   version="1.1"
   id="svg5636"
   sodipodi:docname="folder-mega.svg"
   xml:space="preserve"
   inkscape:version="1.2.2 (b0a8486541, 2022-12-01)"
   xmlns:inkscape="http://www.inkscape.org/namespaces/inkscape"
   xmlns:sodipodi="http://sodipodi.sourceforge.net/DTD/sodipodi-0.dtd"
   xmlns="http://www.w3.org/2000/svg"
   xmlns:svg="http://www.w3.org/2000/svg"><defs
     id="defs5640" /><sodipodi:namedview
     id="namedview5638"
     pagecolor="#505050"
     bordercolor="#eeeeee"
     borderopacity="1"
     inkscape:showpageshadow="0"
     inkscape:pageopacity="0"
     inkscape:pagecheckerboard="0"
     inkscape:deskcolor="#505050"
     showgrid="false"
     inkscape:zoom="4.9140625"
     inkscape:cx="42.327504"
     inkscape:cy="66.340223"
     inkscape:window-width="1920"
     inkscape:window-height="1011"
     inkscape:window-x="0"
     inkscape:window-y="0"
     inkscape:window-maximized="1"
     inkscape:current-layer="svg5636" /><linearGradient
     id="a"
     gradientTransform="matrix(0.45451 0 0 0.455522 -1210.292114 616.172607)"
     gradientUnits="userSpaceOnUse"
     x1="2689.251953"
     x2="2918.069824"
     y1="-1106.802979"
     y2="-1106.802979"><stop
       offset="0"
       stop-color="#62a0ea"
       id="stop5617" /><stop
       offset="0.0576991"
       stop-color="#afd4ff"
       id="stop5619" /><stop
       offset="0.122204"
       stop-color="#62a0ea"
       id="stop5621" /><stop
       offset="0.873306"
       stop-color="#62a0ea"
       id="stop5623" /><stop
       offset="0.955997"
       stop-color="#c0d5ea"
       id="stop5625" /><stop
       offset="1"
       stop-color="#62a0ea"
       id="stop5627" /></linearGradient><path
     d="m 21.976562 12 c -5.527343 0 -9.976562 4.460938 -9.976562 10 v 86.03125 c 0 5.542969 4.449219 10 9.976562 10 h 84.042969 c 5.53125 0 9.980469 -4.457031 9.980469 -10 v -72.085938 c 0 -6.628906 -5.359375 -12 -11.972656 -12 h -46.027344 c -2.453125 0 -4.695312 -1.386718 -5.796875 -3.582031 l -1.503906 -2.992187 c -1.65625 -3.292969 -5.019531 -5.371094 -8.699219 -5.371094 z m 0 0"
     fill="#438de6"
     id="path5630" /><path
     d="m 65.976562 36 c -2.746093 0 -5.226562 1.101562 -7.027343 2.890625 c -2.273438 2.253906 -5.382813 5.109375 -8.632813 5.109375 h -28.339844 c -5.527343 0 -9.976562 4.460938 -9.976562 10 v 54.03125 c 0 5.542969 4.449219 10 9.976562 10 h 84.042969 c 5.53125 0 9.980469 -4.457031 9.980469 -10 v -62.03125 c 0 -5.539062 -4.449219 -10 -9.980469 -10 z m 0 0"
     fill="url(#a)"
     id="path5632" /><path
     d="m 65.976562 32 c -2.746093 0 -5.226562 1.101562 -7.027343 2.890625 c -2.273438 2.253906 -5.382813 5.109375 -8.632813 5.109375 h -28.339844 c -5.527343 0 -9.976562 4.460938 -9.976562 10 v 55.976562 c 0 5.539063 4.449219 10 9.976562 10 h 84.042969 c 5.53125 0 9.980469 -4.460937 9.980469 -10 v -63.976562 c 0 -5.539062 -4.449219 -10 -9.980469 -10 z m 0 0"
     fill="#a4caee"
     id="path5634" /><path
     id="circle5642-9"
     style="color:#000000;fill:#438de6;fill-opacity:1;-inkscape-stroke:none"
     d="m 64,53.878906 c -12.20079,0 -22.109375,9.908585 -22.109375,22.109375 0,12.20079 9.908585,22.109375 22.109375,22.109375 12.200788,0 22.109375,-9.908585 22.109375,-22.109375 0,-12.20079 -9.908587,-22.109375 -22.109375,-22.109375 z m 0,1.658203 c 11.3042,0 20.449218,9.146971 20.449218,20.451172 0,11.304201 -9.145018,20.449215 -20.449218,20.449215 -11.304202,0 -20.451172,-9.145014 -20.451172,-20.449215 0,-11.304201 9.14697,-20.451172 20.451172,-20.451172 z M 51.425781,67.36914 v 17.296875 h 5.195312 V 74.644531 l 6.177735,6.183594 h 2.40039 l 6.179688,-6.183594 v 10.021484 h 5.076172 V 67.36914 H 71.613281 L 64,75.042969 56.443359,67.36914 Z" /></svg>
