<?xml version="1.0" encoding="UTF-8" standalone="no"?>
<svg
   width="512"
   height="512"
   viewBox="0 0 512 512"
   fill="none"
   version="1.1"
   id="svg1566"
   sodipodi:docname="folder-system.svg"
   inkscape:version="1.2.2 (b0a8486541, 2022-12-01)"
   xml:space="preserve"
   xmlns:inkscape="http://www.inkscape.org/namespaces/inkscape"
   xmlns:sodipodi="http://sodipodi.sourceforge.net/DTD/sodipodi-0.dtd"
   xmlns="http://www.w3.org/2000/svg"
   xmlns:svg="http://www.w3.org/2000/svg"><sodipodi:namedview
     id="namedview1568"
     pagecolor="#505050"
     bordercolor="#eeeeee"
     borderopacity="1"
     inkscape:showpageshadow="0"
     inkscape:pageopacity="0"
     inkscape:pagecheckerboard="0"
     inkscape:deskcolor="#505050"
     showgrid="false"
     inkscape:zoom="0.86869171"
     inkscape:cx="118.56911"
     inkscape:cy="229.08012"
     inkscape:window-width="1920"
     inkscape:window-height="1011"
     inkscape:window-x="0"
     inkscape:window-y="0"
     inkscape:window-maximized="1"
     inkscape:current-layer="svg1566"
     showguides="true"><sodipodi:guide
       position="156,356"
       orientation="-1,0"
       id="guide4544"
       inkscape:locked="false"
       inkscape:label=""
       inkscape:color="rgb(0,134,229)" /><sodipodi:guide
       position="356,156"
       orientation="-1,0"
       id="guide4662"
       inkscape:locked="false"
       inkscape:label=""
       inkscape:color="rgb(0,134,229)" /><sodipodi:guide
       position="214.07949,306"
       orientation="0,1"
       id="guide4664"
       inkscape:locked="false"
       inkscape:label=""
       inkscape:color="rgb(0,134,229)" /><sodipodi:guide
       position="477.89825,106"
       orientation="0,1"
       id="guide4666"
       inkscape:locked="false"
       inkscape:label=""
       inkscape:color="rgb(0,134,229)" /></sodipodi:namedview><g
     opacity="0.2"
     filter="url(#filter0_f_201_13)"
     id="g1524"><path
       d="M88 50C88 50 48 50 48 90L47.9648 218H47.998L47.9648 466.094L424 466C464 466 464 426 464 426V218V170V122C464 122 464 82 424 82H224L192 50H88Z"
       fill="#408AE5"
       id="path1522" /></g><path
     d="M192 48H88C88 48 48 48 48 88V216H464V120C464 120 464 80 424 80H224L192 48Z"
     fill="url(#paint0_linear_201_13)"
     id="path1526" /><g
     opacity="0.1"
     filter="url(#filter1_f_201_13)"
     id="g1530"><path
       d="M256 132L224 164H88C88 164 48 164 48 204V468H424C464 468 464 428 464 428V172C464 132 424 132 424 132H256Z"
       fill="#408AE5"
       id="path1528" /></g><path
     d="M256 128L224 160H88C88 160 48 160 48 200V464H424C464 464 464 424 464 424V168C464 128 424 128 424 128H256Z"
     fill="url(#paint1_linear_201_13)"
     id="path1532" /><path
     d="M464 418C464 418 464 458 424 458L48.0019 458.094L47.998 464.094L424 464C464 464 464 424 464 424V418Z"
     fill="#99C1F1"
     id="path1534" /><path
     opacity="0.3"
     d="M256 128L224 160H88C88 160 48 160 48 200V204C48 164 88 162 88 162H224.591L256.591 130H424C429.38 130 464 132 464 172V168C464 128 424 128 424 128H256Z"
     fill="white"
     id="path1536" /><defs
     id="defs1564"><linearGradient
       id="linearGradient3039"
       x1="48"
       y1="132"
       x2="464"
       y2="132"
       gradientUnits="userSpaceOnUse"><stop
         stop-color="#3584E4"
         id="stop3035" /><stop
         offset="1"
         stop-color="#62A0EA"
         id="stop3037" /></linearGradient><linearGradient
       id="linearGradient3033"
       x1="152.898"
       y1="173.203"
       x2="447.309"
       y2="528"
       gradientUnits="userSpaceOnUse"><stop
         stop-color="#99C1F1"
         id="stop3029" /><stop
         offset="1"
         stop-color="#C3E5E7"
         id="stop3031"
         style="stop-color:#c83737;stop-opacity:1" /></linearGradient><filter
       id="filter0_f_201_13"
       x="43.8042"
       y="45.8394"
       width="424.356"
       height="424.415"
       filterUnits="userSpaceOnUse"
       color-interpolation-filters="sRGB"><feFlood
         flood-opacity="0"
         result="BackgroundImageFix"
         id="feFlood1540" /><feBlend
         mode="normal"
         in="SourceGraphic"
         in2="BackgroundImageFix"
         result="shape"
         id="feBlend1542" /><feGaussianBlur
         stdDeviation="2.08032"
         result="effect1_foregroundBlur_201_13"
         id="feGaussianBlur1544" /></filter><filter
       id="filter1_f_201_13"
       x="10.4"
       y="94.4"
       width="491.2"
       height="411.2"
       filterUnits="userSpaceOnUse"
       color-interpolation-filters="sRGB"><feFlood
         flood-opacity="0"
         result="BackgroundImageFix"
         id="feFlood1547" /><feBlend
         mode="normal"
         in="SourceGraphic"
         in2="BackgroundImageFix"
         result="shape"
         id="feBlend1549" /><feGaussianBlur
         stdDeviation="18.8"
         result="effect1_foregroundBlur_201_13"
         id="feGaussianBlur1551" /></filter><linearGradient
       id="paint0_linear_201_13"
       x1="48"
       y1="132"
       x2="464"
       y2="132"
       gradientUnits="userSpaceOnUse"><stop
         stop-color="#3584E4"
         id="stop1554" /><stop
         offset="1"
         stop-color="#62A0EA"
         id="stop1556" /></linearGradient><linearGradient
       id="paint1_linear_201_13"
       x1="152.898"
       y1="173.203"
       x2="447.309"
       y2="528"
       gradientUnits="userSpaceOnUse"><stop
         stop-color="#99C1F1"
         id="stop1559" /><stop
         offset="1"
         stop-color="#C3E5E7"
         id="stop1561" /></linearGradient></defs><path
     d="m 316.58566,321.12354 v -28.68586 l 15.92539,-15.9254 a 83.324199,83.324199 0 0 0 -12.70291,-21.95316 l -21.72298,5.82637 -24.84478,-14.34293 -5.82636,-21.75176 a 84.230523,84.230523 0 0 0 -25.36266,0 l -5.82637,21.75176 -24.84477,14.34293 -21.72298,-5.82637 c -5.32286,6.6176 -9.62429,14.02643 -12.7173,21.95316 l 15.9254,15.9254 v 28.68586 l -15.9254,15.92539 c 3.09301,7.92673 7.38005,15.32118 12.7173,21.95316 l 21.72298,-5.82636 24.84477,14.34292 5.82637,21.75177 a 84.230523,84.230523 0 0 0 25.36266,0 l 5.82636,-21.75177 24.84478,-14.34292 21.72298,5.82636 c 5.32285,-6.61759 9.62429,-14.02643 12.70291,-21.95316 z m 8.93376,57.28539 -25.00301,-6.70392 -12.45836,7.19304 -6.70391,25.03178 c -8.48779,2.30178 -17.40717,3.55336 -26.61426,3.55336 -9.22147,0 -18.15524,-1.2372 -26.62864,-3.55336 l -6.7183,-25.03178 -12.45835,-7.19304 -24.98863,6.70392 a 100.60189,100.60189 0 0 1 -26.65741,-46.1218 l 18.31349,-18.31348 v -14.38608 l -18.31349,-18.31349 a 100.60189,100.60189 0 0 1 26.65741,-46.13617 l 24.98863,6.70392 12.45835,-7.19304 6.7183,-25.03179 a 100.81768,100.81768 0 0 1 26.61426,-3.53898 c 9.22147,0 18.15524,1.23721 26.62864,3.55337 l 6.70391,25.03178 12.45836,7.19305 25.00301,-6.70392 c 12.65974,12.51589 22.01071,28.35497 26.65741,46.12178 l -18.32787,18.31349 v 14.38608 l 18.32787,18.31348 a 100.60189,100.60189 0 0 1 -26.65741,46.1218 z m -70.77954,-45.73337 a 25.894951,25.894951 0 1 0 0,-51.7899 25.894951,25.894951 0 0 0 0,51.7899 z m 0,17.2633 a 43.158252,43.158252 0 1 1 0,-86.3165 43.158252,43.158252 0 0 1 0,86.3165 z"
     fill="#000000"
     id="path2755"
     style="stroke-width:0.224782;fill-opacity:1;fill:#782121" /></svg>
