<?xml version="1.0" encoding="UTF-8" standalone="no"?>
<svg
   height="128px"
   viewBox="0 0 128 128"
   width="128px"
   version="1.1"
   id="svg21"
   sodipodi:docname="folder_book.svg"
   xml:space="preserve"
   inkscape:version="1.2.2 (b0a8486541, 2022-12-01)"
   xmlns:inkscape="http://www.inkscape.org/namespaces/inkscape"
   xmlns:sodipodi="http://sodipodi.sourceforge.net/DTD/sodipodi-0.dtd"
   xmlns="http://www.w3.org/2000/svg"
   xmlns:svg="http://www.w3.org/2000/svg"><defs
     id="defs25" /><sodipodi:namedview
     id="namedview23"
     pagecolor="#505050"
     bordercolor="#eeeeee"
     borderopacity="1"
     inkscape:showpageshadow="0"
     inkscape:pageopacity="0"
     inkscape:pagecheckerboard="0"
     inkscape:deskcolor="#505050"
     showgrid="false"
     inkscape:zoom="6.9495338"
     inkscape:cx="33.023798"
     inkscape:cy="71.659483"
     inkscape:window-width="1920"
     inkscape:window-height="1011"
     inkscape:window-x="0"
     inkscape:window-y="0"
     inkscape:window-maximized="1"
     inkscape:current-layer="svg21" /><linearGradient
     id="a"
     gradientTransform="matrix(0.45451 0 0 0.455522 -1210.292114 616.172607)"
     gradientUnits="userSpaceOnUse"
     x1="2689.251953"
     x2="2918.069824"
     y1="-1106.802979"
     y2="-1106.802979"><stop
       offset="0"
       stop-color="#62a0ea"
       id="stop2" /><stop
       offset="0.0576991"
       stop-color="#afd4ff"
       id="stop4" /><stop
       offset="0.122204"
       stop-color="#62a0ea"
       id="stop6" /><stop
       offset="0.873306"
       stop-color="#62a0ea"
       id="stop8" /><stop
       offset="0.955997"
       stop-color="#c0d5ea"
       id="stop10" /><stop
       offset="1"
       stop-color="#62a0ea"
       id="stop12" /></linearGradient><path
     d="m 21.976562 12 c -5.527343 0 -9.976562 4.460938 -9.976562 10 v 86.03125 c 0 5.542969 4.449219 10 9.976562 10 h 84.042969 c 5.53125 0 9.980469 -4.457031 9.980469 -10 v -72.085938 c 0 -6.628906 -5.359375 -12 -11.972656 -12 h -46.027344 c -2.453125 0 -4.695312 -1.386718 -5.796875 -3.582031 l -1.503906 -2.992187 c -1.65625 -3.292969 -5.019531 -5.371094 -8.699219 -5.371094 z m 0 0"
     fill="#438de6"
     id="path15" /><path
     d="m 65.976562 36 c -2.746093 0 -5.226562 1.101562 -7.027343 2.890625 c -2.273438 2.253906 -5.382813 5.109375 -8.632813 5.109375 h -28.339844 c -5.527343 0 -9.976562 4.460938 -9.976562 10 v 54.03125 c 0 5.542969 4.449219 10 9.976562 10 h 84.042969 c 5.53125 0 9.980469 -4.457031 9.980469 -10 v -62.03125 c 0 -5.539062 -4.449219 -10 -9.980469 -10 z m 0 0"
     fill="url(#a)"
     id="path17" /><path
     d="m 65.976562 32 c -2.746093 0 -5.226562 1.101562 -7.027343 2.890625 c -2.273438 2.253906 -5.382813 5.109375 -8.632813 5.109375 h -28.339844 c -5.527343 0 -9.976562 4.460938 -9.976562 10 v 55.976562 c 0 5.539063 4.449219 10 9.976562 10 h 84.042969 c 5.53125 0 9.980469 -4.460937 9.980469 -10 v -63.976562 c 0 -5.539062 -4.449219 -10 -9.980469 -10 z m 0 0"
     fill="#a4caee"
     id="path19" /><g
     id="g2676"
     transform="translate(-0.9772209,2.710794)"><rect
       style="fill:#1565c0;fill-opacity:1;stroke-width:1.1429"
       id="rect253"
       width="11.888678"
       height="43.468266"
       x="74.977577"
       y="53.81036" /><rect
       style="fill:#2e7d32;fill-opacity:1;stroke-width:1.1429"
       id="rect249"
       width="13.641182"
       height="43.987926"
       x="43.118172"
       y="53.264351" /><rect
       style="fill:#ffc107;fill-opacity:1;stroke-width:1.1429"
       id="rect251"
       width="12.419245"
       height="37.858257"
       x="59.850082"
       y="59.455803" /><rect
       style="fill:#7cb342;fill-opacity:1;stroke-width:1.1429"
       id="rect255"
       width="3.5976746"
       height="17.000828"
       x="48.139923"
       y="66.757896" /><rect
       style="fill:#64b5f6;fill-opacity:1;stroke-width:1.01153"
       id="rect255-3"
       width="2.8181784"
       height="17.000828"
       x="79.512825"
       y="67.044075" /><g
       id="g1661"
       transform="matrix(1.1428976,0,0,1.1428976,87.756586,1.5945675)"><rect
         style="fill:#7cb342;fill-opacity:1;stroke-width:0.922528"
         id="rect1302"
         width="11.922894"
         height="2.2054424"
         x="-39.023052"
         y="50.046104" /><rect
         style="fill:#7cb342;fill-opacity:1;stroke-width:0.922528"
         id="rect1304"
         width="11.922894"
         height="2.2054424"
         x="-39.083466"
         y="76.655449" /></g><g
       id="g1657"
       transform="matrix(1.1428976,0,0,1.1428976,87.756586,1.3033924)"><rect
         style="fill:#64b5f6;fill-opacity:1;stroke-width:0.219655"
         id="rect1306"
         width="10.402225"
         height="1.8350559"
         x="-11.18124"
         y="51.210651" /><rect
         style="fill:#64b5f6;fill-opacity:1;stroke-width:0.219655"
         id="rect1653"
         width="10.402225"
         height="1.8350559"
         x="-11.18124"
         y="76.87162" /></g><rect
       style="fill:#ff8f00;fill-opacity:1;stroke-width:0.254635"
       id="rect1663"
       width="12.419245"
       height="1.8792403"
       x="59.850082"
       y="64.234528" /><rect
       style="fill:#ff8f00;fill-opacity:1;stroke-width:0.254635"
       id="rect1941"
       width="12.419245"
       height="1.8792403"
       x="59.850082"
       y="90.208649" /><rect
       style="fill:#ff8f00;fill-opacity:1;stroke-width:0.29261"
       id="rect1970"
       width="2.2194748"
       height="13.885689"
       x="64.949966"
       y="71.442085" /></g></svg>
