<?xml version="1.0" encoding="UTF-8" standalone="no"?>
<svg
   height="128px"
   viewBox="0 0 128 128"
   width="128px"
   version="1.1"
   id="svg23"
   sodipodi:docname="folder-server-network-s.svg"
   xml:space="preserve"
   inkscape:version="1.2.2 (b0a8486541, 2022-12-01)"
   xmlns:inkscape="http://www.inkscape.org/namespaces/inkscape"
   xmlns:sodipodi="http://sodipodi.sourceforge.net/DTD/sodipodi-0.dtd"
   xmlns="http://www.w3.org/2000/svg"
   xmlns:svg="http://www.w3.org/2000/svg"><defs
     id="defs27" /><sodipodi:namedview
     id="namedview25"
     pagecolor="#505050"
     bordercolor="#eeeeee"
     borderopacity="1"
     inkscape:showpageshadow="0"
     inkscape:pageopacity="0"
     inkscape:pagecheckerboard="0"
     inkscape:deskcolor="#505050"
     showgrid="false"
     inkscape:zoom="4.9140625"
     inkscape:cx="106.83625"
     inkscape:cy="77.939587"
     inkscape:window-width="1920"
     inkscape:window-height="1011"
     inkscape:window-x="0"
     inkscape:window-y="0"
     inkscape:window-maximized="1"
     inkscape:current-layer="svg23" /><linearGradient
     id="a"
     gradientTransform="matrix(0.45451 0 0 0.455522 -1210.292114 616.172607)"
     gradientUnits="userSpaceOnUse"
     x1="2689.251953"
     x2="2918.069824"
     y1="-1106.802979"
     y2="-1106.802979"><stop
       offset="0"
       stop-color="#62a0ea"
       id="stop2" /><stop
       offset="0.0576991"
       stop-color="#afd4ff"
       id="stop4" /><stop
       offset="0.122204"
       stop-color="#62a0ea"
       id="stop6" /><stop
       offset="0.873306"
       stop-color="#62a0ea"
       id="stop8" /><stop
       offset="0.955997"
       stop-color="#c0d5ea"
       id="stop10" /><stop
       offset="1"
       stop-color="#62a0ea"
       id="stop12" /></linearGradient><path
     d="m 21.976562 12 c -5.527343 0 -9.976562 4.460938 -9.976562 10 v 86.03125 c 0 5.542969 4.449219 10 9.976562 10 h 84.042969 c 5.53125 0 9.980469 -4.457031 9.980469 -10 v -72.085938 c 0 -6.628906 -5.359375 -12 -11.972656 -12 h -46.027344 c -2.453125 0 -4.695312 -1.386718 -5.796875 -3.582031 l -1.503906 -2.992187 c -1.65625 -3.292969 -5.019531 -5.371094 -8.699219 -5.371094 z m 0 0"
     fill="#438de6"
     id="path15" /><path
     d="m 65.976562 36 c -2.746093 0 -5.226562 1.101562 -7.027343 2.890625 c -2.273438 2.253906 -5.382813 5.109375 -8.632813 5.109375 h -28.339844 c -5.527343 0 -9.976562 4.460938 -9.976562 10 v 54.03125 c 0 5.542969 4.449219 10 9.976562 10 h 84.042969 c 5.53125 0 9.980469 -4.457031 9.980469 -10 v -62.03125 c 0 -5.539062 -4.449219 -10 -9.980469 -10 z m 0 0"
     fill="url(#a)"
     id="path17" /><path
     d="m 65.976562 32 c -2.746093 0 -5.226562 1.101562 -7.027343 2.890625 c -2.273438 2.253906 -5.382813 5.109375 -8.632813 5.109375 h -28.339844 c -5.527343 0 -9.976562 4.460938 -9.976562 10 v 55.976562 c 0 5.539063 4.449219 10 9.976562 10 h 84.042969 c 5.53125 0 9.980469 -4.460937 9.980469 -10 v -63.976562 c 0 -5.539062 -4.449219 -10 -9.980469 -10 z m 0 0"
     fill="#a4caee"
     id="path19" /><path
     id="path4945-3"
     style="color:#000000;fill:#438de6;stroke-width:2.09809;stroke-linecap:round;-inkscape-stroke:none"
     d="m 51.335966,55.703189 c -4.630074,0 -8.448243,3.818172 -8.448243,8.448251 v 15.879875 c 0,4.630075 3.818169,8.448244 8.448243,8.448244 H 61.85297 v 5.673924 l -0.528145,0.302689 c -0.768341,0.440054 -1.414345,1.066488 -1.878778,1.820335 l -0.306869,0.498914 H 48.150399 c -1.18145,4.81e-4 -2.114976,0.935311 -2.114677,2.116761 4.81e-4,1.180868 0.933804,2.114198 2.114677,2.114678 h 10.905273 l 0.29852,0.54484 c 0.929968,1.69102 2.700293,2.73976 4.63015,2.74511 1.928243,-0.006 3.696676,-1.05531 4.62597,-2.74511 l 0.298521,-0.54484 h 10.938684 c 1.181439,3e-4 2.116269,-0.93324 2.11675,-2.114678 3e-4,-1.182027 -0.934745,-2.117061 -2.11675,-2.116761 H 68.835768 L 68.5289,96.274412 C 68.063676,95.518 67.416828,94.890721 66.645943,94.449909 l -0.530229,-0.300605 v -5.669745 h 10.548309 c 4.630074,0 8.448254,-3.818169 8.448254,-8.448244 v -9.548384 c 0,-4.63008 -3.817902,-8.446164 -8.448254,-8.446164 h -8.62152 l -5.711494,-5.71358 c -0.398711,-0.398714 -0.93468,-0.619998 -1.496761,-0.619998 z m 0,4.23352 h 8.62152 l 5.262676,5.264761 H 47.11915 v -1.05003 c 0,-2.325126 1.892513,-4.214731 4.216816,-4.214731 z M 47.11915,66.2682 h 29.544873 c 2.324304,0 4.216816,1.889605 4.216816,4.214731 v 9.548384 c 0,2.325117 -1.891689,4.216817 -4.216816,4.216817 H 51.335966 c -2.325126,0 -4.216816,-1.8917 -4.216816,-4.216817 V 67.31823 Z m 16.863108,28.492756 c 2.326014,2.78e-4 4.23458,1.909582 4.233511,4.235606 -2.78e-4,2.324968 -1.908555,4.233258 -4.233511,4.233508 -2.326025,0.001 -4.235339,-1.90748 -4.235617,-4.233508 -0.0013,-2.327072 1.908534,-4.236675 4.235617,-4.235606 z" /></svg>
