<?xml version="1.0" encoding="UTF-8" standalone="no"?>
<svg
   height="128px"
   viewBox="0 0 128 128"
   width="128px"
   version="1.1"
   id="svg23"
   sodipodi:docname="folder-oneDrive.svg"
   xml:space="preserve"
   inkscape:version="1.2.2 (b0a8486541, 2022-12-01)"
   xmlns:inkscape="http://www.inkscape.org/namespaces/inkscape"
   xmlns:sodipodi="http://sodipodi.sourceforge.net/DTD/sodipodi-0.dtd"
   xmlns="http://www.w3.org/2000/svg"
   xmlns:svg="http://www.w3.org/2000/svg"><defs
     id="defs27" /><sodipodi:namedview
     id="namedview25"
     pagecolor="#505050"
     bordercolor="#eeeeee"
     borderopacity="1"
     inkscape:showpageshadow="0"
     inkscape:pageopacity="0"
     inkscape:pagecheckerboard="0"
     inkscape:deskcolor="#505050"
     showgrid="false"
     inkscape:zoom="3.4747669"
     inkscape:cx="79.141999"
     inkscape:cy="53.240981"
     inkscape:window-width="1920"
     inkscape:window-height="1011"
     inkscape:window-x="0"
     inkscape:window-y="0"
     inkscape:window-maximized="1"
     inkscape:current-layer="svg23" /><linearGradient
     id="a"
     gradientTransform="matrix(0.45451 0 0 0.455522 -1210.292114 616.172607)"
     gradientUnits="userSpaceOnUse"
     x1="2689.251953"
     x2="2918.069824"
     y1="-1106.802979"
     y2="-1106.802979"><stop
       offset="0"
       stop-color="#62a0ea"
       id="stop2" /><stop
       offset="0.0576991"
       stop-color="#afd4ff"
       id="stop4" /><stop
       offset="0.122204"
       stop-color="#62a0ea"
       id="stop6" /><stop
       offset="0.873306"
       stop-color="#62a0ea"
       id="stop8" /><stop
       offset="0.955997"
       stop-color="#c0d5ea"
       id="stop10" /><stop
       offset="1"
       stop-color="#62a0ea"
       id="stop12" /></linearGradient><path
     d="m 21.976562 12 c -5.527343 0 -9.976562 4.460938 -9.976562 10 v 86.03125 c 0 5.542969 4.449219 10 9.976562 10 h 84.042969 c 5.53125 0 9.980469 -4.457031 9.980469 -10 v -72.085938 c 0 -6.628906 -5.359375 -12 -11.972656 -12 h -46.027344 c -2.453125 0 -4.695312 -1.386718 -5.796875 -3.582031 l -1.503906 -2.992187 c -1.65625 -3.292969 -5.019531 -5.371094 -8.699219 -5.371094 z m 0 0"
     fill="#438de6"
     id="path15" /><path
     d="m 65.976562 36 c -2.746093 0 -5.226562 1.101562 -7.027343 2.890625 c -2.273438 2.253906 -5.382813 5.109375 -8.632813 5.109375 h -28.339844 c -5.527343 0 -9.976562 4.460938 -9.976562 10 v 54.03125 c 0 5.542969 4.449219 10 9.976562 10 h 84.042969 c 5.53125 0 9.980469 -4.457031 9.980469 -10 v -62.03125 c 0 -5.539062 -4.449219 -10 -9.980469 -10 z m 0 0"
     fill="url(#a)"
     id="path17" /><path
     d="m 65.976562 32 c -2.746093 0 -5.226562 1.101562 -7.027343 2.890625 c -2.273438 2.253906 -5.382813 5.109375 -8.632813 5.109375 h -28.339844 c -5.527343 0 -9.976562 4.460938 -9.976562 10 v 55.976562 c 0 5.539063 4.449219 10 9.976562 10 h 84.042969 c 5.53125 0 9.980469 -4.460937 9.980469 -10 v -63.976562 c 0 -5.539062 -4.449219 -10 -9.980469 -10 z m 0 0"
     fill="#a4caee"
     id="path19" /><style
     type="text/css"
     id="style1187">.st0{fill:#0364B8;} .st1{fill:#0078D4;} .st2{fill:#1490DF;} .st3{fill:#28A8EA;}</style><g
     id="STYLE_COLOR_1_"
     transform="matrix(0.12916412,0,0,0.12916412,31.237447,45.258291)"><path
       class="st0"
       d="M 309.32,313.35 415,212.28 C 393.05,126.68 305.86,75.09 220.26,97.04 c -38.55,9.89 -72.03,33.78 -93.91,67.02 1.65,-0.04 182.97,149.29 182.97,149.29 z"
       id="path1189" /><path
       class="st1"
       d="m 195.24,183.09 v 0.02 C 175.05,170.6 151.76,163.99 128,164.02 c -0.55,0 -1.09,0.03 -1.64,0.04 C 55.7,164.94 -0.86,222.93 0.01,293.58 0.33,319.21 8.34,344.15 23,365.18 l 158.33,-19.83 121.39,-97.88 z"
       id="path1191" /><path
       class="st2"
       d="m 415,212.28 c -2.32,-0.16 -4.66,-0.26 -7.02,-0.26 -14.18,-0.01 -28.21,2.88 -41.22,8.51 v -0.01 l -64.04,26.95 70.6,87.21 126.22,30.68 c 27.24,-50.57 8.33,-113.64 -42.24,-140.88 -13.07,-7.03 -27.49,-11.19 -42.3,-12.2 z"
       id="path1193" /><path
       class="st3"
       d="m 23,365.18 c 23.91,34.37 63.13,54.86 105,54.83 h 279.99 c 38.25,0.01 73.41,-20.98 91.56,-54.65 L 302.72,247.46 Z"
       id="path1195" /></g></svg>
