<?xml version="1.0" encoding="UTF-8" standalone="no"?>
<svg
   height="128px"
   viewBox="0 0 128 128"
   width="128px"
   version="1.1"
   id="svg23"
   sodipodi:docname="folder-hdd-share.svg"
   xml:space="preserve"
   inkscape:version="1.2.2 (b0a8486541, 2022-12-01)"
   xmlns:inkscape="http://www.inkscape.org/namespaces/inkscape"
   xmlns:sodipodi="http://sodipodi.sourceforge.net/DTD/sodipodi-0.dtd"
   xmlns="http://www.w3.org/2000/svg"
   xmlns:svg="http://www.w3.org/2000/svg"><defs
     id="defs27" /><sodipodi:namedview
     id="namedview25"
     pagecolor="#505050"
     bordercolor="#eeeeee"
     borderopacity="1"
     inkscape:showpageshadow="0"
     inkscape:pageopacity="0"
     inkscape:pagecheckerboard="0"
     inkscape:deskcolor="#505050"
     showgrid="false"
     inkscape:zoom="4.9140625"
     inkscape:cx="64.305246"
     inkscape:cy="62.880763"
     inkscape:window-width="1920"
     inkscape:window-height="1011"
     inkscape:window-x="0"
     inkscape:window-y="0"
     inkscape:window-maximized="1"
     inkscape:current-layer="svg23" /><linearGradient
     id="a"
     gradientTransform="matrix(0.45451 0 0 0.455522 -1210.292114 616.172607)"
     gradientUnits="userSpaceOnUse"
     x1="2689.251953"
     x2="2918.069824"
     y1="-1106.802979"
     y2="-1106.802979"><stop
       offset="0"
       stop-color="#62a0ea"
       id="stop2" /><stop
       offset="0.0576991"
       stop-color="#afd4ff"
       id="stop4" /><stop
       offset="0.122204"
       stop-color="#62a0ea"
       id="stop6" /><stop
       offset="0.873306"
       stop-color="#62a0ea"
       id="stop8" /><stop
       offset="0.955997"
       stop-color="#c0d5ea"
       id="stop10" /><stop
       offset="1"
       stop-color="#62a0ea"
       id="stop12" /></linearGradient><path
     d="m 21.976562 12 c -5.527343 0 -9.976562 4.460938 -9.976562 10 v 86.03125 c 0 5.542969 4.449219 10 9.976562 10 h 84.042969 c 5.53125 0 9.980469 -4.457031 9.980469 -10 v -72.085938 c 0 -6.628906 -5.359375 -12 -11.972656 -12 h -46.027344 c -2.453125 0 -4.695312 -1.386718 -5.796875 -3.582031 l -1.503906 -2.992187 c -1.65625 -3.292969 -5.019531 -5.371094 -8.699219 -5.371094 z m 0 0"
     fill="#438de6"
     id="path15" /><path
     d="m 65.976562 36 c -2.746093 0 -5.226562 1.101562 -7.027343 2.890625 c -2.273438 2.253906 -5.382813 5.109375 -8.632813 5.109375 h -28.339844 c -5.527343 0 -9.976562 4.460938 -9.976562 10 v 54.03125 c 0 5.542969 4.449219 10 9.976562 10 h 84.042969 c 5.53125 0 9.980469 -4.457031 9.980469 -10 v -62.03125 c 0 -5.539062 -4.449219 -10 -9.980469 -10 z m 0 0"
     fill="url(#a)"
     id="path17" /><path
     d="m 65.976562 32 c -2.746093 0 -5.226562 1.101562 -7.027343 2.890625 c -2.273438 2.253906 -5.382813 5.109375 -8.632813 5.109375 h -28.339844 c -5.527343 0 -9.976562 4.460938 -9.976562 10 v 55.976562 c 0 5.539063 4.449219 10 9.976562 10 h 84.042969 c 5.53125 0 9.980469 -4.460937 9.980469 -10 v -63.976562 c 0 -5.539062 -4.449219 -10 -9.980469 -10 z m 0 0"
     fill="#a4caee"
     id="path19" /><g
     style="fill:#438de6;fill-opacity:1"
     id="g196"
     transform="matrix(2.0022322,0,0,2.0022322,39.973214,48.735665)"><path
       d="M 22,14.86 V 14.81 A 2.61,2.61 0 0 0 21.9,14.24 L 20.26,4.51 A 3,3 0 0 0 17.26,2 H 6.69 A 3,3 0 0 0 3.74,4.51 l -1.62,9.71 a 2.61,2.61 0 0 0 -0.1,0.57 v 0.05 C 2,14.91 2,15 2,15 v 4 a 3,3 0 0 0 3,3 h 14 a 3,3 0 0 0 3,-3 v -4 c 0,0 0,-0.09 0,-0.14 z M 5.71,4.83 A 1,1 0 0 1 6.71,4 h 10.6 a 1,1 0 0 1 1,0.83 l 1.2,7.22 A 2.63,2.63 0 0 0 19,12 H 5 A 2.63,2.63 0 0 0 4.51,12.05 Z M 20,19 a 1,1 0 0 1 -1,1 H 5 A 1,1 0 0 1 4,19 V 15.08 L 4.08,14.62 A 1,1 0 0 1 5,14 h 14 a 1,1 0 0 1 0.92,0.62 L 20,15.08 Z m -3,-3 a 1,1 0 1 0 1,1 1,1 0 0 0 -1,-1 z"
       id="path187"
       style="fill:#438de6;fill-opacity:1" /></g><path
     d="m 67.170163,57.965814 c -1.355165,0 -2.45464,1.096279 -2.45464,2.45464 0,0.09908 0.0096,0.201358 0.02238,0.300438 l -4.046322,2.023161 c -0.457049,-0.441069 -1.067513,-0.687171 -1.703547,-0.687171 -1.355165,0 -2.45464,1.096278 -2.45464,2.45464 0,1.355163 1.099475,2.454639 2.45464,2.454639 0.632837,-0.0034 1.243302,-0.2525 1.697155,-0.690365 l 4.052714,2.023155 c -0.01279,0.09908 -0.02238,0.201358 -0.02238,0.303633 0,1.355168 1.099475,2.454644 2.454641,2.454644 1.355164,0 2.454639,-1.099476 2.454639,-2.454644 0,-1.358353 -1.099475,-2.454635 -2.454639,-2.454635 -0.632837,0 -1.243301,0.249298 -1.697154,0.690366 l -4.052714,-2.026354 c 0.01278,-0.09908 0.02238,-0.201359 0.02238,-0.300439 0,-0.102276 -0.0063,-0.204554 -0.01918,-0.303633 l 4.04632,-2.023162 c 0.457049,0.437872 1.067514,0.687173 1.70035,0.690369 1.355168,0 2.454643,-1.099475 2.454643,-2.454642 0,-1.358361 -1.099475,-2.45464 -2.454643,-2.45464 z m 0,0"
     fill="#438de6"
     id="path5518"
     style="stroke-width:0.409107" /></svg>
