<?xml version="1.0" encoding="UTF-8" standalone="no"?>
<svg
   width="512"
   height="512"
   viewBox="0 0 512 512"
   fill="none"
   version="1.1"
   id="svg1566"
   sodipodi:docname="folder-familiy-cor.svg"
   inkscape:version="1.2.2 (b0a8486541, 2022-12-01)"
   xml:space="preserve"
   xmlns:inkscape="http://www.inkscape.org/namespaces/inkscape"
   xmlns:sodipodi="http://sodipodi.sourceforge.net/DTD/sodipodi-0.dtd"
   xmlns="http://www.w3.org/2000/svg"
   xmlns:svg="http://www.w3.org/2000/svg"><sodipodi:namedview
     id="namedview1568"
     pagecolor="#505050"
     bordercolor="#eeeeee"
     borderopacity="1"
     inkscape:showpageshadow="0"
     inkscape:pageopacity="0"
     inkscape:pagecheckerboard="0"
     inkscape:deskcolor="#505050"
     showgrid="false"
     inkscape:zoom="1.2285156"
     inkscape:cx="255.59301"
     inkscape:cy="161.17011"
     inkscape:window-width="1920"
     inkscape:window-height="1011"
     inkscape:window-x="0"
     inkscape:window-y="0"
     inkscape:window-maximized="1"
     inkscape:current-layer="svg1566"
     showguides="true"><sodipodi:guide
       position="156,356"
       orientation="-1,0"
       id="guide4544"
       inkscape:locked="false"
       inkscape:label=""
       inkscape:color="rgb(0,134,229)" /><sodipodi:guide
       position="356,156"
       orientation="-1,0"
       id="guide4662"
       inkscape:locked="false"
       inkscape:label=""
       inkscape:color="rgb(0,134,229)" /><sodipodi:guide
       position="214.07949,306"
       orientation="0,1"
       id="guide4664"
       inkscape:locked="false"
       inkscape:label=""
       inkscape:color="rgb(0,134,229)" /><sodipodi:guide
       position="477.89825,106"
       orientation="0,1"
       id="guide4666"
       inkscape:locked="false"
       inkscape:label=""
       inkscape:color="rgb(0,134,229)" /></sodipodi:namedview><path
     d="M192 48H88C88 48 48 48 48 88V216H464V120C464 120 464 80 424 80H224L192 48Z"
     fill="url(#paint0_linear_201_13)"
     id="path1526" /><g
     opacity="0.1"
     filter="url(#filter1_f_201_13)"
     id="g1530"><path
       d="M256 132L224 164H88C88 164 48 164 48 204V468H424C464 468 464 428 464 428V172C464 132 424 132 424 132H256Z"
       fill="#408AE5"
       id="path1528" /></g><path
     d="M256 128L224 160H88C88 160 48 160 48 200V464H424C464 464 464 424 464 424V168C464 128 424 128 424 128H256Z"
     fill="url(#paint1_linear_201_13)"
     id="path1532" /><g
     opacity="0.2"
     filter="url(#filter0_f_201_13)"
     id="g1524"><path
       d="M88 50C88 50 48 50 48 90L47.9648 218H47.998L47.9648 466.094L424 466C464 466 464 426 464 426V218V170V122C464 122 464 82 424 82H224L192 50H88Z"
       fill="#408AE5"
       id="path1522" /></g><g
     id="g21491"
     style="fill:#448ee6;fill-opacity:1"><path
       d="m 0,0 c -8.688,0.093 -16.435,6.301 -18.662,14.954 -2.136,8.303 1.977,22.61 8.302,25.823 2.671,1.358 6.985,1.141 9.729,-0.229 C 3.693,38.39 7.399,34.76 11.226,31.561 16.481,27.167 21.389,22.508 18.473,14.188 15.375,5.345 8.326,-0.09 0,0"
       style="fill:#448ee6;fill-opacity:1;fill-rule:nonzero;stroke:none"
       id="path572"
       transform="matrix(0.61826995,0,0,-0.61826995,321.6786,295.6732)" /><path
       d="m 0,0 c -0.216,-15.675 -11.732,-27.491 -26.449,-27.138 -14.17,0.34 -25.521,12.857 -25.257,27.85 0.272,15.421 12.054,27.436 26.632,27.161 C -10.923,27.606 0.209,15.23 0,0"
       style="fill:#448ee6;fill-opacity:1;fill-rule:nonzero;stroke:none"
       id="path520"
       transform="matrix(0.61826995,0,0,-0.61826995,351.77907,317.67977)" /><path
       d="m 0,0 c 21.675,0.143 39.247,-18.147 39.469,-41.083 0.22,-22.775 -17.36,-41.79 -38.789,-41.954 -21.632,-0.165 -39.062,18.099 -39.352,41.232 C -38.958,-18.874 -21.631,-0.143 0,0"
       style="fill:#448ee6;fill-opacity:1;fill-rule:nonzero;stroke:none"
       id="path390"
       transform="matrix(0.61826995,0,0,-0.61826995,232.76031,205.70558)" /><g
       id="g5131"
       style="fill:#448ee6;fill-opacity:1"
       transform="translate(0,8)"><path
         d="m 0,0 c -0.548,-7.9 -4.95,-14.45 -12.479,-17.584 -7.799,-3.246 -16.771,-1.051 -21.535,5.269 -6.911,9.166 -6.424,15.031 1.938,22.771 2.619,2.424 5.412,4.643 7.945,7.16 8.306,8.258 14.543,7.524 19.724,-3.102 C -2.237,10.063 -1.428,4.86 0,0"
         style="fill:#448ee6;fill-opacity:1;fill-rule:nonzero;stroke:none"
         id="path576"
         transform="matrix(0.61826995,0,0,-0.61826995,171.8269,318.04453)" /><path
         d="M 0,0 C 27.044,-5.379 47.185,12.943 41.128,46.238 53.713,44.896 66.056,44.803 77.812,41.959 88.084,39.474 95.12,31.116 96.506,19.475 97.666,9.733 97.743,-0.177 97.924,-10.02 98.125,-20.892 97.872,-31.772 97.863,-42.649 97.851,-57.728 95.722,-60.746 81.618,-64.611 V -97.258 H 16.366 v 32.496 c -2.62,0.781 -4.579,1.302 -6.501,1.948 -5.926,1.99 -9.692,6.214 -9.788,12.879 C -0.158,-33.53 0,-17.118 0,0"
         style="fill:#448ee6;fill-opacity:1;fill-rule:nonzero;stroke:none"
         id="path218"
         transform="matrix(0.61826995,0,0,-0.61826995,152.94914,337.47169)" /><path
         d="M 0,0 C 15.21,27.419 13.822,43.614 -5.206,68.176 7.658,81.563 79.163,82.239 94.762,68.739 93.246,67.809 91.924,66.935 90.55,66.165 74.797,57.34 67.296,42.955 67.09,24.525 c -0.335,-29.919 -0.088,-59.847 0.074,-89.771 0.073,-13.727 5.606,-24.176 17.132,-30.916 1.499,-0.877 3.177,-3.192 3.201,-4.867 0.236,-16.772 0.143,-33.549 0.143,-51.437 H 48.902 9.599 c 0,7.272 -0.247,14.09 0.184,20.86 0.101,1.585 2.291,3.352 3.881,4.44 7.135,4.882 11.861,11.825 12.043,20.639 0.452,21.988 0.741,44.033 -0.243,65.987 C 24.651,-22.401 16.773,-7.937 0,0"
         style="fill:#448ee6;fill-opacity:1;fill-rule:nonzero;stroke:none"
         id="path178"
         transform="matrix(0.61826995,0,0,-0.61826995,205.08791,303.71742)" /><path
         d="m 0,0 h -71.075 v 65.795 c -3.504,0.937 -6.262,1.426 -8.851,2.417 -7.007,2.683 -11.657,8.129 -11.683,15.972 -0.104,30.915 -0.704,61.893 0.901,92.729 1.125,21.634 12.998,33.958 33.3,36.319 14.425,1.677 29.16,0.325 44.53,0.325 -5.451,-19.348 -1.554,-35.567 16.117,-44.955 -1.874,-8.966 -5.107,-17.509 -5.031,-26.019 0.076,-8.526 3.456,-17.02 5.584,-26.397 -16.058,-9.703 -19.508,-27.017 -19.2,-46.264 0.21,-13.115 0.067,-26.237 0.08,-39.357 0.01,-9.499 3.096,-17.27 10.594,-22.989 C -2.916,6.189 -2.052,3.388 0,0"
         style="fill:#448ee6;fill-opacity:1;fill-rule:nonzero;stroke:none"
         id="path126"
         transform="matrix(0.61826995,0,0,-0.61826995,311.97616,397.75907)" /><path
         d="M 0,0 C 15.974,-0.108 30.912,-15.941 30.853,-32.597 30.782,-52.9 15.461,-64.459 -0.491,-65.214 c -15.25,-0.722 -29.954,15.97 -29.845,32.756 C -30.227,-15.685 -15.47,0.104 0,0"
         style="fill:#448ee6;fill-opacity:1;fill-rule:nonzero;stroke:none"
         id="path454"
         transform="matrix(0.61826995,0,0,-0.61826995,183.0835,264.08292)" /><path
         d="M 0,0 C -0.019,21.42 16.106,38.697 36.214,38.801 56.073,38.904 72.421,21.346 72.382,-0.044 72.343,-21.382 56.056,-38.423 35.823,-38.293 15.989,-38.167 0.018,-21.093 0,0"
         style="fill:#448ee6;fill-opacity:1;fill-rule:nonzero;stroke:none"
         id="path414"
         transform="matrix(0.61826995,0,0,-0.61826995,267.9374,235.75601)" /><path
         d="m 0,0 c -0.262,-5.474 -0.494,-10.32 -0.743,-15.526 h -54.094 c -0.244,5.023 -0.49,10.071 -0.729,15.001 -12.563,4.515 -13.553,6.031 -13.559,20.348 -0.004,13.846 -0.254,27.698 0.024,41.536 0.429,21.355 9.892,31.051 29.967,31.175 8.83,0.055 17.668,0.203 26.491,-0.094 C 2.584,91.928 12.073,83.242 12.991,67.035 14.009,49.053 13.617,30.969 13.515,12.932 13.466,4.284 7.504,1.414 0,0"
         style="fill:#448ee6;fill-opacity:1;fill-rule:nonzero;stroke:none"
         id="path302"
         transform="matrix(0.61826995,0,0,-0.61826995,352.9957,388.13724)" /></g></g><path
     d="M464 418C464 418 464 458 424 458L48.0019 458.094L47.998 464.094L424 464C464 464 464 424 464 424V418Z"
     fill="#99C1F1"
     id="path1534" /><path
     opacity="0.3"
     d="M256 128L224 160H88C88 160 48 160 48 200V204C48 164 88 162 88 162H224.591L256.591 130H424C429.38 130 464 132 464 172V168C464 128 424 128 424 128H256Z"
     fill="white"
     id="path1536" /><defs
     id="defs1564"><filter
       id="filter0_f_201_13"
       x="43.8042"
       y="45.8394"
       width="424.356"
       height="424.415"
       filterUnits="userSpaceOnUse"
       color-interpolation-filters="sRGB"><feFlood
         flood-opacity="0"
         result="BackgroundImageFix"
         id="feFlood1540" /><feBlend
         mode="normal"
         in="SourceGraphic"
         in2="BackgroundImageFix"
         result="shape"
         id="feBlend1542" /><feGaussianBlur
         stdDeviation="2.08032"
         result="effect1_foregroundBlur_201_13"
         id="feGaussianBlur1544" /></filter><filter
       id="filter1_f_201_13"
       x="10.4"
       y="94.4"
       width="491.2"
       height="411.2"
       filterUnits="userSpaceOnUse"
       color-interpolation-filters="sRGB"><feFlood
         flood-opacity="0"
         result="BackgroundImageFix"
         id="feFlood1547" /><feBlend
         mode="normal"
         in="SourceGraphic"
         in2="BackgroundImageFix"
         result="shape"
         id="feBlend1549" /><feGaussianBlur
         stdDeviation="18.8"
         result="effect1_foregroundBlur_201_13"
         id="feGaussianBlur1551" /></filter><linearGradient
       id="paint0_linear_201_13"
       x1="48"
       y1="132"
       x2="464"
       y2="132"
       gradientUnits="userSpaceOnUse"><stop
         stop-color="#3584E4"
         id="stop1554" /><stop
         offset="1"
         stop-color="#62A0EA"
         id="stop1556" /></linearGradient><linearGradient
       id="paint1_linear_201_13"
       x1="152.898"
       y1="173.203"
       x2="447.309"
       y2="528"
       gradientUnits="userSpaceOnUse"><stop
         stop-color="#99C1F1"
         id="stop1559" /><stop
         offset="1"
         stop-color="#C3E5E7"
         id="stop1561" /></linearGradient><clipPath
       clipPathUnits="userSpaceOnUse"
       id="clipPath3423"><g
         id="g3427"
         transform="translate(-418.395,-1312.6289)"><path
           d="M 0,3000 H 3000 V 0 H 0 Z"
           id="path3425" /></g></clipPath><clipPath
       clipPathUnits="userSpaceOnUse"
       id="clipPath3345"><g
         id="g3349"
         transform="translate(-245.5122,-1464.7334)"><path
           d="M 0,3000 H 3000 V 0 H 0 Z"
           id="path3347" /></g></clipPath><clipPath
       clipPathUnits="userSpaceOnUse"
       id="clipPath3285"><g
         id="g3289"
         transform="translate(-161.1821,-1410.1387)"><path
           d="M 0,3000 H 3000 V 0 H 0 Z"
           id="path3287" /></g></clipPath><clipPath
       clipPathUnits="userSpaceOnUse"
       id="clipPath3159"><g
         id="g3163"
         transform="translate(-484.7407,-1328.1914)"><path
           d="M 0,3000 H 3000 V 0 H 0 Z"
           id="path3161" /></g></clipPath><clipPath
       clipPathUnits="userSpaceOnUse"
       id="clipPath3027"><g
         id="g3031"
         transform="translate(-290.27,-1636.1987)"><path
           d="M 0,3000 H 3000 V 0 H 0 Z"
           id="path3029" /></g></clipPath><clipPath
       clipPathUnits="userSpaceOnUse"
       id="clipPath2991"><g
         id="g2995"
         transform="translate(-347.166,-1574.6553)"><path
           d="M 0,3000 H 3000 V 0 H 0 Z"
           id="path2993" /></g></clipPath><clipPath
       clipPathUnits="userSpaceOnUse"
       id="clipPath2931"><g
         id="g2935"
         transform="translate(-209.9219,-1528.8389)"><path
           d="M 0,3000 H 3000 V 0 H 0 Z"
           id="path2933" /></g></clipPath><clipPath
       clipPathUnits="userSpaceOnUse"
       id="clipPath2829"><g
         id="g2833"
         transform="translate(-482.7729,-1455.0898)"><path
           d="M 0,3000 H 3000 V 0 H 0 Z"
           id="path2831" /></g></clipPath><clipPath
       clipPathUnits="userSpaceOnUse"
       id="clipPath2751"><g
         id="g2755"
         transform="translate(-434.0879,-1490.6836)"><path
           d="M 0,3000 H 3000 V 0 H 0 Z"
           id="path2753" /></g></clipPath><clipPath
       clipPathUnits="userSpaceOnUse"
       id="clipPath2745"><g
         id="g2749"
         transform="translate(-191.7153,-1441.5605)"><path
           d="M 0,3000 H 3000 V 0 H 0 Z"
           id="path2747" /></g></clipPath><filter
       id="filter0_f_201_13-6"
       x="43.8042"
       y="45.8394"
       width="424.356"
       height="424.415"
       filterUnits="userSpaceOnUse"
       color-interpolation-filters="sRGB"><feFlood
         flood-opacity="0"
         result="BackgroundImageFix"
         id="feFlood1540-0" /><feBlend
         mode="normal"
         in="SourceGraphic"
         in2="BackgroundImageFix"
         result="shape"
         id="feBlend1542-6" /><feGaussianBlur
         stdDeviation="2.08032"
         result="effect1_foregroundBlur_201_13"
         id="feGaussianBlur1544-2" /></filter><filter
       id="filter1_f_201_13-6"
       x="10.4"
       y="94.4"
       width="491.2"
       height="411.2"
       filterUnits="userSpaceOnUse"
       color-interpolation-filters="sRGB"><feFlood
         flood-opacity="0"
         result="BackgroundImageFix"
         id="feFlood1547-1" /><feBlend
         mode="normal"
         in="SourceGraphic"
         in2="BackgroundImageFix"
         result="shape"
         id="feBlend1549-8" /><feGaussianBlur
         stdDeviation="18.8"
         result="effect1_foregroundBlur_201_13"
         id="feGaussianBlur1551-7" /></filter></defs></svg>
