<?xml version="1.0" encoding="UTF-8" standalone="no"?>
<svg
   height="128px"
   viewBox="0 0 128 128"
   width="128px"
   version="1.1"
   id="svg21"
   sodipodi:docname="folder-www.svg"
   xml:space="preserve"
   inkscape:version="1.2.2 (b0a8486541, 2022-12-01)"
   xmlns:inkscape="http://www.inkscape.org/namespaces/inkscape"
   xmlns:sodipodi="http://sodipodi.sourceforge.net/DTD/sodipodi-0.dtd"
   xmlns="http://www.w3.org/2000/svg"
   xmlns:svg="http://www.w3.org/2000/svg"><defs
     id="defs25" /><sodipodi:namedview
     id="namedview23"
     pagecolor="#505050"
     bordercolor="#eeeeee"
     borderopacity="1"
     inkscape:showpageshadow="0"
     inkscape:pageopacity="0"
     inkscape:pagecheckerboard="0"
     inkscape:deskcolor="#505050"
     showgrid="false"
     inkscape:zoom="3.4747669"
     inkscape:cx="68.206014"
     inkscape:cy="72.235061"
     inkscape:window-width="1600"
     inkscape:window-height="863"
     inkscape:window-x="0"
     inkscape:window-y="0"
     inkscape:window-maximized="1"
     inkscape:current-layer="svg21" /><linearGradient
     id="a"
     gradientTransform="matrix(0.45451 0 0 0.455522 -1210.292114 616.172607)"
     gradientUnits="userSpaceOnUse"
     x1="2689.251953"
     x2="2918.069824"
     y1="-1106.802979"
     y2="-1106.802979"><stop
       offset="0"
       stop-color="#62a0ea"
       id="stop2" /><stop
       offset="0.0576991"
       stop-color="#afd4ff"
       id="stop4" /><stop
       offset="0.122204"
       stop-color="#62a0ea"
       id="stop6" /><stop
       offset="0.873306"
       stop-color="#62a0ea"
       id="stop8" /><stop
       offset="0.955997"
       stop-color="#c0d5ea"
       id="stop10" /><stop
       offset="1"
       stop-color="#62a0ea"
       id="stop12" /></linearGradient><path
     d="m 21.976562 12 c -5.527343 0 -9.976562 4.460938 -9.976562 10 v 86.03125 c 0 5.542969 4.449219 10 9.976562 10 h 84.042969 c 5.53125 0 9.980469 -4.457031 9.980469 -10 v -72.085938 c 0 -6.628906 -5.359375 -12 -11.972656 -12 h -46.027344 c -2.453125 0 -4.695312 -1.386718 -5.796875 -3.582031 l -1.503906 -2.992187 c -1.65625 -3.292969 -5.019531 -5.371094 -8.699219 -5.371094 z m 0 0"
     fill="#438de6"
     id="path15" /><path
     d="m 65.976562 36 c -2.746093 0 -5.226562 1.101562 -7.027343 2.890625 c -2.273438 2.253906 -5.382813 5.109375 -8.632813 5.109375 h -28.339844 c -5.527343 0 -9.976562 4.460938 -9.976562 10 v 54.03125 c 0 5.542969 4.449219 10 9.976562 10 h 84.042969 c 5.53125 0 9.980469 -4.457031 9.980469 -10 v -62.03125 c 0 -5.539062 -4.449219 -10 -9.980469 -10 z m 0 0"
     fill="url(#a)"
     id="path17" /><path
     d="m 65.976562 32 c -2.746093 0 -5.226562 1.101562 -7.027343 2.890625 c -2.273438 2.253906 -5.382813 5.109375 -8.632813 5.109375 h -28.339844 c -5.527343 0 -9.976562 4.460938 -9.976562 10 v 55.976562 c 0 5.539063 4.449219 10 9.976562 10 h 84.042969 c 5.53125 0 9.980469 -4.460937 9.980469 -10 v -63.976562 c 0 -5.539062 -4.449219 -10 -9.980469 -10 z m 0 0"
     fill="#a4caee"
     id="path19" /><g
     style="fill:#438de6;fill-opacity:1"
     id="g163"
     transform="matrix(0.09912653,0,0,0.09912653,38.524482,54.072193)"><g
       id="g141"
       style="fill:#438de6;fill-opacity:1"><path
         d="m 391.1,373.9 c 0,0 -38.06672,0.0466 -57.1,0 l -40.8,-0.1 c -56.7665,-0.13913 -170.3,0 -170.3,0 -38.6,0 -70.1,-31.4 -70.1,-70 0,-38.6 31.4,-70.1 70.1,-70.1 h 268.2 c 38.6,0 70,31.4 70,70.1 0.1,38.6 -31.4,70.1 -70,70.1 z M 52.8,122.9 c 0,-38.6 31.4,-70 70.1,-70 h 268.2 c 38.6,0 70,31.4 70,70 0,38.6 -31.4,70.1 -70,70.1 H 122.9 C 84.3,192.9 52.8,161.5 52.8,122.9 Z m 402.4,90.4 C 483.5,193.2 502,160.1 502,122.8 502,61.7 452.3,12 391.1,12 H 122.9 C 61.7,12 12,61.7 12,122.9 c 0,37.3 18.5,70.4 46.8,90.5 -28.3,20.1 -46.8,53.1 -46.8,90.4 0,61.1 49.7,110.9 110.9,110.9 h 170.3 40.8 57.1 c 61.1,0 110.9,-49.7 110.9,-110.9 0,-37.3 -18.5,-70.3 -46.8,-90.5 z"
         id="path131"
         sodipodi:nodetypes="ssssssscsssssscscsssscssccssc"
         style="fill:#438de6;fill-opacity:1" /><path
         d="m 113.3,143.3 h 8.9 c 11.3,0 20.4,-9.1 20.4,-20.4 0,-11.3 -9.1,-20.4 -20.4,-20.4 h -8.9 c -11.3,0 -20.4,9.1 -20.4,20.4 -0.1,11.3 9.1,20.4 20.4,20.4 z"
         id="path133"
         style="fill:#438de6;fill-opacity:1" /><path
         d="m 189.8,143.3 h 8.9 c 11.3,0 20.4,-9.1 20.4,-20.4 0,-11.3 -9.1,-20.4 -20.4,-20.4 h -8.9 c -11.3,0 -20.4,9.1 -20.4,20.4 0,11.3 9.1,20.4 20.4,20.4 z"
         id="path135"
         style="fill:#438de6;fill-opacity:1" /><path
         d="m 126.7,283.4 h -8.9 c -11.3,0 -20.4,9.1 -20.4,20.4 0,11.3 9.1,20.4 20.4,20.4 h 8.9 c 11.3,0 20.4,-9.1 20.4,-20.4 0,-11.3 -9.2,-20.4 -20.4,-20.4 z"
         id="path137"
         style="fill:#438de6;fill-opacity:1" /><path
         d="m 203.2,283.4 h -8.9 c -11.3,0 -20.4,9.1 -20.4,20.4 0,11.3 9.1,20.4 20.4,20.4 h 8.9 c 11.3,0 20.4,-9.1 20.4,-20.4 0,-11.3 -9.1,-20.4 -20.4,-20.4 z"
         id="path139"
         style="fill:#438de6;fill-opacity:1" /></g></g></svg>
