<?xml version="1.0" encoding="UTF-8" standalone="no"?>
<svg
   width="512"
   height="512"
   viewBox="0 0 512 512"
   fill="none"
   version="1.1"
   id="svg1566"
   sodipodi:docname="folder-academico.svg"
   inkscape:version="1.2.2 (b0a8486541, 2022-12-01)"
   xmlns:inkscape="http://www.inkscape.org/namespaces/inkscape"
   xmlns:sodipodi="http://sodipodi.sourceforge.net/DTD/sodipodi-0.dtd"
   xmlns="http://www.w3.org/2000/svg"
   xmlns:svg="http://www.w3.org/2000/svg">
  <sodipodi:namedview
     id="namedview1568"
     pagecolor="#505050"
     bordercolor="#eeeeee"
     borderopacity="1"
     inkscape:showpageshadow="0"
     inkscape:pageopacity="0"
     inkscape:pagecheckerboard="0"
     inkscape:deskcolor="#505050"
     showgrid="false"
     inkscape:zoom="1.2285156"
     inkscape:cx="256.407"
     inkscape:cy="256.407"
     inkscape:window-width="1920"
     inkscape:window-height="1011"
     inkscape:window-x="0"
     inkscape:window-y="0"
     inkscape:window-maximized="1"
     inkscape:current-layer="svg1566"
     showguides="true">
    <sodipodi:guide
       position="156,356"
       orientation="-1,0"
       id="guide4544"
       inkscape:locked="false"
       inkscape:label=""
       inkscape:color="rgb(0,134,229)" />
    <sodipodi:guide
       position="356,156"
       orientation="-1,0"
       id="guide4662"
       inkscape:locked="false"
       inkscape:label=""
       inkscape:color="rgb(0,134,229)" />
    <sodipodi:guide
       position="214.07949,306"
       orientation="0,1"
       id="guide4664"
       inkscape:locked="false"
       inkscape:label=""
       inkscape:color="rgb(0,134,229)" />
    <sodipodi:guide
       position="477.89825,106"
       orientation="0,1"
       id="guide4666"
       inkscape:locked="false"
       inkscape:label=""
       inkscape:color="rgb(0,134,229)" />
  </sodipodi:namedview>
  <g
     opacity="0.2"
     filter="url(#filter0_f_201_13)"
     id="g1524">
    <path
       d="M88 50C88 50 48 50 48 90L47.9648 218H47.998L47.9648 466.094L424 466C464 466 464 426 464 426V218V170V122C464 122 464 82 424 82H224L192 50H88Z"
       fill="#408AE5"
       id="path1522" />
  </g>
  <path
     d="M192 48H88C88 48 48 48 48 88V216H464V120C464 120 464 80 424 80H224L192 48Z"
     fill="url(#paint0_linear_201_13)"
     id="path1526" />
  <g
     opacity="0.1"
     filter="url(#filter1_f_201_13)"
     id="g1530">
    <path
       d="M256 132L224 164H88C88 164 48 164 48 204V468H424C464 468 464 428 464 428V172C464 132 424 132 424 132H256Z"
       fill="#408AE5"
       id="path1528" />
  </g>
  <path
     d="M256 128L224 160H88C88 160 48 160 48 200V464H424C464 464 464 424 464 424V168C464 128 424 128 424 128H256Z"
     fill="url(#paint1_linear_201_13)"
     id="path1532" />
  <path
     d="M464 418C464 418 464 458 424 458L48.0019 458.094L47.998 464.094L424 464C464 464 464 424 464 424V418Z"
     fill="#99C1F1"
     id="path1534" />
  <path
     opacity="0.3"
     d="M256 128L224 160H88C88 160 48 160 48 200V204C48 164 88 162 88 162H224.591L256.591 130H424C429.38 130 464 132 464 172V168C464 128 424 128 424 128H256Z"
     fill="white"
     id="path1536" />
  <defs
     id="defs1564">
    <filter
       id="filter0_f_201_13"
       x="43.8042"
       y="45.8394"
       width="424.356"
       height="424.415"
       filterUnits="userSpaceOnUse"
       color-interpolation-filters="sRGB">
      <feFlood
         flood-opacity="0"
         result="BackgroundImageFix"
         id="feFlood1540" />
      <feBlend
         mode="normal"
         in="SourceGraphic"
         in2="BackgroundImageFix"
         result="shape"
         id="feBlend1542" />
      <feGaussianBlur
         stdDeviation="2.08032"
         result="effect1_foregroundBlur_201_13"
         id="feGaussianBlur1544" />
    </filter>
    <filter
       id="filter1_f_201_13"
       x="10.4"
       y="94.4"
       width="491.2"
       height="411.2"
       filterUnits="userSpaceOnUse"
       color-interpolation-filters="sRGB">
      <feFlood
         flood-opacity="0"
         result="BackgroundImageFix"
         id="feFlood1547" />
      <feBlend
         mode="normal"
         in="SourceGraphic"
         in2="BackgroundImageFix"
         result="shape"
         id="feBlend1549" />
      <feGaussianBlur
         stdDeviation="18.8"
         result="effect1_foregroundBlur_201_13"
         id="feGaussianBlur1551" />
    </filter>
    <linearGradient
       id="paint0_linear_201_13"
       x1="48"
       y1="132"
       x2="464"
       y2="132"
       gradientUnits="userSpaceOnUse">
      <stop
         stop-color="#3584E4"
         id="stop1554" />
      <stop
         offset="1"
         stop-color="#62A0EA"
         id="stop1556" />
    </linearGradient>
    <linearGradient
       id="paint1_linear_201_13"
       x1="152.898"
       y1="173.203"
       x2="447.309"
       y2="528"
       gradientUnits="userSpaceOnUse">
      <stop
         stop-color="#99C1F1"
         id="stop1559" />
      <stop
         offset="1"
         stop-color="#C3E5E7"
         id="stop1561" />
    </linearGradient>
  </defs>
  <path
     sodipodi:type="star"
     style="fill:#78909c;fill-opacity:1;stroke-width:9"
     id="path3227"
     inkscape:flatsided="true"
     sodipodi:sides="4"
     sodipodi:cx="-53.941971"
     sodipodi:cy="-6.0170908"
     sodipodi:r1="24.740685"
     sodipodi:r2="6.1872935"
     sodipodi:arg1="0.0040527692"
     sodipodi:arg2="0.78945089"
     inkscape:rounded="0.05"
     inkscape:randomized="0"
     d="m -29.201489,-5.9168228 c -0.0071,1.7494162 -23.091334,24.6473038 -24.84075,24.6402138 -1.749416,-0.0071 -24.647303,-23.0913336 -24.640213,-24.8407498 0.0071,-1.7494162 23.091333,-24.6473032 24.840749,-24.6402132 1.749416,0.0071 24.647304,23.091333 24.640214,24.8407492 z"
     transform="matrix(4.3974799,0,0,2.0033206,489.6221,302.99799)" />
  <path
     id="path3256"
     style="fill:#37474f;fill-opacity:1;stroke-width:22.4988"
     d="m 188.14407,313.77137 v 37.04665 1.14657 h 0.18603 a 63.464308,24.141613 0 0 0 63.27836,22.99343 63.464308,24.141613 0 0 0 63.2784,-22.99343 h 0.18603 v -1.14657 -36.24871 c -27.97769,12.77941 -58.97278,25.94493 -63.10023,25.93731 -4.18765,-0.008 -35.77372,-13.68072 -63.82839,-26.73525 z" />
  <path
     id="rect3264"
     style="fill:#37474f;fill-opacity:1;stroke-width:35.4554"
     d="m 249.52441,280.49751 c -2.60553,0.0861 -4.86906,1.98933 -5.32228,4.66375 -0.51798,3.05652 1.52977,5.92765 4.58629,6.4456 l 78.2148,13.26304 0.13169,55.27563 a 8.8820079,8.8820079 0 0 0 -3.19955,6.78648 8.8820079,8.8820079 0 0 0 0.82892,3.73412 12.618253,12.618253 0 0 0 -4.56304,9.68386 12.618253,12.618253 0 0 0 1.21629,5.36876 l 10.77624,21.60666 12.03902,-21.56794 h -0.0464 a 12.618253,12.618253 0 0 0 1.24727,-5.43072 h -7.04985 v -0.0159 l 7.04985,-0.0238 a 12.618253,12.618253 0 0 0 -4.57077,-9.62964 8.8820079,8.8820079 0 0 0 0.83665,-3.74185 h -3.35448 v -0.0159 l 3.35448,-0.008 a 8.8820079,8.8820079 0 0 0 -3.36999,-6.87945 l -0.14716,-58.34346 c 10e-4,-0.004 -10e-4,-0.0119 0,-0.0159 0.0484,-0.1781 0.0924,-0.36413 0.12376,-0.55004 0.51798,-3.05652 -1.52204,-5.93538 -4.57852,-6.45337 l -83.07224,-14.07646 c -0.38197,-0.0647 -0.75887,-0.0896 -1.13109,-0.0773 z" />
</svg>
