<?xml version="1.0" encoding="UTF-8" standalone="no"?>
<svg
   width="512"
   height="512"
   viewBox="0 0 512 512"
   fill="none"
   version="1.1"
   id="svg1566"
   sodipodi:docname="folder-work-color.svg"
   inkscape:version="1.2.2 (b0a8486541, 2022-12-01)"
   xmlns:inkscape="http://www.inkscape.org/namespaces/inkscape"
   xmlns:sodipodi="http://sodipodi.sourceforge.net/DTD/sodipodi-0.dtd"
   xmlns="http://www.w3.org/2000/svg"
   xmlns:svg="http://www.w3.org/2000/svg">
  <sodipodi:namedview
     id="namedview1568"
     pagecolor="#505050"
     bordercolor="#eeeeee"
     borderopacity="1"
     inkscape:showpageshadow="0"
     inkscape:pageopacity="0"
     inkscape:pagecheckerboard="0"
     inkscape:deskcolor="#505050"
     showgrid="false"
     inkscape:zoom="1.2285156"
     inkscape:cx="256.407"
     inkscape:cy="256.407"
     inkscape:window-width="1920"
     inkscape:window-height="1011"
     inkscape:window-x="0"
     inkscape:window-y="0"
     inkscape:window-maximized="1"
     inkscape:current-layer="svg1566"
     showguides="true">
    <sodipodi:guide
       position="156,356"
       orientation="-1,0"
       id="guide4544"
       inkscape:locked="false"
       inkscape:label=""
       inkscape:color="rgb(0,134,229)" />
    <sodipodi:guide
       position="356,156"
       orientation="-1,0"
       id="guide4662"
       inkscape:locked="false"
       inkscape:label=""
       inkscape:color="rgb(0,134,229)" />
    <sodipodi:guide
       position="214.07949,306"
       orientation="0,1"
       id="guide4664"
       inkscape:locked="false"
       inkscape:label=""
       inkscape:color="rgb(0,134,229)" />
    <sodipodi:guide
       position="477.89825,106"
       orientation="0,1"
       id="guide4666"
       inkscape:locked="false"
       inkscape:label=""
       inkscape:color="rgb(0,134,229)" />
  </sodipodi:namedview>
  <g
     opacity="0.2"
     filter="url(#filter0_f_201_13)"
     id="g1524">
    <path
       d="M88 50C88 50 48 50 48 90L47.9648 218H47.998L47.9648 466.094L424 466C464 466 464 426 464 426V218V170V122C464 122 464 82 424 82H224L192 50H88Z"
       fill="#408AE5"
       id="path1522" />
  </g>
  <path
     d="M192 48H88C88 48 48 48 48 88V216H464V120C464 120 464 80 424 80H224L192 48Z"
     fill="url(#paint0_linear_201_13)"
     id="path1526" />
  <g
     opacity="0.1"
     filter="url(#filter1_f_201_13)"
     id="g1530">
    <path
       d="M256 132L224 164H88C88 164 48 164 48 204V468H424C464 468 464 428 464 428V172C464 132 424 132 424 132H256Z"
       fill="#408AE5"
       id="path1528" />
  </g>
  <path
     d="M256 128L224 160H88C88 160 48 160 48 200V464H424C464 464 464 424 464 424V168C464 128 424 128 424 128H256Z"
     fill="url(#paint1_linear_201_13)"
     id="path1532" />
  <path
     d="M464 418C464 418 464 458 424 458L48.0019 458.094L47.998 464.094L424 464C464 464 464 424 464 424V418Z"
     fill="#99C1F1"
     id="path1534" />
  <path
     opacity="0.3"
     d="M256 128L224 160H88C88 160 48 160 48 200V204C48 164 88 162 88 162H224.591L256.591 130H424C429.38 130 464 132 464 172V168C464 128 424 128 424 128H256Z"
     fill="white"
     id="path1536" />
  <defs
     id="defs1564">
    <filter
       id="filter0_f_201_13"
       x="43.8042"
       y="45.8394"
       width="424.356"
       height="424.415"
       filterUnits="userSpaceOnUse"
       color-interpolation-filters="sRGB">
      <feFlood
         flood-opacity="0"
         result="BackgroundImageFix"
         id="feFlood1540" />
      <feBlend
         mode="normal"
         in="SourceGraphic"
         in2="BackgroundImageFix"
         result="shape"
         id="feBlend1542" />
      <feGaussianBlur
         stdDeviation="2.08032"
         result="effect1_foregroundBlur_201_13"
         id="feGaussianBlur1544" />
    </filter>
    <filter
       id="filter1_f_201_13"
       x="10.4"
       y="94.4"
       width="491.2"
       height="411.2"
       filterUnits="userSpaceOnUse"
       color-interpolation-filters="sRGB">
      <feFlood
         flood-opacity="0"
         result="BackgroundImageFix"
         id="feFlood1547" />
      <feBlend
         mode="normal"
         in="SourceGraphic"
         in2="BackgroundImageFix"
         result="shape"
         id="feBlend1549" />
      <feGaussianBlur
         stdDeviation="18.8"
         result="effect1_foregroundBlur_201_13"
         id="feGaussianBlur1551" />
    </filter>
    <linearGradient
       id="paint0_linear_201_13"
       x1="48"
       y1="132"
       x2="464"
       y2="132"
       gradientUnits="userSpaceOnUse">
      <stop
         stop-color="#3584E4"
         id="stop1554" />
      <stop
         offset="1"
         stop-color="#62A0EA"
         id="stop1556" />
    </linearGradient>
    <linearGradient
       id="paint1_linear_201_13"
       x1="152.898"
       y1="173.203"
       x2="447.309"
       y2="528"
       gradientUnits="userSpaceOnUse">
      <stop
         stop-color="#99C1F1"
         id="stop1559" />
      <stop
         offset="1"
         stop-color="#C3E5E7"
         id="stop1561" />
    </linearGradient>
  </defs>
  <g
     id="g20"
     transform="matrix(0.21718485,0,0,0.21718485,148.44474,201.41763)">
	<g
   id="g18">
		<path
   d="m 628.833,459.92 67.596,-67.596 c 48.836,19.389 103.95,18.183 152.007,-3.614 11.799,-5.353 14.622,-20.844 5.46,-30.006 L 733.52,238.329 c -14.625,-14.625 -14.625,-38.338 0,-52.963 L 853.771,65.114 c 9.221,-9.222 6.385,-24.827 -5.497,-30.203 C 776.762,2.554 689.668,15.763 630.885,74.545 575.672,129.757 560.806,210.52 586.267,279.503 l -68.926,68.926 z"
   id="path2"
   style="fill:#0088aa" />

		<path
   d="m 499.665,366.106 -93.414,-93.414 -111.491,111.492 93.414,93.414 111.49,111.491 341.527,341.527 c 4.877,4.877 11.271,7.316 17.662,7.316 6.393,0 12.785,-2.439 17.662,-7.316 l 76.166,-76.166 c 9.755,-9.756 9.755,-25.57 0,-35.324 L 611.155,477.598 Z"
   id="path4"
   style="fill:#d45500" />

		<path
   d="m 904.345,127.995 -99.869,99.869 c -7.984,7.984 -7.984,20.93 0,28.914 l 76.972,76.972 c 8.594,8.593 22.826,7.907 30.371,-1.619 45.178,-57.037 53.729,-133.579 25.659,-198.004 -5.728,-13.146 -22.995,-16.272 -33.133,-6.132 z"
   id="path6"
   style="fill:#00aad4" />

		<path
   d="M 139.613,601.295 259.988,721.67 c 14.625,14.625 14.625,38.338 0,52.963 L 139.737,894.885 c -9.221,9.221 -6.385,24.828 5.497,30.203 71.512,32.355 158.606,19.148 217.39,-39.635 55.014,-55.014 69.968,-135.395 44.888,-204.213 l 74.476,-74.475 -111.489,-111.49 -72.694,72.693 C 248.79,548.28 193.371,549.384 145.076,571.29 c -11.802,5.351 -14.624,20.845 -5.463,30.005 z"
   id="path8"
   style="fill:#0088aa" />

		<path
   d="m 81.69,629.866 c -45.177,57.037 -53.728,133.58 -25.659,198.004 5.727,13.146 22.994,16.271 33.133,6.133 l 99.869,-99.869 c 7.984,-7.984 7.984,-20.93 0,-28.914 l -76.972,-76.971 c -8.593,-8.594 -22.826,-7.909 -30.371,1.617 z"
   id="path10"
   style="fill:#00aad4" />

		<path
   d="m 138.849,461.443 c 11.956,11.956 31.339,11.956 43.295,0 l 5.772,-5.772 c 11.956,-11.955 11.956,-31.339 0,-43.294 l -11.545,-11.545 22.731,-22.73 -106.793,-106.794 -22.73,22.73 -11.545,-11.545 c -11.956,-11.955 -31.339,-11.955 -43.295,0 l -5.772,5.773 c -11.956,11.956 -11.956,31.339 0,43.294 z"
   id="path12"
   style="fill:#2b1100" />

		<path
   d="M 304.036,65.967 409.493,171.424 C 531.076,90.415 599.039,158.365 505.571,64.898 440.93,0.256 359.305,30.842 304.036,65.967 Z"
   id="path14"
   style="fill:#2b1100" />

		<path
   d="m 271.62,68.906 c -5.978,-5.978 -13.812,-8.967 -21.647,-8.967 -7.835,0 -15.67,2.989 -21.647,8.967 L 98.441,198.79 c -11.956,11.955 -11.956,31.339 0,43.295 l 11.545,11.545 106.793,106.793 11.545,11.545 c 5.978,5.978 13.812,8.967 21.647,8.967 1.894,0 3.788,-0.179 5.655,-0.528 4.374,-0.817 8.603,-2.592 12.352,-5.324 1.272,-0.929 2.491,-1.965 3.64,-3.113 l 5.462,-5.462 111.49,-111.491 8.838,-8.838 4.094,-4.093 c 1.631,-1.631 3.031,-3.405 4.218,-5.275 7.507,-11.836 6.105,-27.696 -4.218,-38.02 L 388.931,186.22 283.044,80.33 Z"
   id="path16"
   style="fill:#803300" />

	</g>

</g>
</svg>
