<?xml version="1.0" encoding="UTF-8" standalone="no"?>
<svg
   width="512"
   height="512"
   viewBox="0 0 512 512"
   fill="none"
   version="1.1"
   id="svg1566"
   sodipodi:docname="icon-cloud.svg"
   inkscape:version="1.2.2 (b0a8486541, 2022-12-01)"
   xml:space="preserve"
   xmlns:inkscape="http://www.inkscape.org/namespaces/inkscape"
   xmlns:sodipodi="http://sodipodi.sourceforge.net/DTD/sodipodi-0.dtd"
   xmlns:xlink="http://www.w3.org/1999/xlink"
   xmlns="http://www.w3.org/2000/svg"
   xmlns:svg="http://www.w3.org/2000/svg"><sodipodi:namedview
     id="namedview1568"
     pagecolor="#505050"
     bordercolor="#eeeeee"
     borderopacity="1"
     inkscape:showpageshadow="0"
     inkscape:pageopacity="0"
     inkscape:pagecheckerboard="0"
     inkscape:deskcolor="#505050"
     showgrid="true"
     inkscape:zoom="0.86869171"
     inkscape:cx="97.848292"
     inkscape:cy="345.34691"
     inkscape:window-width="1920"
     inkscape:window-height="1011"
     inkscape:window-x="0"
     inkscape:window-y="0"
     inkscape:window-maximized="1"
     inkscape:current-layer="svg1566"
     showguides="true"><inkscape:grid
       type="xygrid"
       id="grid344"
       spacingx="51.2"
       spacingy="51.2" /></sodipodi:namedview><defs
     id="defs1564"><linearGradient
       id="linearGradient3072"
       x1="48"
       y1="132"
       x2="464"
       y2="132"
       gradientUnits="userSpaceOnUse"><stop
         stop-color="#3584E4"
         id="stop3068"
         style="stop-color:#ffcb00;stop-opacity:1;"
         offset="0" /><stop
         offset="1"
         stop-color="#62A0EA"
         id="stop3070"
         style="stop-color:#ff0000;stop-opacity:1" /></linearGradient><filter
       id="filter0_f_201_13"
       x="43.8042"
       y="45.8394"
       width="424.356"
       height="424.415"
       filterUnits="userSpaceOnUse"
       color-interpolation-filters="sRGB"><feFlood
         flood-opacity="0"
         result="BackgroundImageFix"
         id="feFlood1540" /><feBlend
         mode="normal"
         in="SourceGraphic"
         in2="BackgroundImageFix"
         result="shape"
         id="feBlend1542" /><feGaussianBlur
         stdDeviation="2.08032"
         result="effect1_foregroundBlur_201_13"
         id="feGaussianBlur1544" /></filter><filter
       id="filter1_f_201_13"
       x="10.4"
       y="94.4"
       width="491.2"
       height="411.2"
       filterUnits="userSpaceOnUse"
       color-interpolation-filters="sRGB"><feFlood
         flood-opacity="0"
         result="BackgroundImageFix"
         id="feFlood1547" /><feBlend
         mode="normal"
         in="SourceGraphic"
         in2="BackgroundImageFix"
         result="shape"
         id="feBlend1549" /><feGaussianBlur
         stdDeviation="18.8"
         result="effect1_foregroundBlur_201_13"
         id="feGaussianBlur1551" /></filter><linearGradient
       id="paint0_linear_201_13"
       x1="48"
       y1="132"
       x2="464"
       y2="132"
       gradientUnits="userSpaceOnUse"><stop
         stop-color="#3584E4"
         id="stop1554" /><stop
         offset="1"
         stop-color="#62A0EA"
         id="stop1556" /></linearGradient><linearGradient
       id="paint1_linear_201_13"
       x1="152.898"
       y1="173.203"
       x2="447.309"
       y2="528"
       gradientUnits="userSpaceOnUse"><stop
         stop-color="#99C1F1"
         id="stop1559" /><stop
         offset="1"
         stop-color="#C3E5E7"
         id="stop1561" /></linearGradient><linearGradient
       id="linearGradient12124"
       x1="48"
       y1="132"
       x2="464"
       y2="132"
       gradientUnits="userSpaceOnUse"><stop
         stop-color="#3584E4"
         id="stop12120"
         style="stop-color:#ffcc00;stop-opacity:1" /><stop
         offset="1"
         stop-color="#62A0EA"
         id="stop12122"
         style="stop-color:#ff0000;stop-opacity:1" /></linearGradient><radialGradient
       inkscape:collect="always"
       xlink:href="#linearGradient12124"
       id="radialGradient2023"
       cx="149.52119"
       cy="391.74188"
       fx="149.52119"
       fy="391.74188"
       r="59.370811"
       gradientTransform="matrix(2.329427,0.02915695,-0.01624549,1.2979076,-198.80492,-129.09365)"
       gradientUnits="userSpaceOnUse" /><radialGradient
       inkscape:collect="always"
       xlink:href="#linearGradient12124"
       id="radialGradient2031"
       cx="149.52119"
       cy="391.74188"
       fx="149.52119"
       fy="391.74188"
       r="59.370811"
       gradientTransform="matrix(2.329427,0.02915695,-0.01624549,1.2979076,-198.80492,-129.09365)"
       gradientUnits="userSpaceOnUse" /><radialGradient
       inkscape:collect="always"
       xlink:href="#linearGradient12124"
       id="radialGradient2039"
       cx="149.52119"
       cy="391.74188"
       fx="149.52119"
       fy="391.74188"
       r="59.370811"
       gradientTransform="matrix(2.329427,0.02915695,-0.01624549,1.2979076,-198.80492,-129.09365)"
       gradientUnits="userSpaceOnUse" /><radialGradient
       inkscape:collect="always"
       xlink:href="#linearGradient12124"
       id="radialGradient2047"
       cx="149.52119"
       cy="391.74188"
       fx="149.52119"
       fy="391.74188"
       r="59.370811"
       gradientTransform="matrix(2.329427,0.02915695,-0.01624549,1.2979076,-198.80492,-129.09365)"
       gradientUnits="userSpaceOnUse" /><radialGradient
       inkscape:collect="always"
       xlink:href="#linearGradient12124"
       id="radialGradient2055"
       cx="149.52119"
       cy="391.74188"
       fx="149.52119"
       fy="391.74188"
       r="59.370811"
       gradientTransform="matrix(2.329427,0.02915695,-0.01624549,1.2979076,-198.80492,-129.09365)"
       gradientUnits="userSpaceOnUse" /><radialGradient
       inkscape:collect="always"
       xlink:href="#linearGradient12124"
       id="radialGradient2063"
       cx="149.52119"
       cy="391.74188"
       fx="149.52119"
       fy="391.74188"
       r="59.370811"
       gradientTransform="matrix(2.329427,0.02915695,-0.01624549,1.2979076,-198.80492,-129.09365)"
       gradientUnits="userSpaceOnUse" /><radialGradient
       inkscape:collect="always"
       xlink:href="#linearGradient12124"
       id="radialGradient2071"
       cx="149.52119"
       cy="391.74188"
       fx="149.52119"
       fy="391.74188"
       r="59.370811"
       gradientTransform="matrix(2.329427,0.02915695,-0.01624549,1.2979076,-198.80492,-129.09365)"
       gradientUnits="userSpaceOnUse" /><radialGradient
       inkscape:collect="always"
       xlink:href="#linearGradient12124"
       id="radialGradient2079"
       cx="149.52119"
       cy="391.74188"
       fx="149.52119"
       fy="391.74188"
       r="59.370811"
       gradientTransform="matrix(2.329427,0.02915695,-0.01624549,1.2979076,-198.80492,-129.09365)"
       gradientUnits="userSpaceOnUse" /><radialGradient
       inkscape:collect="always"
       xlink:href="#linearGradient12124"
       id="radialGradient2087"
       cx="149.52119"
       cy="391.74188"
       fx="149.52119"
       fy="391.74188"
       r="59.370811"
       gradientTransform="matrix(2.329427,0.02915695,-0.01624549,1.2979076,-198.80492,-129.09365)"
       gradientUnits="userSpaceOnUse" /></defs><g
     id="g13076"
     transform="translate(-4.4962307,-2.8981478)"><path
       style="fill:#32d228;fill-opacity:1;stroke-width:0.843445"
       d="m 64.653747,349.33705 c -1.113407,-2.20352 -3.936836,-9.13027 -6.274493,-15.3929 -25.706002,-68.86837 -14.235435,-146.3196 30.463107,-205.69149 7.947272,-10.55626 25.000589,-28.11843 35.581929,-36.643961 17.86079,-14.39056 41.54963,-27.892683 62.41582,-35.575762 9.96573,-3.66935 27.15443,-8.16384 38.37661,-10.034673 34.78595,-5.798965 69.94155,-2.954597 104.28443,8.43758 3.64557,1.209316 6.94444,2.492511 7.33063,2.851688 0.38639,0.359246 -0.63618,2.515784 -2.2718,4.792661 -3.17771,4.423217 -8.1283,14.281349 -8.12933,16.188306 -8.5e-4,1.359273 -0.10379,1.340191 -14.44753,-2.674942 C 247.14083,57.442272 178.8717,74.284436 129.67838,120.56847 76.284946,170.80446 56.545747,248.98525 79.707026,318.49027 c 2.037084,6.11291 5.035353,13.9964 6.662745,17.51884 l 2.958994,6.40436 -10.905796,5.46495 c -5.998304,3.00576 -11.094756,5.46497 -11.325459,5.46497 -0.23109,0 -1.33056,-1.80281 -2.443763,-4.00634 z"
       id="path15621"
       sodipodi:nodetypes="ccsssssscsccsscssc" /><path
       style="fill:#32d228;fill-opacity:1;stroke-width:0.843445"
       d="m 241.6639,473.86512 c -21.22599,-1.9741 -44.25836,-7.70252 -63.86286,-15.88322 l -6.50875,-2.71601 4.11093,-5.36355 c 2.26096,-2.94991 5.31115,-7.80169 6.7783,-10.78163 l 2.66746,-5.41837 5.83872,2.37614 c 20.54237,8.35976 46.91093,13.41736 69.95369,13.41736 63.85931,0 124.63182,-32.9138 159.62772,-86.45289 6.19571,-9.4786 15.69217,-28.60201 19.56304,-39.39458 17.36374,-48.41413 14.66147,-101.03824 -7.56163,-147.25199 -3.01708,-6.27404 -5.38732,-11.47768 -5.26729,-11.56375 0.11966,-0.0843 3.82381,-2.15647 8.23084,-4.6008 4.40695,-2.44434 9.23179,-5.1826 10.72166,-6.08495 l 2.70901,-1.6407 4.3654,8.69415 c 11.28721,22.48029 18.33531,45.52433 22.0069,71.95241 1.61833,11.64926 1.36197,42.6448 -0.45001,54.40205 -7.45815,48.39558 -26.53772,87.67285 -58.75229,120.94779 -18.03696,18.63074 -37.53331,32.83726 -60.30614,43.94401 -15.3679,7.49511 -26.02016,11.48872 -40.48527,15.17819 -24.93809,6.36075 -49.56615,8.45517 -73.37952,6.24034 z"
       id="path15623"
       sodipodi:nodetypes="sscsscssscscsscsscsssss" /><path
       style="fill:#ffbe00;fill-opacity:1;stroke-width:0.843445"
       d="m 118.72871,447.73671 c -11.50305,-2.71104 -22.136398,-12.55843 -25.956543,-24.03818 -1.528331,-4.59281 -1.796089,-6.96372 -1.514099,-13.41054 0.304991,-6.96869 0.68762,-8.53013 3.478396,-14.17639 7.229236,-14.62723 23.024416,-22.82749 38.606396,-20.0428 11.93358,2.1327 21.29708,9.21532 26.76627,20.24637 3.04821,6.14828 3.11455,6.48976 3.11455,16.02543 0,9.32704 -0.11966,9.98876 -2.80687,15.48402 -7.57191,15.48598 -25.04877,23.83377 -41.6881,19.91209 z"
       id="path15625"
       sodipodi:nodetypes="ssscssscs" /><path
       style="fill:#ff3228;fill-opacity:1;stroke-width:0.843445"
       d="m 375.9907,132.73426 c -6.84583,-1.65922 -11.23134,-4.11348 -16.74054,-9.36849 -14.8907,-14.20315 -15.03019,-37.587289 -0.31154,-52.154072 7.64367,-7.564734 17.70295,-11.135276 28.97023,-10.283167 12.50063,0.945456 24.09612,9.274437 29.86428,21.451644 2.5289,5.338668 2.7003,6.289086 2.7003,14.978269 0,8.701116 -0.16928,9.634546 -2.71732,15.014636 -4.97025,10.49338 -14.91277,18.35842 -26.21214,20.73502 -5.66694,1.19191 -9.47075,1.1005 -15.55363,-0.37328 z"
       id="path15627"
       sodipodi:nodetypes="ccsssscscc" /><path
       style="fill:#00a5de;fill-opacity:1;stroke-width:0.843445"
       d="m 179.67085,334.36235 c -25.12362,-5.17906 -44.84897,-23.93489 -51.55272,-49.01895 -3.4943,-13.07513 -2.26656,-29.84826 3.12196,-42.6508 4.92168,-11.69331 15.41647,-24.00609 26.18052,-30.71581 6.88485,-4.29167 17.5413,-8.41915 23.92208,-9.26556 2.40682,-0.31902 4.49487,-1.00179 4.64028,-1.51661 0.14504,-0.51458 0.87005,-3.59303 1.60971,-6.84025 6.89085,-30.24008 38.24769,-51.17043 68.46869,-45.70208 22.40078,4.05328 40.88166,19.97485 47.48997,40.91344 l 1.8263,5.78661 5.25165,1.46013 c 14.31633,3.98023 25.81014,14.21707 31.38642,27.95357 l 2.03493,5.01298 4.86967,0.62496 c 11.09212,1.42439 21.97807,6.79073 30.23596,14.90491 28.48882,27.99363 17.45215,74.98193 -20.67552,88.02462 l -5.48235,1.87541 -83.9226,0.14119 c -67.2868,0.11331 -85.00933,-0.0841 -89.40495,-0.9886 z"
       id="path15629"
       sodipodi:nodetypes="cssscccsscsscccscscc" /></g></svg>
