<?xml version="1.0" encoding="UTF-8" standalone="no"?>
<svg
   width="512"
   height="512"
   viewBox="0 0 512 512"
   fill="none"
   version="1.1"
   id="svg1566"
   sodipodi:docname="icon-galery-2-color.svg"
   inkscape:version="1.2.2 (b0a8486541, 2022-12-01)"
   xml:space="preserve"
   xmlns:inkscape="http://www.inkscape.org/namespaces/inkscape"
   xmlns:sodipodi="http://sodipodi.sourceforge.net/DTD/sodipodi-0.dtd"
   xmlns="http://www.w3.org/2000/svg"
   xmlns:svg="http://www.w3.org/2000/svg"><sodipodi:namedview
     id="namedview1568"
     pagecolor="#505050"
     bordercolor="#eeeeee"
     borderopacity="1"
     inkscape:showpageshadow="0"
     inkscape:pageopacity="0"
     inkscape:pagecheckerboard="0"
     inkscape:deskcolor="#505050"
     showgrid="true"
     inkscape:zoom="0.6142578"
     inkscape:cx="32.559619"
     inkscape:cy="249.08109"
     inkscape:window-width="1920"
     inkscape:window-height="1011"
     inkscape:window-x="0"
     inkscape:window-y="0"
     inkscape:window-maximized="1"
     inkscape:current-layer="svg1566"
     showguides="true"><inkscape:grid
       type="xygrid"
       id="grid344"
       spacingx="51.2"
       spacingy="51.2" /></sodipodi:namedview><defs
     id="defs1564"><filter
       id="filter0_f_201_13"
       x="43.8042"
       y="45.8394"
       width="424.356"
       height="424.415"
       filterUnits="userSpaceOnUse"
       color-interpolation-filters="sRGB"><feFlood
         flood-opacity="0"
         result="BackgroundImageFix"
         id="feFlood1540" /><feBlend
         mode="normal"
         in="SourceGraphic"
         in2="BackgroundImageFix"
         result="shape"
         id="feBlend1542" /><feGaussianBlur
         stdDeviation="2.08032"
         result="effect1_foregroundBlur_201_13"
         id="feGaussianBlur1544" /></filter><filter
       id="filter1_f_201_13"
       x="10.4"
       y="94.4"
       width="491.2"
       height="411.2"
       filterUnits="userSpaceOnUse"
       color-interpolation-filters="sRGB"><feFlood
         flood-opacity="0"
         result="BackgroundImageFix"
         id="feFlood1547" /><feBlend
         mode="normal"
         in="SourceGraphic"
         in2="BackgroundImageFix"
         result="shape"
         id="feBlend1549" /><feGaussianBlur
         stdDeviation="18.8"
         result="effect1_foregroundBlur_201_13"
         id="feGaussianBlur1551" /></filter><linearGradient
       id="paint0_linear_201_13"
       x1="48"
       y1="132"
       x2="464"
       y2="132"
       gradientUnits="userSpaceOnUse"><stop
         stop-color="#3584E4"
         id="stop1554" /><stop
         offset="1"
         stop-color="#62A0EA"
         id="stop1556" /></linearGradient><linearGradient
       id="paint1_linear_201_13"
       x1="152.898"
       y1="173.203"
       x2="447.309"
       y2="528"
       gradientUnits="userSpaceOnUse"><stop
         stop-color="#99C1F1"
         id="stop1559" /><stop
         offset="1"
         stop-color="#C3E5E7"
         id="stop1561" /></linearGradient></defs><rect
     style="fill:#64b5f6;fill-opacity:1;stroke:none;stroke-width:0.641293;stroke-dasharray:none"
     id="rect16976"
     width="278.54654"
     height="286.38791"
     x="220.58148"
     y="27.039181"
     ry="3.6274407"
     transform="matrix(0.93711055,0.34903269,-0.32747289,0.94486058,0,0)" /><rect
     style="fill:#1e88e5;fill-opacity:1;stroke:none;stroke-width:0.479361;stroke-dasharray:none"
     id="rect16978"
     width="218.40483"
     height="204.08173"
     x="250.6523"
     y="57.956524"
     ry="2.5849357"
     transform="matrix(0.93711055,0.34903269,-0.32747289,0.94486058,0,0)" /><rect
     style="fill:#90caf9;fill-opacity:1;stroke:none;stroke-width:0.641231;stroke-dasharray:none"
     id="rect15868"
     width="277.65149"
     height="287.25574"
     x="150.52037"
     y="49.792229"
     ry="3.6384327"
     transform="matrix(0.97869596,0.20531492,-0.19374596,0.98105173,0,0)" /><rect
     style="fill:#42a5f5;fill-opacity:1;stroke:none;stroke-width:0.479315;stroke-dasharray:none"
     id="rect15870"
     width="217.70305"
     height="204.70013"
     x="180.49471"
     y="80.803261"
     ry="2.5927687"
     transform="matrix(0.97869596,0.20531492,-0.19374596,0.98105173,0,0)" /><rect
     style="fill:#bbdefb;fill-opacity:1;stroke:none;stroke-width:0.641208;stroke-dasharray:none"
     id="rect15312"
     width="277.36542"
     height="287.53198"
     x="64.709892"
     y="65.759148"
     ry="3.6419315" /><rect
     style="fill:#4caf50;fill-opacity:1;stroke:none;stroke-width:0.479298;stroke-dasharray:none"
     id="rect15728"
     width="217.47873"
     height="204.89699"
     x="94.653343"
     y="96.800034"
     ry="2.5952618" /><path
     id="circle18414"
     style="fill:#ffffff;fill-opacity:1;stroke:none;stroke-width:0.731915;stroke-dasharray:none"
     inkscape:transform-center-x="-0.33286964"
     inkscape:transform-center-y="-6.9542927"
     d="m 204.06693,135.57751 c -10.71226,-7.3e-4 -19.39646,9.00178 -19.39576,20.1067 0.0141,0.23819 0.0329,0.47614 0.055,0.71367 -5e-5,0.0224 -5e-5,0.0443 0,0.0666 l 4.75862,19.18121 -12.30397,-16.61196 c -0.0329,-0.0195 -0.0686,-0.0283 -0.10105,-0.0477 -0.15744,-0.11664 -0.31676,-0.23084 -0.47731,-0.34255 -9.27694,-5.55756 -21.14351,-2.26381 -26.5005,7.35564 -5.35954,9.6195 -2.17793,21.9218 7.10475,27.47186 0.20632,0.10534 0.41452,0.20687 0.62418,0.30451 0.0188,0.01 0.0376,0.019 0.055,0.0287 l 19.52697,3.59987 -21.16089,4.45994 c -0.0329,0.02 -0.0503,0.0473 -0.0827,0.0666 -0.17859,0.0829 -0.35624,0.16852 -0.53239,0.2569 -9.27934,5.55334 -12.45662,17.85487 -7.09554,27.47186 5.35672,9.61375 17.21642,12.90674 26.49134,7.35565 0.19175,-0.12975 0.38162,-0.26295 0.5691,-0.39966 0.0188,-0.0127 0.0376,-0.0253 0.055,-0.038 l 12.92078,-15.41207 -7.00018,20.90264 c -0.0141,0.0365 0.009,0.0756 0.009,0.1142 -0.0188,0.19956 -0.0329,0.39946 -0.047,0.59949 -7e-4,11.10492 8.6835,20.10742 19.39575,20.1067 10.7123,7.5e-4 19.39651,-9.00176 19.3958,-20.1067 -0.0141,-0.23819 -0.0329,-0.47614 -0.055,-0.71367 v -0.01 -0.01 -0.01 -0.01 -0.01 -0.01 -0.01 l -4.73809,-19.1512 12.28344,16.58195 c 0.0329,0.0195 0.0686,0.0375 0.10105,0.0571 0.15744,0.11347 0.31676,0.22451 0.47731,0.33306 9.27698,5.55759 21.1436,2.26383 26.50055,-7.35565 5.35328,-9.61738 2.17237,-21.91254 -7.10475,-27.46234 -0.20632,-0.1085 -0.41452,-0.2132 -0.62418,-0.31401 -0.0188,-0.01 -0.0376,-0.019 -0.055,-0.0287 l -19.01427,-4.12852 20.64815,-3.93129 c 0.0329,-0.02 0.0592,-0.0473 0.0916,-0.0666 0.17578,-0.0829 0.35014,-0.16858 0.52323,-0.25691 9.27934,-5.55331 12.45662,-17.85485 7.09559,-27.47186 -5.35672,-9.61374 -17.21642,-12.90673 -26.49134,-7.35564 -0.19222,0.13286 -0.38162,0.26928 -0.56915,0.40915 -0.0188,0.009 -0.0376,0.019 -0.055,0.0288 l -12.59767,13.9917 6.67703,-19.48227 c 0.0141,-0.036 -0.009,-0.0756 -0.009,-0.1142 0.0188,-0.19956 0.0329,-0.39946 0.047,-0.59949 7.1e-4,-11.10492 -8.6835,-20.10742 -19.39575,-20.1067 z m -3.85528,59.54932 h 4.58045 l 2.2856,4.10128 -2.2856,4.11079 h -4.58045 l -2.28564,-4.11079 z"
     sodipodi:nodetypes="cccccccccccccccccccccscccccccccccccccccccccccccccccscccccccccc" /><ellipse
     style="fill:#ffc107;fill-opacity:1;stroke:none;stroke-width:0.773737;stroke-dasharray:none"
     id="path17791"
     cx="203.71867"
     cy="198.54364"
     rx="20.502693"
     ry="21.254198" /></svg>
