<?xml version="1.0" encoding="UTF-8" standalone="no"?>
<svg
   width="512"
   height="512"
   viewBox="0 0 512 512"
   fill="none"
   version="1.1"
   id="svg1566"
   sodipodi:docname="icon-install.svg"
   inkscape:version="1.2.2 (b0a8486541, 2022-12-01)"
   xml:space="preserve"
   xmlns:inkscape="http://www.inkscape.org/namespaces/inkscape"
   xmlns:sodipodi="http://sodipodi.sourceforge.net/DTD/sodipodi-0.dtd"
   xmlns:xlink="http://www.w3.org/1999/xlink"
   xmlns="http://www.w3.org/2000/svg"
   xmlns:svg="http://www.w3.org/2000/svg"><sodipodi:namedview
     id="namedview1568"
     pagecolor="#505050"
     bordercolor="#eeeeee"
     borderopacity="1"
     inkscape:showpageshadow="0"
     inkscape:pageopacity="0"
     inkscape:pagecheckerboard="0"
     inkscape:deskcolor="#505050"
     showgrid="true"
     inkscape:zoom="0.86869171"
     inkscape:cx="97.848292"
     inkscape:cy="345.34691"
     inkscape:window-width="1920"
     inkscape:window-height="1011"
     inkscape:window-x="0"
     inkscape:window-y="0"
     inkscape:window-maximized="1"
     inkscape:current-layer="svg1566"
     showguides="true"><inkscape:grid
       type="xygrid"
       id="grid344"
       spacingx="51.2"
       spacingy="51.2" /></sodipodi:namedview><defs
     id="defs1564"><linearGradient
       inkscape:collect="always"
       id="linearGradient3086"><stop
         style="stop-color:#ffc800;stop-opacity:1;"
         offset="0.0569682"
         id="stop3082" /><stop
         style="stop-color:#ff4300;stop-opacity:1;"
         offset="0.92951447"
         id="stop3084" /></linearGradient><linearGradient
       id="linearGradient3072"
       x1="48"
       y1="132"
       x2="464"
       y2="132"
       gradientUnits="userSpaceOnUse"><stop
         stop-color="#3584E4"
         id="stop3068"
         style="stop-color:#ffcb00;stop-opacity:1;"
         offset="0" /><stop
         offset="1"
         stop-color="#62A0EA"
         id="stop3070"
         style="stop-color:#ff0000;stop-opacity:1" /></linearGradient><linearGradient
       inkscape:collect="always"
       id="linearGradient3064"><stop
         style="stop-color:#48df00;stop-opacity:1;"
         offset="0.05625742"
         id="stop3060" /><stop
         style="stop-color:#ffc800;stop-opacity:1;"
         offset="0.94086236"
         id="stop3062" /></linearGradient><filter
       id="filter0_f_201_13"
       x="43.8042"
       y="45.8394"
       width="424.356"
       height="424.415"
       filterUnits="userSpaceOnUse"
       color-interpolation-filters="sRGB"><feFlood
         flood-opacity="0"
         result="BackgroundImageFix"
         id="feFlood1540" /><feBlend
         mode="normal"
         in="SourceGraphic"
         in2="BackgroundImageFix"
         result="shape"
         id="feBlend1542" /><feGaussianBlur
         stdDeviation="2.08032"
         result="effect1_foregroundBlur_201_13"
         id="feGaussianBlur1544" /></filter><filter
       id="filter1_f_201_13"
       x="10.4"
       y="94.4"
       width="491.2"
       height="411.2"
       filterUnits="userSpaceOnUse"
       color-interpolation-filters="sRGB"><feFlood
         flood-opacity="0"
         result="BackgroundImageFix"
         id="feFlood1547" /><feBlend
         mode="normal"
         in="SourceGraphic"
         in2="BackgroundImageFix"
         result="shape"
         id="feBlend1549" /><feGaussianBlur
         stdDeviation="18.8"
         result="effect1_foregroundBlur_201_13"
         id="feGaussianBlur1551" /></filter><linearGradient
       id="paint0_linear_201_13"
       x1="48"
       y1="132"
       x2="464"
       y2="132"
       gradientUnits="userSpaceOnUse"><stop
         stop-color="#3584E4"
         id="stop1554" /><stop
         offset="1"
         stop-color="#62A0EA"
         id="stop1556" /></linearGradient><linearGradient
       id="paint1_linear_201_13"
       x1="152.898"
       y1="173.203"
       x2="447.309"
       y2="528"
       gradientUnits="userSpaceOnUse"><stop
         stop-color="#99C1F1"
         id="stop1559" /><stop
         offset="1"
         stop-color="#C3E5E7"
         id="stop1561" /></linearGradient><linearGradient
       id="linearGradient12124"
       x1="48"
       y1="132"
       x2="464"
       y2="132"
       gradientUnits="userSpaceOnUse"><stop
         stop-color="#3584E4"
         id="stop12120"
         style="stop-color:#ffcc00;stop-opacity:1" /><stop
         offset="1"
         stop-color="#62A0EA"
         id="stop12122"
         style="stop-color:#ff0000;stop-opacity:1" /></linearGradient><radialGradient
       inkscape:collect="always"
       xlink:href="#linearGradient12124"
       id="radialGradient2023"
       cx="149.52119"
       cy="391.74188"
       fx="149.52119"
       fy="391.74188"
       r="59.370811"
       gradientTransform="matrix(2.329427,0.02915695,-0.01624549,1.2979076,-198.80492,-129.09365)"
       gradientUnits="userSpaceOnUse" /><radialGradient
       inkscape:collect="always"
       xlink:href="#linearGradient12124"
       id="radialGradient2031"
       cx="149.52119"
       cy="391.74188"
       fx="149.52119"
       fy="391.74188"
       r="59.370811"
       gradientTransform="matrix(2.329427,0.02915695,-0.01624549,1.2979076,-198.80492,-129.09365)"
       gradientUnits="userSpaceOnUse" /><radialGradient
       inkscape:collect="always"
       xlink:href="#linearGradient12124"
       id="radialGradient2039"
       cx="149.52119"
       cy="391.74188"
       fx="149.52119"
       fy="391.74188"
       r="59.370811"
       gradientTransform="matrix(2.329427,0.02915695,-0.01624549,1.2979076,-198.80492,-129.09365)"
       gradientUnits="userSpaceOnUse" /><radialGradient
       inkscape:collect="always"
       xlink:href="#linearGradient12124"
       id="radialGradient2047"
       cx="149.52119"
       cy="391.74188"
       fx="149.52119"
       fy="391.74188"
       r="59.370811"
       gradientTransform="matrix(2.329427,0.02915695,-0.01624549,1.2979076,-198.80492,-129.09365)"
       gradientUnits="userSpaceOnUse" /><radialGradient
       inkscape:collect="always"
       xlink:href="#linearGradient12124"
       id="radialGradient2055"
       cx="149.52119"
       cy="391.74188"
       fx="149.52119"
       fy="391.74188"
       r="59.370811"
       gradientTransform="matrix(2.329427,0.02915695,-0.01624549,1.2979076,-198.80492,-129.09365)"
       gradientUnits="userSpaceOnUse" /><radialGradient
       inkscape:collect="always"
       xlink:href="#linearGradient12124"
       id="radialGradient2063"
       cx="149.52119"
       cy="391.74188"
       fx="149.52119"
       fy="391.74188"
       r="59.370811"
       gradientTransform="matrix(2.329427,0.02915695,-0.01624549,1.2979076,-198.80492,-129.09365)"
       gradientUnits="userSpaceOnUse" /><radialGradient
       inkscape:collect="always"
       xlink:href="#linearGradient12124"
       id="radialGradient2071"
       cx="149.52119"
       cy="391.74188"
       fx="149.52119"
       fy="391.74188"
       r="59.370811"
       gradientTransform="matrix(2.329427,0.02915695,-0.01624549,1.2979076,-198.80492,-129.09365)"
       gradientUnits="userSpaceOnUse" /><radialGradient
       inkscape:collect="always"
       xlink:href="#linearGradient12124"
       id="radialGradient2079"
       cx="149.52119"
       cy="391.74188"
       fx="149.52119"
       fy="391.74188"
       r="59.370811"
       gradientTransform="matrix(2.329427,0.02915695,-0.01624549,1.2979076,-198.80492,-129.09365)"
       gradientUnits="userSpaceOnUse" /><radialGradient
       inkscape:collect="always"
       xlink:href="#linearGradient12124"
       id="radialGradient2087"
       cx="149.52119"
       cy="391.74188"
       fx="149.52119"
       fy="391.74188"
       r="59.370811"
       gradientTransform="matrix(2.329427,0.02915695,-0.01624549,1.2979076,-198.80492,-129.09365)"
       gradientUnits="userSpaceOnUse" /><linearGradient
       inkscape:collect="always"
       xlink:href="#linearGradient3064"
       id="linearGradient3066"
       x1="39.242336"
       y1="428.26992"
       x2="188.69778"
       y2="428.26992"
       gradientUnits="userSpaceOnUse" /><linearGradient
       inkscape:collect="always"
       xlink:href="#linearGradient3086"
       id="linearGradient3088"
       x1="192.94623"
       y1="428.26992"
       x2="342.40167"
       y2="428.26992"
       gradientUnits="userSpaceOnUse" /></defs><g
     id="g10991"
     transform="matrix(4.585601,0,0,4.585601,-352.51199,-729.15621)"><path
       d="m 115.30527,199.4227 c -5.17898,0 -9.3775,4.19851 -9.3775,9.37799 0,5.17898 4.19852,9.37749 9.3775,9.37749 5.17948,0 9.37799,-4.19851 9.37799,-9.37749 0,-5.17948 -4.19851,-9.37799 -9.37799,-9.37799 m 5.14071,-11.43943 c 1.8667,0.49527 3.63338,1.23505 5.26418,2.18251 l 4.46983,-2.81846 6.18148,6.18149 -2.81847,4.46935 c 0.94795,1.63127 1.68726,3.39843 2.183,5.26464 l 5.15076,1.16663 -4.8e-4,8.74203 -5.14981,1.16663 c -0.49573,1.86717 -1.23552,3.63386 -2.18347,5.26513 l 2.81847,4.46934 -6.18148,6.18149 -4.46983,-2.81847 c -1.63127,0.94746 -3.39748,1.68678 -5.26418,2.18204 l -1.16709,5.15172 -8.74204,-4.8e-4 -1.16662,-5.15027 c -1.8667,-0.49576 -3.63386,-1.23555 -5.26465,-2.18348 l -4.469825,2.81894 -6.181006,-6.18196 2.818465,-4.46936 c -0.946989,-1.63127 -1.686771,-3.39794 -2.182043,-5.26464 l -5.152198,-1.1671 4.88e-4,-8.74156 5.15076,-1.16663 c 0.495259,-1.86621 1.235529,-3.63385 2.182993,-5.26512 l -2.818465,-4.46935 6.181481,-6.18101 4.46984,2.81846 c 1.63078,-0.94793 3.39793,-1.68724 5.26416,-2.18251 l 1.1671,-5.15124 h 8.74204 z"
       style="fill:#f6c900;fill-opacity:1;fill-rule:evenodd;stroke:none;stroke-width:0.478518"
       id="path8624-3" /><path
       d="m 148.51694,219.65046 c -2.72045,0.96719 -4.14182,3.95671 -3.17453,6.67743 0.96719,2.72046 3.95671,4.1418 6.67717,3.17462 2.72073,-0.96728 4.14206,-3.9568 3.17488,-6.67725 -0.96729,-2.72073 -3.95679,-4.14207 -6.67752,-3.1748 m 0.56401,-6.96904 c 1.07306,-0.0884 2.13922,-0.0298 3.1728,0.16335 l 1.8216,-2.31525 4.40147,2.09266 -0.64584,2.87404 c 0.80259,0.67987 1.52096,1.47007 2.12989,2.35778 l 2.9235,-0.3491 1.63235,4.59218 -2.48726,1.57456 c 0.0883,1.07339 0.0296,2.13957 -0.16368,3.17349 l 2.31517,1.82134 -2.09266,4.40146 -2.8743,-0.64575 c -0.67994,0.80233 -1.46964,1.52053 -2.35772,2.12929 l 0.34905,2.92411 -4.59218,1.63234 -1.57465,-2.48751 c -1.07314,0.0882 -2.13957,0.0296 -3.17322,-0.16377 l -1.82152,2.3155 -4.40131,-2.09299 0.64585,-2.87406 c -0.80209,-0.68003 -1.52062,-1.46989 -2.12939,-2.35795 l -2.92435,0.34912 -1.63225,-4.59193 2.48777,-1.57474 c -0.0883,-1.07278 -0.0296,-2.13955 0.16342,-3.17339 l -2.31517,-1.82134 2.09274,-4.40121 2.87432,0.64574 c 0.67959,-0.80248 1.4698,-1.52086 2.35761,-2.12955 l -0.34894,-2.92384 4.59208,-1.63259 z"
       style="fill:#75d900;fill-opacity:1;fill-rule:evenodd;stroke:none;stroke-width:0.266773"
       id="path10439" /><path
       d="m 166.56745,206.71134 c -1.6786,-0.0843 -3.10776,1.20819 -3.19207,2.88696 -0.0843,1.6786 1.2082,3.10776 2.8868,3.19205 1.67877,0.0843 3.10792,-1.20818 3.19222,-2.88678 0.0843,-1.67877 -1.20818,-3.10792 -2.88695,-3.19223 m 1.8524,-3.62406 c 0.59698,0.1909 1.15757,0.45939 1.67069,0.79309 l 1.49462,-0.84076 1.90293,2.10414 -0.98626,1.40272 c 0.28069,0.54417 0.49155,1.12897 0.62186,1.74191 l 1.65047,0.46196 -0.14245,2.83345 -1.68814,0.29431 c -0.19106,0.59711 -0.45964,1.15768 -0.79342,1.67098 l 0.84078,1.49447 -2.10415,1.90292 -1.40288,-0.98627 c -0.54414,0.28054 -1.12864,0.49143 -1.74174,0.62155 l -0.46212,1.65079 -2.83345,-0.14245 -0.2943,-1.68829 c -0.59699,-0.19101 -1.15768,-0.45964 -1.67084,-0.79336 l -1.49464,0.84092 -1.90277,-2.1043 0.98627,-1.40272 c -0.28039,-0.54414 -0.49141,-1.1288 -0.62155,-1.74189 l -1.65094,-0.46214 0.14245,-2.8333 1.68845,-0.29428 c 0.19093,-0.5968 0.45964,-1.15767 0.79321,-1.67101 l -0.84077,-1.49447 2.10414,-1.90277 1.40289,0.98627 c 0.54399,-0.2807 1.1288,-0.49156 1.74174,-0.62171 l 0.46212,-1.65062 2.83345,0.1423 z"
       style="fill:#ff6000;fill-opacity:1;fill-rule:evenodd;stroke:none;stroke-width:0.155292"
       id="path10441" /></g><path
     style="color:#000000;opacity:0.3;fill:#ffffff;stroke-width:3.11004;-inkscape-stroke:none"
     d="M 42.929513,404.22115 H 461.84294 c 5.47851,0 9.88901,4.41047 9.88901,9.889 v 29.53762 c 0,5.47847 -4.4105,9.889 -9.88901,9.889 H 42.929513 c -5.478512,0 -9.889002,-4.41053 -9.889002,-9.889 v -29.53762 c 0,-5.47853 4.41049,-9.889 9.889002,-9.889 z"
     id="path12128" /><g
     id="g3080"
     style="fill-opacity:1;fill:url(#linearGradient3088)"><rect
       style="fill:url(#linearGradient3088);fill-opacity:1;stroke-width:10.9195"
       id="rect10497"
       width="21.368864"
       height="37.388111"
       x="321.03281"
       y="409.57587"
       ry="5.4366779" /><rect
       style="fill:url(#linearGradient3088);fill-opacity:1;stroke-width:10.9195"
       id="rect10499"
       width="21.368864"
       height="37.388111"
       x="295.4155"
       y="409.57587"
       ry="5.4366779" /><rect
       style="fill:url(#linearGradient3088);fill-opacity:1;stroke-width:10.9195"
       id="rect10501"
       width="21.368864"
       height="37.388111"
       x="269.79819"
       y="409.57587"
       ry="5.4366779" /><rect
       style="fill:url(#linearGradient3088);fill-opacity:1;stroke-width:10.9195"
       id="rect10503"
       width="21.368864"
       height="37.388111"
       x="244.18086"
       y="409.57587"
       ry="5.4366779" /><rect
       style="fill:url(#linearGradient3088);fill-opacity:1;stroke-width:10.9195"
       id="rect10505"
       width="21.368864"
       height="37.388111"
       x="218.56354"
       y="409.57587"
       ry="5.4366779" /><rect
       style="fill:url(#linearGradient3088);fill-opacity:1;stroke-width:10.9195"
       id="rect10507"
       width="21.368864"
       height="37.388111"
       x="192.94623"
       y="409.57587"
       ry="5.4366779" /></g><g
     id="g3058"
     style="fill-opacity:1;fill:url(#linearGradient3066)"><rect
       style="fill:url(#linearGradient3066);fill-opacity:1;stroke-width:10.9195"
       id="rect10495"
       width="21.368864"
       height="37.388111"
       x="116.09428"
       y="409.57587"
       ry="5.4366779" /><rect
       style="fill:url(#linearGradient3066);fill-opacity:1;stroke-width:10.9195"
       id="rect10509"
       width="21.368864"
       height="37.388111"
       x="167.32892"
       y="409.57587"
       ry="5.4366779" /><rect
       style="fill:url(#linearGradient3066);fill-opacity:1;stroke-width:10.9195"
       id="rect10511"
       width="21.368864"
       height="37.388111"
       x="141.71159"
       y="409.57587"
       ry="5.4366779" /><rect
       style="fill:url(#linearGradient3066);fill-opacity:1;stroke-width:10.9195"
       id="rect2393"
       width="21.368864"
       height="37.388111"
       x="39.242336"
       y="409.57587"
       ry="5.4366779" /><rect
       style="fill:url(#linearGradient3066);fill-opacity:1;stroke-width:10.9195"
       id="rect2395"
       width="21.368864"
       height="37.388111"
       x="64.859657"
       y="409.57587"
       ry="5.4366779" /><rect
       style="fill:url(#linearGradient3066);fill-opacity:1;stroke-width:10.9195"
       id="rect2397"
       width="21.368864"
       height="37.388111"
       x="90.476974"
       y="409.57587"
       ry="5.4366779" /></g></svg>
