<?xml version="1.0" encoding="UTF-8" standalone="no"?>
<svg
   width="512"
   height="512"
   viewBox="0 0 512 512"
   fill="none"
   version="1.1"
   id="svg1566"
   sodipodi:docname="icon-work.svg"
   inkscape:version="1.2.2 (b0a8486541, 2022-12-01)"
   xml:space="preserve"
   xmlns:inkscape="http://www.inkscape.org/namespaces/inkscape"
   xmlns:sodipodi="http://sodipodi.sourceforge.net/DTD/sodipodi-0.dtd"
   xmlns:xlink="http://www.w3.org/1999/xlink"
   xmlns="http://www.w3.org/2000/svg"
   xmlns:svg="http://www.w3.org/2000/svg"><sodipodi:namedview
     id="namedview1568"
     pagecolor="#505050"
     bordercolor="#eeeeee"
     borderopacity="1"
     inkscape:showpageshadow="0"
     inkscape:pageopacity="0"
     inkscape:pagecheckerboard="0"
     inkscape:deskcolor="#505050"
     showgrid="true"
     inkscape:zoom="0.86869171"
     inkscape:cx="97.848292"
     inkscape:cy="345.34691"
     inkscape:window-width="1920"
     inkscape:window-height="1011"
     inkscape:window-x="0"
     inkscape:window-y="0"
     inkscape:window-maximized="1"
     inkscape:current-layer="svg1566"
     showguides="true"><inkscape:grid
       type="xygrid"
       id="grid344"
       spacingx="51.2"
       spacingy="51.2" /></sodipodi:namedview><defs
     id="defs1564"><linearGradient
       id="linearGradient3072"
       x1="48"
       y1="132"
       x2="464"
       y2="132"
       gradientUnits="userSpaceOnUse"><stop
         stop-color="#3584E4"
         id="stop3068"
         style="stop-color:#ffcb00;stop-opacity:1;"
         offset="0" /><stop
         offset="1"
         stop-color="#62A0EA"
         id="stop3070"
         style="stop-color:#ff0000;stop-opacity:1" /></linearGradient><filter
       id="filter0_f_201_13"
       x="43.8042"
       y="45.8394"
       width="424.356"
       height="424.415"
       filterUnits="userSpaceOnUse"
       color-interpolation-filters="sRGB"><feFlood
         flood-opacity="0"
         result="BackgroundImageFix"
         id="feFlood1540" /><feBlend
         mode="normal"
         in="SourceGraphic"
         in2="BackgroundImageFix"
         result="shape"
         id="feBlend1542" /><feGaussianBlur
         stdDeviation="2.08032"
         result="effect1_foregroundBlur_201_13"
         id="feGaussianBlur1544" /></filter><filter
       id="filter1_f_201_13"
       x="10.4"
       y="94.4"
       width="491.2"
       height="411.2"
       filterUnits="userSpaceOnUse"
       color-interpolation-filters="sRGB"><feFlood
         flood-opacity="0"
         result="BackgroundImageFix"
         id="feFlood1547" /><feBlend
         mode="normal"
         in="SourceGraphic"
         in2="BackgroundImageFix"
         result="shape"
         id="feBlend1549" /><feGaussianBlur
         stdDeviation="18.8"
         result="effect1_foregroundBlur_201_13"
         id="feGaussianBlur1551" /></filter><linearGradient
       id="paint0_linear_201_13"
       x1="48"
       y1="132"
       x2="464"
       y2="132"
       gradientUnits="userSpaceOnUse"><stop
         stop-color="#3584E4"
         id="stop1554" /><stop
         offset="1"
         stop-color="#62A0EA"
         id="stop1556" /></linearGradient><linearGradient
       id="paint1_linear_201_13"
       x1="152.898"
       y1="173.203"
       x2="447.309"
       y2="528"
       gradientUnits="userSpaceOnUse"><stop
         stop-color="#99C1F1"
         id="stop1559" /><stop
         offset="1"
         stop-color="#C3E5E7"
         id="stop1561" /></linearGradient><linearGradient
       id="linearGradient12124"
       x1="48"
       y1="132"
       x2="464"
       y2="132"
       gradientUnits="userSpaceOnUse"><stop
         stop-color="#3584E4"
         id="stop12120"
         style="stop-color:#ffcc00;stop-opacity:1" /><stop
         offset="1"
         stop-color="#62A0EA"
         id="stop12122"
         style="stop-color:#ff0000;stop-opacity:1" /></linearGradient><radialGradient
       inkscape:collect="always"
       xlink:href="#linearGradient12124"
       id="radialGradient2023"
       cx="149.52119"
       cy="391.74188"
       fx="149.52119"
       fy="391.74188"
       r="59.370811"
       gradientTransform="matrix(2.329427,0.02915695,-0.01624549,1.2979076,-198.80492,-129.09365)"
       gradientUnits="userSpaceOnUse" /><radialGradient
       inkscape:collect="always"
       xlink:href="#linearGradient12124"
       id="radialGradient2031"
       cx="149.52119"
       cy="391.74188"
       fx="149.52119"
       fy="391.74188"
       r="59.370811"
       gradientTransform="matrix(2.329427,0.02915695,-0.01624549,1.2979076,-198.80492,-129.09365)"
       gradientUnits="userSpaceOnUse" /><radialGradient
       inkscape:collect="always"
       xlink:href="#linearGradient12124"
       id="radialGradient2039"
       cx="149.52119"
       cy="391.74188"
       fx="149.52119"
       fy="391.74188"
       r="59.370811"
       gradientTransform="matrix(2.329427,0.02915695,-0.01624549,1.2979076,-198.80492,-129.09365)"
       gradientUnits="userSpaceOnUse" /><radialGradient
       inkscape:collect="always"
       xlink:href="#linearGradient12124"
       id="radialGradient2047"
       cx="149.52119"
       cy="391.74188"
       fx="149.52119"
       fy="391.74188"
       r="59.370811"
       gradientTransform="matrix(2.329427,0.02915695,-0.01624549,1.2979076,-198.80492,-129.09365)"
       gradientUnits="userSpaceOnUse" /><radialGradient
       inkscape:collect="always"
       xlink:href="#linearGradient12124"
       id="radialGradient2055"
       cx="149.52119"
       cy="391.74188"
       fx="149.52119"
       fy="391.74188"
       r="59.370811"
       gradientTransform="matrix(2.329427,0.02915695,-0.01624549,1.2979076,-198.80492,-129.09365)"
       gradientUnits="userSpaceOnUse" /><radialGradient
       inkscape:collect="always"
       xlink:href="#linearGradient12124"
       id="radialGradient2063"
       cx="149.52119"
       cy="391.74188"
       fx="149.52119"
       fy="391.74188"
       r="59.370811"
       gradientTransform="matrix(2.329427,0.02915695,-0.01624549,1.2979076,-198.80492,-129.09365)"
       gradientUnits="userSpaceOnUse" /><radialGradient
       inkscape:collect="always"
       xlink:href="#linearGradient12124"
       id="radialGradient2071"
       cx="149.52119"
       cy="391.74188"
       fx="149.52119"
       fy="391.74188"
       r="59.370811"
       gradientTransform="matrix(2.329427,0.02915695,-0.01624549,1.2979076,-198.80492,-129.09365)"
       gradientUnits="userSpaceOnUse" /><radialGradient
       inkscape:collect="always"
       xlink:href="#linearGradient12124"
       id="radialGradient2079"
       cx="149.52119"
       cy="391.74188"
       fx="149.52119"
       fy="391.74188"
       r="59.370811"
       gradientTransform="matrix(2.329427,0.02915695,-0.01624549,1.2979076,-198.80492,-129.09365)"
       gradientUnits="userSpaceOnUse" /><radialGradient
       inkscape:collect="always"
       xlink:href="#linearGradient12124"
       id="radialGradient2087"
       cx="149.52119"
       cy="391.74188"
       fx="149.52119"
       fy="391.74188"
       r="59.370811"
       gradientTransform="matrix(2.329427,0.02915695,-0.01624549,1.2979076,-198.80492,-129.09365)"
       gradientUnits="userSpaceOnUse" /></defs><g
     id="g20"
     transform="matrix(0.43319312,0,0,0.43319312,48.067898,48.067721)"><g
       id="g18"><path
         d="m 628.833,459.92 67.596,-67.596 c 48.836,19.389 103.95,18.183 152.007,-3.614 11.799,-5.353 14.622,-20.844 5.46,-30.006 L 733.52,238.329 c -14.625,-14.625 -14.625,-38.338 0,-52.963 L 853.771,65.114 c 9.221,-9.222 6.385,-24.827 -5.497,-30.203 C 776.762,2.554 689.668,15.763 630.885,74.545 575.672,129.757 560.806,210.52 586.267,279.503 l -68.926,68.926 z"
         id="path2"
         style="fill:#0088aa" /><path
         d="m 499.665,366.106 -93.414,-93.414 -111.491,111.492 93.414,93.414 111.49,111.491 341.527,341.527 c 4.877,4.877 11.271,7.316 17.662,7.316 6.393,0 12.785,-2.439 17.662,-7.316 l 76.166,-76.166 c 9.755,-9.756 9.755,-25.57 0,-35.324 L 611.155,477.598 Z"
         id="path4"
         style="fill:#d45500" /><path
         d="m 904.345,127.995 -99.869,99.869 c -7.984,7.984 -7.984,20.93 0,28.914 l 76.972,76.972 c 8.594,8.593 22.826,7.907 30.371,-1.619 45.178,-57.037 53.729,-133.579 25.659,-198.004 -5.728,-13.146 -22.995,-16.272 -33.133,-6.132 z"
         id="path6"
         style="fill:#00aad4" /><path
         d="M 139.613,601.295 259.988,721.67 c 14.625,14.625 14.625,38.338 0,52.963 L 139.737,894.885 c -9.221,9.221 -6.385,24.828 5.497,30.203 71.512,32.355 158.606,19.148 217.39,-39.635 55.014,-55.014 69.968,-135.395 44.888,-204.213 l 74.476,-74.475 -111.489,-111.49 -72.694,72.693 C 248.79,548.28 193.371,549.384 145.076,571.29 c -11.802,5.351 -14.624,20.845 -5.463,30.005 z"
         id="path8"
         style="fill:#0088aa" /><path
         d="m 81.69,629.866 c -45.177,57.037 -53.728,133.58 -25.659,198.004 5.727,13.146 22.994,16.271 33.133,6.133 l 99.869,-99.869 c 7.984,-7.984 7.984,-20.93 0,-28.914 l -76.972,-76.971 c -8.593,-8.594 -22.826,-7.909 -30.371,1.617 z"
         id="path10"
         style="fill:#00aad4" /><path
         d="m 138.849,461.443 c 11.956,11.956 31.339,11.956 43.295,0 l 5.772,-5.772 c 11.956,-11.955 11.956,-31.339 0,-43.294 l -11.545,-11.545 22.731,-22.73 -106.793,-106.794 -22.73,22.73 -11.545,-11.545 c -11.956,-11.955 -31.339,-11.955 -43.295,0 l -5.772,5.773 c -11.956,11.956 -11.956,31.339 0,43.294 z"
         id="path12"
         style="fill:#2b1100" /><path
         d="M 304.036,65.967 409.493,171.424 C 531.076,90.415 599.039,158.365 505.571,64.898 440.93,0.256 359.305,30.842 304.036,65.967 Z"
         id="path14"
         style="fill:#2b1100" /><path
         d="m 271.62,68.906 c -5.978,-5.978 -13.812,-8.967 -21.647,-8.967 -7.835,0 -15.67,2.989 -21.647,8.967 L 98.441,198.79 c -11.956,11.955 -11.956,31.339 0,43.295 l 11.545,11.545 106.793,106.793 11.545,11.545 c 5.978,5.978 13.812,8.967 21.647,8.967 1.894,0 3.788,-0.179 5.655,-0.528 4.374,-0.817 8.603,-2.592 12.352,-5.324 1.272,-0.929 2.491,-1.965 3.64,-3.113 l 5.462,-5.462 111.49,-111.491 8.838,-8.838 4.094,-4.093 c 1.631,-1.631 3.031,-3.405 4.218,-5.275 7.507,-11.836 6.105,-27.696 -4.218,-38.02 L 388.931,186.22 283.044,80.33 Z"
         id="path16"
         style="fill:#803300" /></g></g></svg>
