<?xml version="1.0" encoding="UTF-8" standalone="no"?>
<svg
   width="512"
   height="512"
   viewBox="0 0 512 512"
   fill="none"
   version="1.1"
   id="svg1566"
   sodipodi:docname="icon-academic.svg"
   inkscape:version="1.2.2 (b0a8486541, 2022-12-01)"
   xml:space="preserve"
   xmlns:inkscape="http://www.inkscape.org/namespaces/inkscape"
   xmlns:sodipodi="http://sodipodi.sourceforge.net/DTD/sodipodi-0.dtd"
   xmlns="http://www.w3.org/2000/svg"
   xmlns:svg="http://www.w3.org/2000/svg"><sodipodi:namedview
     id="namedview1568"
     pagecolor="#505050"
     bordercolor="#eeeeee"
     borderopacity="1"
     inkscape:showpageshadow="0"
     inkscape:pageopacity="0"
     inkscape:pagecheckerboard="0"
     inkscape:deskcolor="#505050"
     showgrid="true"
     inkscape:zoom="0.6142578"
     inkscape:cx="32.559619"
     inkscape:cy="249.08109"
     inkscape:window-width="1920"
     inkscape:window-height="1011"
     inkscape:window-x="0"
     inkscape:window-y="0"
     inkscape:window-maximized="1"
     inkscape:current-layer="svg1566"
     showguides="true"><inkscape:grid
       type="xygrid"
       id="grid344"
       spacingx="51.2"
       spacingy="51.2" /></sodipodi:namedview><defs
     id="defs1564"><filter
       id="filter0_f_201_13"
       x="43.8042"
       y="45.8394"
       width="424.356"
       height="424.415"
       filterUnits="userSpaceOnUse"
       color-interpolation-filters="sRGB"><feFlood
         flood-opacity="0"
         result="BackgroundImageFix"
         id="feFlood1540" /><feBlend
         mode="normal"
         in="SourceGraphic"
         in2="BackgroundImageFix"
         result="shape"
         id="feBlend1542" /><feGaussianBlur
         stdDeviation="2.08032"
         result="effect1_foregroundBlur_201_13"
         id="feGaussianBlur1544" /></filter><filter
       id="filter1_f_201_13"
       x="10.4"
       y="94.4"
       width="491.2"
       height="411.2"
       filterUnits="userSpaceOnUse"
       color-interpolation-filters="sRGB"><feFlood
         flood-opacity="0"
         result="BackgroundImageFix"
         id="feFlood1547" /><feBlend
         mode="normal"
         in="SourceGraphic"
         in2="BackgroundImageFix"
         result="shape"
         id="feBlend1549" /><feGaussianBlur
         stdDeviation="18.8"
         result="effect1_foregroundBlur_201_13"
         id="feGaussianBlur1551" /></filter><linearGradient
       id="paint0_linear_201_13"
       x1="48"
       y1="132"
       x2="464"
       y2="132"
       gradientUnits="userSpaceOnUse"><stop
         stop-color="#3584E4"
         id="stop1554" /><stop
         offset="1"
         stop-color="#62A0EA"
         id="stop1556" /></linearGradient><linearGradient
       id="paint1_linear_201_13"
       x1="152.898"
       y1="173.203"
       x2="447.309"
       y2="528"
       gradientUnits="userSpaceOnUse"><stop
         stop-color="#99C1F1"
         id="stop1559" /><stop
         offset="1"
         stop-color="#C3E5E7"
         id="stop1561" /></linearGradient></defs><g
     id="g1807"
     transform="translate(3.7154571,-5.855314)"><path
       sodipodi:type="star"
       style="fill:#78909c;fill-opacity:1;stroke-width:9"
       id="path3227"
       inkscape:flatsided="true"
       sodipodi:sides="4"
       sodipodi:cx="-53.941971"
       sodipodi:cy="-6.0170908"
       sodipodi:r1="24.740685"
       sodipodi:r2="6.1872935"
       sodipodi:arg1="0.0040527692"
       sodipodi:arg2="0.78945089"
       inkscape:rounded="0.05"
       inkscape:randomized="0"
       d="m -29.201489,-5.9168228 c -0.0071,1.7494162 -23.091334,24.6473038 -24.84075,24.6402138 -1.749416,-0.0071 -24.647303,-23.0913336 -24.640213,-24.8407498 0.0071,-1.7494162 23.091333,-24.6473032 24.840749,-24.6402132 1.749416,0.0071 24.647304,23.091333 24.640214,24.8407492 z"
       transform="matrix(9.153687,0,0,4.1700634,746.05246,255.40312)" /><path
       id="path3256"
       style="fill:#37474f;fill-opacity:1;stroke-width:46.833"
       d="m 118.50313,277.82873 v 77.1154 2.38668 h 0.38723 a 132.10575,50.252594 0 0 0 131.7187,47.86255 132.10575,50.252594 0 0 0 131.71878,-47.86255 h 0.38723 v -2.38668 -75.45443 c -58.23768,26.60131 -122.7563,54.00634 -131.3479,53.99047 -8.71692,-0.0167 -74.4657,-28.47745 -132.86363,-55.65144 z" /><path
       id="rect3264"
       style="fill:#37474f;fill-opacity:1;stroke-width:73.8031"
       d="m 246.27095,208.56667 c -5.4236,0.17922 -10.13531,4.14094 -11.07873,9.70795 -1.07821,6.36238 3.18433,12.33885 9.54671,13.417 l 162.81002,27.60803 0.27413,115.0604 a 18.488571,18.488571 0 0 0 -6.6601,14.12658 18.488571,18.488571 0 0 0 1.72545,7.77285 26.265848,26.265848 0 0 0 -9.49831,20.15768 26.265848,26.265848 0 0 0 2.5318,11.17548 l 22.43156,44.9759 25.06013,-44.8953 h -0.0965 a 26.265848,26.265848 0 0 0 2.59628,-11.30445 H 431.2386 v -0.0331 l 14.67479,-0.0495 a 26.265848,26.265848 0 0 0 -9.5144,-20.04482 18.488571,18.488571 0 0 0 1.74155,-7.78895 h -6.9826 v -0.0331 l 6.9826,-0.0167 a 18.488571,18.488571 0 0 0 -7.01489,-14.3201 L 430.81933,252.6362 c 0.002,-0.009 -0.002,-0.0248 0,-0.0331 0.10071,-0.37074 0.19233,-0.75796 0.25761,-1.14496 1.07822,-6.36237 -3.16824,-12.35494 -9.53053,-13.43317 l -172.9212,-29.30124 c -0.79509,-0.13468 -1.57964,-0.18651 -2.35445,-0.1609 z" /></g></svg>
