<?xml version="1.0" encoding="UTF-8" standalone="no"?>
<svg
   width="512"
   height="512"
   viewBox="0 0 512 512"
   fill="none"
   version="1.1"
   id="svg1566"
   sodipodi:docname="icon-cloud-d.svg"
   inkscape:version="1.2.2 (b0a8486541, 2022-12-01)"
   xml:space="preserve"
   xmlns:inkscape="http://www.inkscape.org/namespaces/inkscape"
   xmlns:sodipodi="http://sodipodi.sourceforge.net/DTD/sodipodi-0.dtd"
   xmlns:xlink="http://www.w3.org/1999/xlink"
   xmlns="http://www.w3.org/2000/svg"
   xmlns:svg="http://www.w3.org/2000/svg"><sodipodi:namedview
     id="namedview1568"
     pagecolor="#505050"
     bordercolor="#eeeeee"
     borderopacity="1"
     inkscape:showpageshadow="0"
     inkscape:pageopacity="0"
     inkscape:pagecheckerboard="0"
     inkscape:deskcolor="#505050"
     showgrid="true"
     inkscape:zoom="0.6142578"
     inkscape:cx="219.77743"
     inkscape:cy="286.52465"
     inkscape:window-width="1920"
     inkscape:window-height="1011"
     inkscape:window-x="0"
     inkscape:window-y="0"
     inkscape:window-maximized="1"
     inkscape:current-layer="svg1566"
     showguides="true"><inkscape:grid
       type="xygrid"
       id="grid344"
       spacingx="51.2"
       spacingy="51.2" /></sodipodi:namedview><defs
     id="defs1564"><linearGradient
       id="linearGradient3072"
       x1="48"
       y1="132"
       x2="464"
       y2="132"
       gradientUnits="userSpaceOnUse"><stop
         stop-color="#3584E4"
         id="stop3068"
         style="stop-color:#ffcb00;stop-opacity:1;"
         offset="0" /><stop
         offset="1"
         stop-color="#62A0EA"
         id="stop3070"
         style="stop-color:#ff0000;stop-opacity:1" /></linearGradient><filter
       id="filter0_f_201_13"
       x="43.8042"
       y="45.8394"
       width="424.356"
       height="424.415"
       filterUnits="userSpaceOnUse"
       color-interpolation-filters="sRGB"><feFlood
         flood-opacity="0"
         result="BackgroundImageFix"
         id="feFlood1540" /><feBlend
         mode="normal"
         in="SourceGraphic"
         in2="BackgroundImageFix"
         result="shape"
         id="feBlend1542" /><feGaussianBlur
         stdDeviation="2.08032"
         result="effect1_foregroundBlur_201_13"
         id="feGaussianBlur1544" /></filter><filter
       id="filter1_f_201_13"
       x="10.4"
       y="94.4"
       width="491.2"
       height="411.2"
       filterUnits="userSpaceOnUse"
       color-interpolation-filters="sRGB"><feFlood
         flood-opacity="0"
         result="BackgroundImageFix"
         id="feFlood1547" /><feBlend
         mode="normal"
         in="SourceGraphic"
         in2="BackgroundImageFix"
         result="shape"
         id="feBlend1549" /><feGaussianBlur
         stdDeviation="18.8"
         result="effect1_foregroundBlur_201_13"
         id="feGaussianBlur1551" /></filter><linearGradient
       id="paint0_linear_201_13"
       x1="48"
       y1="132"
       x2="464"
       y2="132"
       gradientUnits="userSpaceOnUse"><stop
         stop-color="#3584E4"
         id="stop1554" /><stop
         offset="1"
         stop-color="#62A0EA"
         id="stop1556" /></linearGradient><linearGradient
       id="paint1_linear_201_13"
       x1="152.898"
       y1="173.203"
       x2="447.309"
       y2="528"
       gradientUnits="userSpaceOnUse"><stop
         stop-color="#99C1F1"
         id="stop1559" /><stop
         offset="1"
         stop-color="#C3E5E7"
         id="stop1561" /></linearGradient><linearGradient
       id="linearGradient12124"
       x1="48"
       y1="132"
       x2="464"
       y2="132"
       gradientUnits="userSpaceOnUse"><stop
         stop-color="#3584E4"
         id="stop12120"
         style="stop-color:#ffcc00;stop-opacity:1" /><stop
         offset="1"
         stop-color="#62A0EA"
         id="stop12122"
         style="stop-color:#ff0000;stop-opacity:1" /></linearGradient><radialGradient
       inkscape:collect="always"
       xlink:href="#linearGradient12124"
       id="radialGradient2023"
       cx="149.52119"
       cy="391.74188"
       fx="149.52119"
       fy="391.74188"
       r="59.370811"
       gradientTransform="matrix(2.329427,0.02915695,-0.01624549,1.2979076,-198.80492,-129.09365)"
       gradientUnits="userSpaceOnUse" /><radialGradient
       inkscape:collect="always"
       xlink:href="#linearGradient12124"
       id="radialGradient2031"
       cx="149.52119"
       cy="391.74188"
       fx="149.52119"
       fy="391.74188"
       r="59.370811"
       gradientTransform="matrix(2.329427,0.02915695,-0.01624549,1.2979076,-198.80492,-129.09365)"
       gradientUnits="userSpaceOnUse" /><radialGradient
       inkscape:collect="always"
       xlink:href="#linearGradient12124"
       id="radialGradient2039"
       cx="149.52119"
       cy="391.74188"
       fx="149.52119"
       fy="391.74188"
       r="59.370811"
       gradientTransform="matrix(2.329427,0.02915695,-0.01624549,1.2979076,-198.80492,-129.09365)"
       gradientUnits="userSpaceOnUse" /><radialGradient
       inkscape:collect="always"
       xlink:href="#linearGradient12124"
       id="radialGradient2047"
       cx="149.52119"
       cy="391.74188"
       fx="149.52119"
       fy="391.74188"
       r="59.370811"
       gradientTransform="matrix(2.329427,0.02915695,-0.01624549,1.2979076,-198.80492,-129.09365)"
       gradientUnits="userSpaceOnUse" /><radialGradient
       inkscape:collect="always"
       xlink:href="#linearGradient12124"
       id="radialGradient2055"
       cx="149.52119"
       cy="391.74188"
       fx="149.52119"
       fy="391.74188"
       r="59.370811"
       gradientTransform="matrix(2.329427,0.02915695,-0.01624549,1.2979076,-198.80492,-129.09365)"
       gradientUnits="userSpaceOnUse" /><radialGradient
       inkscape:collect="always"
       xlink:href="#linearGradient12124"
       id="radialGradient2063"
       cx="149.52119"
       cy="391.74188"
       fx="149.52119"
       fy="391.74188"
       r="59.370811"
       gradientTransform="matrix(2.329427,0.02915695,-0.01624549,1.2979076,-198.80492,-129.09365)"
       gradientUnits="userSpaceOnUse" /><radialGradient
       inkscape:collect="always"
       xlink:href="#linearGradient12124"
       id="radialGradient2071"
       cx="149.52119"
       cy="391.74188"
       fx="149.52119"
       fy="391.74188"
       r="59.370811"
       gradientTransform="matrix(2.329427,0.02915695,-0.01624549,1.2979076,-198.80492,-129.09365)"
       gradientUnits="userSpaceOnUse" /><radialGradient
       inkscape:collect="always"
       xlink:href="#linearGradient12124"
       id="radialGradient2079"
       cx="149.52119"
       cy="391.74188"
       fx="149.52119"
       fy="391.74188"
       r="59.370811"
       gradientTransform="matrix(2.329427,0.02915695,-0.01624549,1.2979076,-198.80492,-129.09365)"
       gradientUnits="userSpaceOnUse" /><radialGradient
       inkscape:collect="always"
       xlink:href="#linearGradient12124"
       id="radialGradient2087"
       cx="149.52119"
       cy="391.74188"
       fx="149.52119"
       fy="391.74188"
       r="59.370811"
       gradientTransform="matrix(2.329427,0.02915695,-0.01624549,1.2979076,-198.80492,-129.09365)"
       gradientUnits="userSpaceOnUse" /><filter
       id="filter0_f_201_13-3"
       x="43.8042"
       y="45.8394"
       width="424.356"
       height="424.415"
       filterUnits="userSpaceOnUse"
       color-interpolation-filters="sRGB"><feFlood
         flood-opacity="0"
         result="BackgroundImageFix"
         id="feFlood1540-5" /><feBlend
         mode="normal"
         in="SourceGraphic"
         in2="BackgroundImageFix"
         result="shape"
         id="feBlend1542-6" /><feGaussianBlur
         stdDeviation="2.08032"
         result="effect1_foregroundBlur_201_13"
         id="feGaussianBlur1544-2" /></filter><filter
       id="filter1_f_201_13-9"
       x="10.4"
       y="94.4"
       width="491.2"
       height="411.2"
       filterUnits="userSpaceOnUse"
       color-interpolation-filters="sRGB"><feFlood
         flood-opacity="0"
         result="BackgroundImageFix"
         id="feFlood1547-1" /><feBlend
         mode="normal"
         in="SourceGraphic"
         in2="BackgroundImageFix"
         result="shape"
         id="feBlend1549-2" /><feGaussianBlur
         stdDeviation="18.8"
         result="effect1_foregroundBlur_201_13"
         id="feGaussianBlur1551-7" /></filter><filter
       style="color-interpolation-filters:sRGB;"
       inkscape:label="Feather"
       id="filter8435"
       x="-0.061746229"
       y="-0.088554687"
       width="1.1234925"
       height="1.1771094"><feGaussianBlur
         stdDeviation="11.0346"
         result="blur"
         id="feGaussianBlur8427" /><feComposite
         in="SourceGraphic"
         in2="blur"
         operator="atop"
         result="composite1"
         id="feComposite8429" /><feComposite
         in2="composite1"
         operator="in"
         result="composite2"
         id="feComposite8431" /><feComposite
         in2="composite2"
         operator="in"
         result="composite3"
         id="feComposite8433" /></filter></defs><path
     style="fill:#00ccff;fill-opacity:1;stroke-width:0.793542"
     d="m 179.79148,335.29179 c -23.63712,-4.87262 -42.19536,-22.51871 -48.50247,-46.1186 -3.28755,-12.3015 -2.13245,-28.08221 2.93724,-40.12725 4.63048,-11.00144 14.50432,-22.5857 24.63148,-28.89842 6.47749,-4.03775 16.50342,-7.92101 22.50667,-8.71734 2.26442,-0.30015 4.22892,-0.94252 4.36572,-1.42687 0.13646,-0.48414 0.81858,-3.38044 1.51447,-6.43553 6.48314,-28.45084 35.98466,-48.1428 64.41756,-42.99799 21.07537,3.81345 38.46278,18.79298 44.68009,38.49268 l 1.71824,5.44423 4.94092,1.37374 c 13.46927,3.74472 24.28301,13.37588 29.52936,26.29962 l 1.91453,4.71637 4.58154,0.58798 c 10.43582,1.34011 20.67767,6.38894 28.44696,14.02302 26.80321,26.33731 16.41955,70.54542 -19.45219,82.8164 l -5.15797,1.76445 -78.95709,0.13283 c -63.30559,0.10661 -79.97952,-0.0791 -84.11506,-0.9301 z"
     id="path7180"
     sodipodi:nodetypes="cssscccsscsscccscscc" /><g
     id="g8869"
     transform="translate(-3.832292,0.022064)"><path
       id="path1434"
       style="color:#000000;opacity:1;fill:#ff6600;fill-opacity:1;stroke:none;stroke-width:37.1047;-inkscape-stroke:none"
       d="m 448.72012,158.53383 c -11.89772,24.88439 -28.73524,36.1496 -48.53061,39.11356 7.69478,18.46176 11.72825,38.27804 11.74817,58.35028 -0.0109,84.18908 -67.84436,152.0389 -152.02554,152.08191 -21.88498,-0.16999 -43.32025,-5.32581 -63.0769,-14.55435 -0.56944,-6.82365 -1.95713,-13.27641 -4.23546,-17.87186 -7.28104,-14.68546 -21.40752,-25.43259 -37.53937,-28.31556 -22.4249,-4.00761 -44.70898,7.78332 -54.77505,28.15048 -2.824767,5.71496 -4.748711,13.36768 -5.048744,20.22313 -0.285885,6.53612 0.523447,13.43561 2.302947,18.78172 5.704337,17.14189 19.124537,29.7545 36.798527,33.9199 10.72824,2.52849 21.5965,1.37686 31.27475,-2.5606 29.21679,14.68418 61.3096,22.84097 94.10202,23.04941 h 0.0566 0.0603 c 117.37478,-1.5e-4 212.92419,-95.54951 212.92432,-212.9243 v -0.0403 -0.0403 c -0.14693,-33.18514 -8.04753,-65.87808 -23.07359,-95.46689 z"
       sodipodi:nodetypes="ccccccscscscccsscscc" /><path
       id="path1511"
       style="color:#000000;opacity:1;fill:#ffc107;fill-opacity:1;stroke:none;stroke-width:37.1047;-inkscape-stroke:none"
       d="m 70.944451,353.42204 c 9.263312,-24.66805 27.461321,-34.97785 48.530609,-39.11356 -7.69478,-18.46176 -11.72825,-38.27804 -11.74816,-58.35028 0.0109,-84.18908 67.84431,-152.0389 152.02553,-152.08191 21.88498,0.17021 43.32025,5.32581 63.0769,14.55435 0.56944,6.82365 1.95713,13.27641 4.23542,17.87186 7.28105,14.68546 21.40754,25.43259 37.53941,28.31556 22.4249,4.00761 44.70899,-7.78332 54.77506,-28.15048 2.82476,-5.71496 4.7487,-13.36768 5.04874,-20.22313 0.28588,-6.53612 -0.52345,-13.43561 -2.30295,-18.781717 -5.70433,-17.14189 -19.12453,-29.7545 -36.79853,-33.9199 -10.72824,-2.528495 -21.5965,-1.376858 -31.27475,2.560601 -29.21679,-14.684176 -61.3096,-22.840973 -94.10202,-23.049412 h -0.0566 -0.0603 C 142.45804,43.054175 46.908634,138.60353 46.908504,255.97832 v 0.0403 0.0403 c 0.146926,33.18514 8.047527,65.87808 23.073594,95.46689 z"
       sodipodi:nodetypes="ccccccscscscccsscscc" /></g></svg>
