<?xml version="1.0" encoding="UTF-8" standalone="no"?>
<svg
   width="512"
   height="512"
   viewBox="0 0 512 512"
   fill="none"
   version="1.1"
   id="svg1566"
   sodipodi:docname="icon-backup.svg"
   inkscape:version="1.2.2 (b0a8486541, 2022-12-01)"
   xml:space="preserve"
   xmlns:inkscape="http://www.inkscape.org/namespaces/inkscape"
   xmlns:sodipodi="http://sodipodi.sourceforge.net/DTD/sodipodi-0.dtd"
   xmlns="http://www.w3.org/2000/svg"
   xmlns:svg="http://www.w3.org/2000/svg"><sodipodi:namedview
     id="namedview1568"
     pagecolor="#505050"
     bordercolor="#eeeeee"
     borderopacity="1"
     inkscape:showpageshadow="0"
     inkscape:pageopacity="0"
     inkscape:pagecheckerboard="0"
     inkscape:deskcolor="#505050"
     showgrid="true"
     inkscape:zoom="0.6142578"
     inkscape:cx="32.559619"
     inkscape:cy="249.08109"
     inkscape:window-width="1920"
     inkscape:window-height="1011"
     inkscape:window-x="0"
     inkscape:window-y="0"
     inkscape:window-maximized="1"
     inkscape:current-layer="svg1566"
     showguides="true"><inkscape:grid
       type="xygrid"
       id="grid344"
       spacingx="51.2"
       spacingy="51.2" /></sodipodi:namedview><defs
     id="defs1564"><filter
       id="filter0_f_201_13"
       x="43.8042"
       y="45.8394"
       width="424.356"
       height="424.415"
       filterUnits="userSpaceOnUse"
       color-interpolation-filters="sRGB"><feFlood
         flood-opacity="0"
         result="BackgroundImageFix"
         id="feFlood1540" /><feBlend
         mode="normal"
         in="SourceGraphic"
         in2="BackgroundImageFix"
         result="shape"
         id="feBlend1542" /><feGaussianBlur
         stdDeviation="2.08032"
         result="effect1_foregroundBlur_201_13"
         id="feGaussianBlur1544" /></filter><filter
       id="filter1_f_201_13"
       x="10.4"
       y="94.4"
       width="491.2"
       height="411.2"
       filterUnits="userSpaceOnUse"
       color-interpolation-filters="sRGB"><feFlood
         flood-opacity="0"
         result="BackgroundImageFix"
         id="feFlood1547" /><feBlend
         mode="normal"
         in="SourceGraphic"
         in2="BackgroundImageFix"
         result="shape"
         id="feBlend1549" /><feGaussianBlur
         stdDeviation="18.8"
         result="effect1_foregroundBlur_201_13"
         id="feGaussianBlur1551" /></filter><linearGradient
       id="paint0_linear_201_13"
       x1="48"
       y1="132"
       x2="464"
       y2="132"
       gradientUnits="userSpaceOnUse"><stop
         stop-color="#3584E4"
         id="stop1554" /><stop
         offset="1"
         stop-color="#62A0EA"
         id="stop1556" /></linearGradient><linearGradient
       id="paint1_linear_201_13"
       x1="152.898"
       y1="173.203"
       x2="447.309"
       y2="528"
       gradientUnits="userSpaceOnUse"><stop
         stop-color="#99C1F1"
         id="stop1559" /><stop
         offset="1"
         stop-color="#C3E5E7"
         id="stop1561" /></linearGradient></defs><g
     id="g1575"
     transform="translate(-8.7826315,6.4769425)"><path
       id="rect5813"
       style="fill:#78909c;fill-opacity:1;stroke-width:91.1846"
       d="m 109.37665,278.43581 c -22.902133,0 -41.334663,18.45227 -41.334663,41.35438 v 28.21314 43.06854 28.23279 c 0,22.90212 18.43253,41.33471 41.334663,41.33471 h 310.81783 c 22.90214,0 41.33469,-18.43259 41.33469,-41.33471 v -28.23279 -43.06854 -28.21314 c 0,-22.90211 -18.43255,-41.35438 -41.33469,-41.35438 z" /><path
       id="rect5726"
       style="fill:#455a64;fill-opacity:1;stroke-width:90.7866"
       d="M 150.89465,77.978398 H 378.6688 c 23.20503,0 37.1183,19.176448 41.88633,41.886282 l 40.34956,192.18263 c 4.76805,22.70996 -18.6813,41.88638 -41.88632,41.88638 H 110.54506 c -23.205025,0 -46.654373,-19.17642 -41.886343,-41.88638 L 109.0083,119.86468 c 4.76805,-22.709834 18.68132,-41.886282 41.88635,-41.886282 z"
       sodipodi:nodetypes="sssssssss" /><path
       style="fill:#64dd17;fill-opacity:1;stroke-width:90.7866"
       id="path5867"
       sodipodi:type="arc"
       sodipodi:cx="383.71533"
       sodipodi:cy="406.71552"
       sodipodi:rx="22.986771"
       sodipodi:ry="22.986771"
       sodipodi:start="0"
       sodipodi:end="6.2800631"
       sodipodi:arc-type="slice"
       d="m 406.7021,406.71552 a 22.986771,22.986771 0 0 1 -22.96883,22.98676 22.986771,22.986771 0 0 1 -23.00468,-22.95088 22.986771,22.986771 0 0 1 22.93291,-23.02259 22.986771,22.986771 0 0 1 23.04049,22.91494 l -22.98666,0.0718 z" /><path
       id="rect5668"
       style="fill:#00e5ff;fill-opacity:1;stroke-width:95.5115"
       d="M 232.53348,38.407051 V 202.62278 l -56.15054,0.11807 88.974,91.14113 87.81156,-91.53525 -56.13085,0.11807 V 38.406745 Z" /></g></svg>
