<?xml version="1.0" encoding="UTF-8" standalone="no"?>
<svg
   width="512"
   height="512"
   viewBox="0 0 512 512"
   fill="none"
   version="1.1"
   id="svg1566"
   sodipodi:docname="icon-cloud.svg"
   inkscape:version="1.2.2 (b0a8486541, 2022-12-01)"
   xml:space="preserve"
   xmlns:inkscape="http://www.inkscape.org/namespaces/inkscape"
   xmlns:sodipodi="http://sodipodi.sourceforge.net/DTD/sodipodi-0.dtd"
   xmlns:xlink="http://www.w3.org/1999/xlink"
   xmlns="http://www.w3.org/2000/svg"
   xmlns:svg="http://www.w3.org/2000/svg"><sodipodi:namedview
     id="namedview1568"
     pagecolor="#505050"
     bordercolor="#eeeeee"
     borderopacity="1"
     inkscape:showpageshadow="0"
     inkscape:pageopacity="0"
     inkscape:pagecheckerboard="0"
     inkscape:deskcolor="#505050"
     showgrid="true"
     inkscape:zoom="2.4570312"
     inkscape:cx="212.04452"
     inkscape:cy="276.75676"
     inkscape:window-width="1920"
     inkscape:window-height="1011"
     inkscape:window-x="0"
     inkscape:window-y="0"
     inkscape:window-maximized="1"
     inkscape:current-layer="svg1566"
     showguides="true"><inkscape:grid
       type="xygrid"
       id="grid344"
       spacingx="51.2"
       spacingy="51.2" /></sodipodi:namedview><defs
     id="defs1564"><linearGradient
       inkscape:collect="always"
       id="linearGradient1280"><stop
         style="stop-color:#00b3ff;stop-opacity:1;"
         offset="0"
         id="stop1276" /><stop
         style="stop-color:#5dc8e4;stop-opacity:1;"
         offset="1"
         id="stop1278" /></linearGradient><linearGradient
       id="linearGradient3072"
       x1="48"
       y1="132"
       x2="464"
       y2="132"
       gradientUnits="userSpaceOnUse"><stop
         stop-color="#3584E4"
         id="stop3068"
         style="stop-color:#ffcb00;stop-opacity:1;"
         offset="0" /><stop
         offset="1"
         stop-color="#62A0EA"
         id="stop3070"
         style="stop-color:#ff0000;stop-opacity:1" /></linearGradient><filter
       id="filter0_f_201_13"
       x="43.8042"
       y="45.8394"
       width="424.356"
       height="424.415"
       filterUnits="userSpaceOnUse"
       color-interpolation-filters="sRGB"><feFlood
         flood-opacity="0"
         result="BackgroundImageFix"
         id="feFlood1540" /><feBlend
         mode="normal"
         in="SourceGraphic"
         in2="BackgroundImageFix"
         result="shape"
         id="feBlend1542" /><feGaussianBlur
         stdDeviation="2.08032"
         result="effect1_foregroundBlur_201_13"
         id="feGaussianBlur1544" /></filter><filter
       id="filter1_f_201_13"
       x="10.4"
       y="94.4"
       width="491.2"
       height="411.2"
       filterUnits="userSpaceOnUse"
       color-interpolation-filters="sRGB"><feFlood
         flood-opacity="0"
         result="BackgroundImageFix"
         id="feFlood1547" /><feBlend
         mode="normal"
         in="SourceGraphic"
         in2="BackgroundImageFix"
         result="shape"
         id="feBlend1549" /><feGaussianBlur
         stdDeviation="18.8"
         result="effect1_foregroundBlur_201_13"
         id="feGaussianBlur1551" /></filter><linearGradient
       id="paint0_linear_201_13"
       x1="48"
       y1="132"
       x2="464"
       y2="132"
       gradientUnits="userSpaceOnUse"><stop
         stop-color="#3584E4"
         id="stop1554" /><stop
         offset="1"
         stop-color="#62A0EA"
         id="stop1556" /></linearGradient><linearGradient
       id="paint1_linear_201_13"
       x1="152.898"
       y1="173.203"
       x2="447.309"
       y2="528"
       gradientUnits="userSpaceOnUse"><stop
         stop-color="#99C1F1"
         id="stop1559" /><stop
         offset="1"
         stop-color="#C3E5E7"
         id="stop1561" /></linearGradient><linearGradient
       id="linearGradient12124"
       x1="48"
       y1="132"
       x2="464"
       y2="132"
       gradientUnits="userSpaceOnUse"><stop
         stop-color="#3584E4"
         id="stop12120"
         style="stop-color:#ffcc00;stop-opacity:1" /><stop
         offset="1"
         stop-color="#62A0EA"
         id="stop12122"
         style="stop-color:#ff0000;stop-opacity:1" /></linearGradient><radialGradient
       inkscape:collect="always"
       xlink:href="#linearGradient12124"
       id="radialGradient2023"
       cx="149.52119"
       cy="391.74188"
       fx="149.52119"
       fy="391.74188"
       r="59.370811"
       gradientTransform="matrix(2.329427,0.02915695,-0.01624549,1.2979076,-198.80492,-129.09365)"
       gradientUnits="userSpaceOnUse" /><radialGradient
       inkscape:collect="always"
       xlink:href="#linearGradient12124"
       id="radialGradient2031"
       cx="149.52119"
       cy="391.74188"
       fx="149.52119"
       fy="391.74188"
       r="59.370811"
       gradientTransform="matrix(2.329427,0.02915695,-0.01624549,1.2979076,-198.80492,-129.09365)"
       gradientUnits="userSpaceOnUse" /><radialGradient
       inkscape:collect="always"
       xlink:href="#linearGradient12124"
       id="radialGradient2039"
       cx="149.52119"
       cy="391.74188"
       fx="149.52119"
       fy="391.74188"
       r="59.370811"
       gradientTransform="matrix(2.329427,0.02915695,-0.01624549,1.2979076,-198.80492,-129.09365)"
       gradientUnits="userSpaceOnUse" /><radialGradient
       inkscape:collect="always"
       xlink:href="#linearGradient12124"
       id="radialGradient2047"
       cx="149.52119"
       cy="391.74188"
       fx="149.52119"
       fy="391.74188"
       r="59.370811"
       gradientTransform="matrix(2.329427,0.02915695,-0.01624549,1.2979076,-198.80492,-129.09365)"
       gradientUnits="userSpaceOnUse" /><radialGradient
       inkscape:collect="always"
       xlink:href="#linearGradient12124"
       id="radialGradient2055"
       cx="149.52119"
       cy="391.74188"
       fx="149.52119"
       fy="391.74188"
       r="59.370811"
       gradientTransform="matrix(2.329427,0.02915695,-0.01624549,1.2979076,-198.80492,-129.09365)"
       gradientUnits="userSpaceOnUse" /><radialGradient
       inkscape:collect="always"
       xlink:href="#linearGradient12124"
       id="radialGradient2063"
       cx="149.52119"
       cy="391.74188"
       fx="149.52119"
       fy="391.74188"
       r="59.370811"
       gradientTransform="matrix(2.329427,0.02915695,-0.01624549,1.2979076,-198.80492,-129.09365)"
       gradientUnits="userSpaceOnUse" /><radialGradient
       inkscape:collect="always"
       xlink:href="#linearGradient12124"
       id="radialGradient2071"
       cx="149.52119"
       cy="391.74188"
       fx="149.52119"
       fy="391.74188"
       r="59.370811"
       gradientTransform="matrix(2.329427,0.02915695,-0.01624549,1.2979076,-198.80492,-129.09365)"
       gradientUnits="userSpaceOnUse" /><radialGradient
       inkscape:collect="always"
       xlink:href="#linearGradient12124"
       id="radialGradient2079"
       cx="149.52119"
       cy="391.74188"
       fx="149.52119"
       fy="391.74188"
       r="59.370811"
       gradientTransform="matrix(2.329427,0.02915695,-0.01624549,1.2979076,-198.80492,-129.09365)"
       gradientUnits="userSpaceOnUse" /><radialGradient
       inkscape:collect="always"
       xlink:href="#linearGradient12124"
       id="radialGradient2087"
       cx="149.52119"
       cy="391.74188"
       fx="149.52119"
       fy="391.74188"
       r="59.370811"
       gradientTransform="matrix(2.329427,0.02915695,-0.01624549,1.2979076,-198.80492,-129.09365)"
       gradientUnits="userSpaceOnUse" /><linearGradient
       inkscape:collect="always"
       xlink:href="#linearGradient1280"
       id="linearGradient1284"
       x1="47.135342"
       y1="237.3091"
       x2="476.03668"
       y2="237.3091"
       gradientUnits="userSpaceOnUse"
       gradientTransform="translate(-5.5860132,18.690909)" /></defs><path
     style="fill:url(#linearGradient1284);fill-opacity:1;stroke-width:1.34459"
     d="m 126.87113,403.90853 c -40.051087,-8.25624 -71.496457,-38.15605 -82.18331,-78.14406 -5.570474,-20.84385 -3.61326,-47.58291 4.976905,-67.99221 7.845947,-18.64101 24.576325,-38.26956 41.735947,-48.96592 10.975558,-6.84162 27.963648,-13.42148 38.135638,-14.7708 3.83686,-0.50857 7.16554,-1.59701 7.39735,-2.41771 0.23121,-0.82033 1.387,-5.72787 2.56613,-10.90446 10.98513,-48.20753 60.97296,-81.573871 109.15008,-72.85644 35.71043,6.46157 65.17192,31.84311 75.70663,65.22258 l 2.9114,9.22478 8.37198,2.32769 c 22.82253,6.34512 41.1455,22.66429 50.03499,44.56247 l 3.244,7.99149 7.76303,0.99629 c 17.68262,2.2707 35.03657,10.82551 48.20097,23.76082 45.41575,44.62633 27.82153,119.53321 -32.96009,140.32535 l -8.73974,2.9897 -133.78609,0.22508 c -107.26594,0.18064 -135.5185,-0.13406 -142.52582,-1.57598 z"
     id="path15629"
     sodipodi:nodetypes="cssscccsscsscccscscc" /><path
     id="path1434"
     style="color:#000000;opacity:0.6;fill:#ffffff;stroke:none;stroke-width:13.175;-inkscape-stroke:none"
     d="m 307.9322,241.68304 c -4.22461,8.83587 -10.20322,12.83588 -17.2321,13.88832 2.73224,6.55534 4.16443,13.59164 4.1715,20.71883 -0.004,29.8936 -24.08996,53.9855 -53.98075,54.00077 -7.77085,-0.0604 -15.38202,-1.89107 -22.39715,-5.16791 -0.20219,-2.42292 -0.69493,-4.71415 -1.50391,-6.34589 -2.58533,-5.21446 -7.60132,-9.03052 -13.32936,-10.0542 -7.96257,-1.42301 -15.87513,2.76368 -19.44936,9.99559 -1.00301,2.02925 -1.68616,4.74655 -1.79269,7.18076 -0.10151,2.32083 0.18586,4.77068 0.81772,6.66896 2.02548,6.08669 6.79068,10.56513 13.06631,12.04417 3.80935,0.89781 7.66842,0.48889 11.10494,-0.90921 10.37421,5.21401 21.76962,8.1103 33.41345,8.18431 h 0.0201 0.0214 c 41.67707,-5e-5 75.60445,-33.92742 75.6045,-75.60449 v -0.0143 -0.0143 c -0.0522,-11.78327 -2.85749,-23.39178 -8.1929,-33.89808 z"
     sodipodi:nodetypes="ccccccscscscccsscscc" /><path
     id="path1511"
     style="color:#000000;opacity:0.6;fill:#ffffff;stroke:none;stroke-width:13.175;-inkscape-stroke:none"
     d="m 173.79279,310.88333 c 3.28919,-8.75905 9.75088,-12.41982 17.2321,-13.88832 -2.73224,-6.55534 -4.16443,-13.59164 -4.1715,-20.71883 0.004,-29.8936 24.08995,-53.9855 53.98075,-54.00077 7.77085,0.0604 15.38202,1.89107 22.39715,5.16791 0.20219,2.42292 0.69493,4.71415 1.5039,6.34589 2.58533,5.21446 7.60132,9.03052 13.32937,10.0542 7.96257,1.42301 15.87513,-2.76368 19.44936,-9.99559 1.00301,-2.02925 1.68616,-4.74655 1.79269,-7.18076 0.10151,-2.32083 -0.18586,-4.77068 -0.81772,-6.66896 -2.02548,-6.08669 -6.79068,-10.56513 -13.06631,-12.04417 -3.80935,-0.89781 -7.66842,-0.48889 -11.10494,0.90921 -10.37421,-5.21401 -21.76962,-8.1103 -33.41345,-8.18431 h -0.0201 -0.0214 c -41.67707,5e-5 -75.60445,33.92742 -75.6045,75.60449 v 0.0143 0.0143 c 0.0522,11.78327 2.85749,23.39178 8.1929,33.89808 z"
     sodipodi:nodetypes="ccccccscscscccsscscc" /></svg>
